{
.appVersion = "1286";
DisplayStrings = (
ABCDEFGHIJKLMNOPQRSTUVWXYZabcdefghijklmnopqrstuvwxyz0123456789,

glyphs = (
{
glyphname = A;
lastChange = "2020-03-26 11:01:55 +0000";
layers = (
{
layerId = "CFFEBDE4-599A-46B2-9328-D96E42CD9C81";
paths = (
{
closed = 1;
nodes = (
"638 0 LINE",
"360 717 LINE",
"279 717 LINE",
"0 0 LINE",
"91 0 LINE",
"176 221 LINE",
"459 221 LINE",
"545 0 LINE",
"545 0 LINE"
);
},
{
closed = 1;
nodes = (
"206 301 LINE",
"287 517 LINE SMOOTH",
"293 534 OFFCURVE",
"311 593 OFFCURVE",
"318 624 QCURVE",
"322 612 OFFCURVE",
"335 567 OFFCURVE",
"349 525 OFFCURVE",
"352 517 QCURVE SMOOTH",
"432 301 LINE",
"432 301 LINE"
);
}
);
width = 639;
}
);
leftKerningGroup = A;
note = A;
rightKerningGroup = A;
unicode = 0041;
},
{
glyphname = B;
lastChange = "2020-03-26 11:01:55 +0000";
layers = (
{
layerId = "CFFEBDE4-599A-46B2-9328-D96E42CD9C81";
paths = (
{
closed = 1;
nodes = (
"97 0 LINE",
"348 0 LINE SMOOTH",
"463 0 OFFCURVE",
"596 106 OFFCURVE",
"596 203 QCURVE SMOOTH",
"596 259 OFFCURVE",
"554 329 OFFCURVE",
"481 367 OFFCURVE",
"436 374 QCURVE",
"436 379 LINE",
"502 391 OFFCURVE",
"572 474 OFFCURVE",
"572 537 QCURVE SMOOTH",
"572 635 OFFCURVE",
"435 714 OFFCURVE",
"301 714 QCURVE SMOOTH",
"97 714 LINE",
"97 714 LINE"
);
},
{
closed = 1;
nodes = (
"187 637 LINE",
"305 637 LINE SMOOTH",
"396 637 OFFCURVE",
"479 586 OFFCURVE",
"479 527 QCURVE SMOOTH",
"479 469 OFFCURVE",
"411 410 OFFCURVE",
"319 410 QCURVE SMOOTH",
"187 410 LINE",
"187 410 LINE"
);
},
{
closed = 1;
nodes = (
"324 335 LINE SMOOTH",
"423 335 OFFCURVE",
"500 266 OFFCURVE",
"500 210 QCURVE SMOOTH",
"500 150 OFFCURVE",
"426 76 OFFCURVE",
"331 76 QCURVE SMOOTH",
"187 76 LINE",
"187 335 LINE",
"187 335 LINE"
);
}
);
width = 650;
}
);
note = B;
unicode = 0042;
},
{
glyphname = C;
lastChange = "2020-03-26 11:01:55 +0000";
layers = (
{
layerId = "CFFEBDE4-599A-46B2-9328-D96E42CD9C81";
paths = (
{
closed = 1;
nodes = (
"451 645 OFFCURVE",
"532 621 OFFCURVE",
"565 606 QCURVE",
"601 682 LINE",
"517 724 OFFCURVE",
"404 724 QCURVE SMOOTH",
"294 724 OFFCURVE",
"140 631 OFFCURVE",
"61 466 OFFCURVE",
"61 358 QCURVE SMOOTH",
"61 246 OFFCURVE",
"134 80 OFFCURVE",
"280 -10 OFFCURVE",
"389 -10 QCURVE SMOOTH",
"448 -10 OFFCURVE",
"533 4 OFFCURVE",
"573 19 QCURVE",
"573 97 LINE",
"533 85 OFFCURVE",
"449 69 OFFCURVE",
"402 69 QCURVE SMOOTH",
"279 69 OFFCURVE",
"156 224 OFFCURVE",
"156 357 QCURVE SMOOTH",
"156 491 OFFCURVE",
"288 645 OFFCURVE",
"403 645 QCURVE",
"403 645 LINE"
);
}
);
width = 632;
}
);
leftKerningGroup = C;
note = C;
rightKerningGroup = C;
unicode = 0043;
},
{
glyphname = D;
lastChange = "2020-03-26 11:01:55 +0000";
layers = (
{
layerId = "CFFEBDE4-599A-46B2-9328-D96E42CD9C81";
paths = (
{
closed = 1;
nodes = (
"669 479 OFFCURVE",
"583 634 OFFCURVE",
"425 714 OFFCURVE",
"317 714 QCURVE SMOOTH",
"97 714 LINE",
"97 0 LINE",
"296 0 LINE SMOOTH",
"472 0 OFFCURVE",
"669 183 OFFCURVE",
"669 364 QCURVE",
"669 364 LINE"
);
},
{
closed = 1;
nodes = (
"574 77 OFFCURVE",
"284 77 QCURVE SMOOTH",
"187 77 LINE",
"187 637 LINE",
"304 637 LINE SMOOTH",
"433 637 OFFCURVE",
"574 504 OFFCURVE",
"574 361 QCURVE",
"574 361 LINE"
);
}
);
width = 730;
}
);
note = D;
rightKerningGroup = D;
unicode = 0044;
},
{
glyphname = E;
lastChange = "2020-03-26 11:01:55 +0000";
layers = (
{
layerId = "CFFEBDE4-599A-46B2-9328-D96E42CD9C81";
paths = (
{
closed = 1;
nodes = (
"496 79 LINE",
"187 79 LINE",
"187 334 LINE",
"478 334 LINE",
"478 412 LINE",
"187 412 LINE",
"187 635 LINE",
"496 635 LINE",
"496 714 LINE",
"97 714 LINE",
"97 0 LINE",
"496 0 LINE",
"496 0 LINE"
);
}
);
width = 556;
}
);
note = E;
rightKerningGroup = E;
unicode = 0045;
},
{
glyphname = F;
lastChange = "2020-03-26 11:01:55 +0000";
layers = (
{
layerId = "CFFEBDE4-599A-46B2-9328-D96E42CD9C81";
paths = (
{
closed = 1;
nodes = (
"187 303 LINE",
"477 303 LINE",
"477 382 LINE",
"187 382 LINE",
"187 635 LINE",
"496 635 LINE",
"496 714 LINE",
"97 714 LINE",
"97 0 LINE",
"187 0 LINE",
"187 0 LINE"
);
}
);
width = 519;
}
);
note = F;
unicode = 0046;
},
{
glyphname = G;
lastChange = "2020-03-26 11:01:55 +0000";
layers = (
{
layerId = "CFFEBDE4-599A-46B2-9328-D96E42CD9C81";
paths = (
{
closed = 1;
nodes = (
"407 297 LINE",
"564 297 LINE",
"564 85 LINE",
"537 78 OFFCURVE",
"471 68 OFFCURVE",
"424 68 QCURVE SMOOTH",
"328 68 OFFCURVE",
"210 141 OFFCURVE",
"155 272 OFFCURVE",
"155 357 QCURVE SMOOTH",
"155 491 OFFCURVE",
"298 645 OFFCURVE",
"426 645 QCURVE SMOOTH",
"477 645 OFFCURVE",
"572 621 OFFCURVE",
"610 604 QCURVE",
"644 682 LINE",
"598 702 OFFCURVE",
"491 724 OFFCURVE",
"431 724 QCURVE SMOOTH",
"314 724 OFFCURVE",
"149 633 OFFCURVE",
"61 469 OFFCURVE",
"61 357 QCURVE SMOOTH",
"61 244 OFFCURVE",
"140 79 OFFCURVE",
"292 -10 OFFCURVE",
"403 -10 QCURVE SMOOTH",
"478 -10 OFFCURVE",
"596 8 OFFCURVE",
"654 27 QCURVE",
"654 377 LINE",
"407 377 LINE",
"407 377 LINE"
);
}
);
width = 728;
}
);
leftKerningGroup = C;
note = G;
unicode = 0047;
},
{
glyphname = H;
lastChange = "2020-03-26 11:01:55 +0000";
layers = (
{
layerId = "CFFEBDE4-599A-46B2-9328-D96E42CD9C81";
paths = (
{
closed = 1;
nodes = (
"643 714 LINE",
"553 714 LINE",
"553 412 LINE",
"187 412 LINE",
"187 714 LINE",
"97 714 LINE",
"97 0 LINE",
"187 0 LINE",
"187 333 LINE",
"553 333 LINE",
"553 0 LINE",
"643 0 LINE",
"643 0 LINE"
);
}
);
width = 741;
}
);
note = H;
unicode = 0048;
},
{
glyphname = I;
lastChange = "2020-03-26 11:01:55 +0000";
layers = (
{
layerId = "CFFEBDE4-599A-46B2-9328-D96E42CD9C81";
paths = (
{
closed = 1;
nodes = (
"298 52 LINE",
"214 71 LINE",
"214 642 LINE",
"298 662 LINE",
"298 714 LINE",
"40 714 LINE",
"40 662 LINE",
"124 642 LINE",
"124 71 LINE",
"40 52 LINE",
"40 0 LINE",
"298 0 LINE",
"298 0 LINE"
);
}
);
width = 339;
}
);
note = I;
unicode = 0049;
},
{
glyphname = J;
lastChange = "2020-03-26 11:01:55 +0000";
layers = (
{
layerId = "CFFEBDE4-599A-46B2-9328-D96E42CD9C81";
paths = (
{
closed = 1;
nodes = (
"80 -190 OFFCURVE",
"182 -92 OFFCURVE",
"182 11 QCURVE SMOOTH",
"182 714 LINE",
"92 714 LINE",
"92 4 LINE SMOOTH",
"92 -41 OFFCURVE",
"64 -91 OFFCURVE",
"19 -111 OFFCURVE",
"-6 -111 QCURVE SMOOTH",
"-26 -111 OFFCURVE",
"-62 -105 OFFCURVE",
"-78 -101 QCURVE",
"-78 -177 LINE",
"-64 -183 OFFCURVE",
"-28 -190 OFFCURVE",
"-4 -190 QCURVE",
"-4 -190 LINE"
);
}
);
width = 273;
}
);
note = J;
unicode = 004A;
},
{
glyphname = K;
lastChange = "2020-03-26 11:01:55 +0000";
layers = (
{
layerId = "CFFEBDE4-599A-46B2-9328-D96E42CD9C81";
paths = (
{
closed = 1;
nodes = (
"325 403 LINE",
"608 714 LINE",
"503 714 LINE",
"310 498 LINE SMOOTH",
"279 464 OFFCURVE",
"217 396 OFFCURVE",
"187 362 QCURVE",
"187 714 LINE",
"97 714 LINE",
"97 0 LINE",
"187 0 LINE",
"187 277 LINE",
"260 341 LINE",
"513 0 LINE",
"619 0 LINE",
"619 0 LINE"
);
}
);
width = 600;
}
);
note = K;
rightKerningGroup = K;
unicode = 004B;
},
{
glyphname = L;
lastChange = "2020-03-26 11:01:55 +0000";
layers = (
{
layerId = "CFFEBDE4-599A-46B2-9328-D96E42CD9C81";
paths = (
{
closed = 1;
nodes = (
"499 0 LINE",
"499 80 LINE",
"187 80 LINE",
"187 714 LINE",
"97 714 LINE",
"97 0 LINE",
"97 0 LINE"
);
}
);
width = 524;
}
);
note = L;
rightKerningGroup = L;
unicode = 004C;
},
{
glyphname = M;
lastChange = "2020-03-26 11:01:55 +0000";
layers = (
{
layerId = "CFFEBDE4-599A-46B2-9328-D96E42CD9C81";
paths = (
{
closed = 1;
nodes = (
"486 0 LINE",
"724 625 LINE",
"728 625 LINE",
"726 593 OFFCURVE",
"721 491 OFFCURVE",
"721 439 QCURVE SMOOTH",
"721 0 LINE",
"810 0 LINE",
"810 714 LINE",
"678 714 LINE",
"454 129 LINE",
"450 129 LINE",
"230 714 LINE",
"97 714 LINE",
"97 0 LINE",
"180 0 LINE",
"180 433 LINE SMOOTH",
"180 490 OFFCURVE",
"176 595 OFFCURVE",
"173 626 QCURVE",
"177 626 LINE",
"412 0 LINE",
"412 0 LINE"
);
}
);
width = 907;
}
);
note = M;
unicode = 004D;
},
{
glyphname = N;
lastChange = "2020-03-26 11:01:55 +0000";
layers = (
{
layerId = "CFFEBDE4-599A-46B2-9328-D96E42CD9C81";
paths = (
{
closed = 1;
nodes = (
"663 714 LINE",
"579 714 LINE",
"579 311 LINE SMOOTH",
"579 279 OFFCURVE",
"582 203 OFFCURVE",
"585 139 OFFCURVE",
"586 123 QCURVE",
"582 123 LINE",
"201 714 LINE",
"97 714 LINE",
"97 0 LINE",
"180 0 LINE",
"180 399 LINE SMOOTH",
"180 454 OFFCURVE",
"174 558 OFFCURVE",
"172 593 QCURVE",
"176 593 LINE",
"558 0 LINE",
"663 0 LINE",
"663 0 LINE"
);
}
);
width = 760;
}
);
note = N;
unicode = 004E;
},
{
glyphname = O;
lastChange = "2020-03-26 11:01:55 +0000";
layers = (
{
layerId = "CFFEBDE4-599A-46B2-9328-D96E42CD9C81";
paths = (
{
closed = 1;
nodes = (
"720 469 OFFCURVE",
"645 634 OFFCURVE",
"499 725 OFFCURVE",
"392 725 QCURVE SMOOTH",
"280 725 OFFCURVE",
"133 633 OFFCURVE",
"61 469 OFFCURVE",
"61 359 QCURVE SMOOTH",
"61 248 OFFCURVE",
"133 82 OFFCURVE",
"280 -10 OFFCURVE",
"391 -10 QCURVE SMOOTH",
"499 -10 OFFCURVE",
"645 82 OFFCURVE",
"720 247 OFFCURVE",
"720 358 QCURVE",
"720 358 LINE"
);
},
{
closed = 1;
nodes = (
"156 493 OFFCURVE",
"271 646 OFFCURVE",
"392 646 QCURVE SMOOTH",
"513 646 OFFCURVE",
"625 493 OFFCURVE",
"625 358 QCURVE SMOOTH",
"625 223 OFFCURVE",
"513 68 OFFCURVE",
"391 68 QCURVE SMOOTH",
"270 68 OFFCURVE",
"156 223 OFFCURVE",
"156 358 QCURVE",
"156 358 LINE"
);
}
);
userData = {
assembly = "NPUSHB[ ]	/* 28 values pushed */\0120 3 3 1 97 0 1 1 112 77 0 2 2 0 97 0 0 0 113 0 78 36 37 38 35 4 13 26 \012CALL[ ]	/* CallFunction */";
};
width = 781;
}
);
leftKerningGroup = C;
note = O;
rightKerningGroup = D;
unicode = 004F;
},
{
glyphname = P;
lastChange = "2020-03-26 11:01:55 +0000";
layers = (
{
layerId = "CFFEBDE4-599A-46B2-9328-D96E42CD9C81";
paths = (
{
closed = 1;
nodes = (
"97 714 LINE",
"97 0 LINE",
"187 0 LINE",
"187 278 LINE",
"269 278 LINE SMOOTH",
"376 278 OFFCURVE",
"501 342 OFFCURVE",
"554 445 OFFCURVE",
"554 504 QCURVE SMOOTH",
"554 604 OFFCURVE",
"426 714 OFFCURVE",
"286 714 QCURVE",
"286 714 LINE"
);
},
{
closed = 1;
nodes = (
"373 637 OFFCURVE",
"461 569 OFFCURVE",
"461 500 QCURVE SMOOTH",
"461 421 OFFCURVE",
"361 355 OFFCURVE",
"259 355 QCURVE SMOOTH",
"187 355 LINE",
"187 637 LINE",
"278 637 LINE",
"278 637 LINE"
);
}
);
width = 605;
}
);
note = P;
rightKerningGroup = P;
unicode = 0050;
},
{
glyphname = Q;
lastChange = "2020-03-26 11:01:55 +0000";
layers = (
{
layerId = "CFFEBDE4-599A-46B2-9328-D96E42CD9C81";
paths = (
{
closed = 1;
nodes = (
"720 469 OFFCURVE",
"645 634 OFFCURVE",
"499 725 OFFCURVE",
"392 725 QCURVE SMOOTH",
"280 725 OFFCURVE",
"133 633 OFFCURVE",
"61 469 OFFCURVE",
"61 359 QCURVE SMOOTH",
"61 248 OFFCURVE",
"133 82 OFFCURVE",
"280 -10 OFFCURVE",
"391 -10 QCURVE SMOOTH",
"397 -10 OFFCURVE",
"410 -9 OFFCURVE",
"416 -9 QCURVE",
"554 -170 LINE",
"683 -170 LINE",
"512 8 LINE",
"615 43 OFFCURVE",
"720 227 OFFCURVE",
"720 358 QCURVE",
"720 358 LINE"
);
},
{
closed = 1;
nodes = (
"156 493 OFFCURVE",
"271 646 OFFCURVE",
"392 646 QCURVE SMOOTH",
"513 646 OFFCURVE",
"625 493 OFFCURVE",
"625 358 QCURVE SMOOTH",
"625 223 OFFCURVE",
"513 68 OFFCURVE",
"391 68 QCURVE SMOOTH",
"270 68 OFFCURVE",
"156 223 OFFCURVE",
"156 358 QCURVE",
"156 358 LINE"
);
}
);
width = 781;
}
);
leftKerningGroup = C;
note = Q;
rightKerningGroup = D;
unicode = 0051;
},
{
glyphname = R;
lastChange = "2020-03-26 11:01:55 +0000";
layers = (
{
layerId = "CFFEBDE4-599A-46B2-9328-D96E42CD9C81";
paths = (
{
closed = 1;
nodes = (
"97 714 LINE",
"97 0 LINE",
"187 0 LINE",
"187 295 LINE",
"329 295 LINE",
"502 0 LINE",
"607 0 LINE",
"411 320 LINE",
"447 333 OFFCURVE",
"512 378 OFFCURVE",
"554 454 OFFCURVE",
"554 511 QCURVE SMOOTH",
"554 613 OFFCURVE",
"427 714 OFFCURVE",
"294 714 QCURVE",
"294 714 LINE"
);
},
{
closed = 1;
nodes = (
"377 636 OFFCURVE",
"461 577 OFFCURVE",
"461 507 QCURVE SMOOTH",
"461 440 OFFCURVE",
"381 371 OFFCURVE",
"294 371 QCURVE SMOOTH",
"187 371 LINE",
"187 636 LINE",
"289 636 LINE",
"289 636 LINE"
);
}
);
width = 622;
}
);
note = R;
unicode = 0052;
},
{
glyphname = S;
lastChange = "2020-03-26 11:01:55 +0000";
layers = (
{
layerId = "CFFEBDE4-599A-46B2-9328-D96E42CD9C81";
paths = (
{
closed = 1;
nodes = (
"502 247 OFFCURVE",
"457 321 OFFCURVE",
"370 374 OFFCURVE",
"307 397 QCURVE SMOOTH",
"249 419 OFFCURVE",
"181 457 OFFCURVE",
"151 505 OFFCURVE",
"151 541 QCURVE SMOOTH",
"151 588 OFFCURVE",
"219 645 OFFCURVE",
"286 645 QCURVE SMOOTH",
"333 645 OFFCURVE",
"420 623 OFFCURVE",
"457 607 QCURVE",
"485 684 LINE",
"445 702 OFFCURVE",
"347 724 OFFCURVE",
"288 724 QCURVE SMOOTH",
"221 724 OFFCURVE",
"118 680 OFFCURVE",
"60 599 OFFCURVE",
"60 542 QCURVE SMOOTH",
"60 459 OFFCURVE",
"153 363 OFFCURVE",
"244 330 QCURVE SMOOTH",
"309 307 OFFCURVE",
"382 266 OFFCURVE",
"412 218 OFFCURVE",
"412 183 QCURVE SMOOTH",
"412 130 OFFCURVE",
"331 68 OFFCURVE",
"251 68 QCURVE SMOOTH",
"194 68 OFFCURVE",
"87 94 OFFCURVE",
"51 110 QCURVE",
"51 24 LINE",
"85 8 OFFCURVE",
"187 -10 OFFCURVE",
"247 -10 QCURVE SMOOTH",
"364 -10 OFFCURVE",
"502 96 OFFCURVE",
"502 191 QCURVE",
"502 191 LINE"
);
}
);
width = 549;
}
);
note = S;
unicode = 0053;
},
{
glyphname = T;
lastChange = "2020-03-26 11:01:55 +0000";
layers = (
{
layerId = "CFFEBDE4-599A-46B2-9328-D96E42CD9C81";
paths = (
{
closed = 1;
nodes = (
"323 635 LINE",
"545 635 LINE",
"545 714 LINE",
"10 714 LINE",
"10 635 LINE",
"233 635 LINE",
"233 0 LINE",
"323 0 LINE",
"323 0 LINE"
);
}
);
width = 556;
}
);
leftKerningGroup = T;
note = T;
rightKerningGroup = T;
unicode = 0054;
},
{
glyphname = U;
lastChange = "2020-03-26 11:01:55 +0000";
layers = (
{
layerId = "CFFEBDE4-599A-46B2-9328-D96E42CD9C81";
paths = (
{
closed = 1;
nodes = (
"551 714 LINE",
"551 252 LINE SMOOTH",
"551 171 OFFCURVE",
"464 68 OFFCURVE",
"367 68 QCURVE SMOOTH",
"273 68 OFFCURVE",
"180 164 OFFCURVE",
"180 251 QCURVE SMOOTH",
"180 714 LINE",
"90 714 LINE",
"90 254 LINE SMOOTH",
"90 135 OFFCURVE",
"229 -10 OFFCURVE",
"362 -10 QCURVE SMOOTH",
"457 -10 OFFCURVE",
"580 59 OFFCURVE",
"640 178 OFFCURVE",
"640 252 QCURVE SMOOTH",
"640 714 LINE",
"640 714 LINE"
);
}
);
width = 731;
}
);
leftKerningGroup = U;
note = U;
rightKerningGroup = U;
unicode = 0055;
},
{
glyphname = V;
lastChange = "2020-03-26 11:01:55 +0000";
layers = (
{
layerId = "CFFEBDE4-599A-46B2-9328-D96E42CD9C81";
paths = (
{
closed = 1;
nodes = (
"505 714 LINE",
"345 258 LINE SMOOTH",
"329 213 OFFCURVE",
"307 135 OFFCURVE",
"300 100 QCURVE",
"293 135 OFFCURVE",
"271 212 OFFCURVE",
"255 256 QCURVE SMOOTH",
"94 714 LINE",
"0 714 LINE",
"255 0 LINE",
"345 0 LINE",
"600 714 LINE",
"600 714 LINE"
);
}
);
width = 600;
}
);
leftKerningGroup = V;
note = V;
rightKerningGroup = V;
unicode = 0056;
},
{
glyphname = W;
lastChange = "2020-03-26 11:01:55 +0000";
layers = (
{
layerId = "CFFEBDE4-599A-46B2-9328-D96E42CD9C81";
paths = (
{
closed = 1;
nodes = (
"823 714 LINE",
"713 279 LINE SMOOTH",
"701 232 OFFCURVE",
"683 145 OFFCURVE",
"678 108 QCURVE",
"673 143 OFFCURVE",
"653 234 OFFCURVE",
"639 280 QCURVE SMOOTH",
"508 714 LINE",
"415 714 LINE",
"289 283 LINE SMOOTH",
"276 239 OFFCURVE",
"256 147 OFFCURVE",
"251 108 QCURVE",
"246 146 OFFCURVE",
"229 232 OFFCURVE",
"217 278 QCURVE SMOOTH",
"106 714 LINE",
"12 714 LINE",
"201 0 LINE",
"292 0 LINE",
"427 465 LINE SMOOTH",
"441 511 OFFCURVE",
"460 596 OFFCURVE",
"461 609 QCURVE",
"463 600 OFFCURVE",
"473 555 OFFCURVE",
"489 497 OFFCURVE",
"497 468 QCURVE SMOOTH",
"636 0 LINE",
"727 0 LINE",
"917 714 LINE",
"917 714 LINE"
);
}
);
width = 930;
}
);
leftKerningGroup = V;
note = W;
rightKerningGroup = V;
unicode = 0057;
},
{
glyphname = X;
lastChange = "2020-03-26 11:01:55 +0000";
layers = (
{
layerId = "CFFEBDE4-599A-46B2-9328-D96E42CD9C81";
paths = (
{
closed = 1;
nodes = (
"344 374 LINE",
"565 714 LINE",
"470 714 LINE",
"294 434 LINE",
"119 714 LINE",
"19 714 LINE",
"241 372 LINE",
"4 0 LINE",
"99 0 LINE",
"291 310 LINE",
"480 0 LINE",
"582 0 LINE",
"582 0 LINE"
);
}
);
width = 586;
}
);
note = X;
rightKerningGroup = K;
unicode = 0058;
},
{
glyphname = Y;
lastChange = "2020-03-26 11:01:55 +0000";
layers = (
{
layerId = "CFFEBDE4-599A-46B2-9328-D96E42CD9C81";
paths = (
{
closed = 1;
nodes = (
"98 714 LINE",
"0 714 LINE",
"238 273 LINE",
"238 0 LINE",
"328 0 LINE",
"328 277 LINE",
"566 714 LINE",
"469 714 LINE",
"283 363 LINE",
"283 363 LINE"
);
}
);
width = 566;
}
);
leftKerningGroup = Y;
note = Y;
rightKerningGroup = Y;
unicode = 0059;
},
{
glyphname = Z;
lastChange = "2020-03-26 11:01:55 +0000";
layers = (
{
layerId = "CFFEBDE4-599A-46B2-9328-D96E42CD9C81";
paths = (
{
closed = 1;
nodes = (
"533 80 LINE",
"147 80 LINE",
"523 646 LINE",
"523 714 LINE",
"50 714 LINE",
"50 634 LINE",
"414 634 LINE",
"38 68 LINE",
"38 0 LINE",
"533 0 LINE",
"533 0 LINE"
);
}
);
width = 572;
}
);
leftKerningGroup = Z;
note = Z;
rightKerningGroup = Z;
unicode = 005A;
},
{
glyphname = a;
lastChange = "2020-03-26 11:01:55 +0000";
layers = (
{
layerId = "CFFEBDE4-599A-46B2-9328-D96E42CD9C81";
paths = (
{
closed = 1;
nodes = (
"236 545 OFFCURVE",
"140 518 OFFCURVE",
"105 499 QCURVE",
"132 433 LINE",
"165 449 OFFCURVE",
"241 474 OFFCURVE",
"283 474 QCURVE SMOOTH",
"336 474 OFFCURVE",
"394 422 OFFCURVE",
"394 355 QCURVE SMOOTH",
"394 323 LINE",
"303 320 LINE SMOOTH",
"172 316 OFFCURVE",
"46 229 OFFCURVE",
"46 149 QCURVE SMOOTH",
"46 67 OFFCURVE",
"142 -10 OFFCURVE",
"215 -10 QCURVE SMOOTH",
"283 -10 OFFCURVE",
"360 32 OFFCURVE",
"395 76 QCURVE",
"399 76 LINE",
"416 0 LINE",
"480 0 LINE",
"480 365 LINE SMOOTH",
"480 459 OFFCURVE",
"386 545 OFFCURVE",
"288 545 QCURVE",
"288 545 LINE"
);
},
{
closed = 1;
nodes = (
"393 214 LINE SMOOTH",
"393 136 OFFCURVE",
"303 61 OFFCURVE",
"235 61 QCURVE SMOOTH",
"192 61 OFFCURVE",
"137 103 OFFCURVE",
"137 148 QCURVE SMOOTH",
"137 199 OFFCURVE",
"214 255 OFFCURVE",
"314 259 QCURVE SMOOTH",
"393 262 LINE",
"393 262 LINE"
);
}
);
width = 561;
}
);
leftKerningGroup = a;
note = a;
rightKerningGroup = a;
unicode = 0061;
},
{
glyphname = b;
lastChange = "2020-03-26 11:01:55 +0000";
layers = (
{
layerId = "CFFEBDE4-599A-46B2-9328-D96E42CD9C81";
paths = (
{
closed = 1;
nodes = (
"85 760 LINE",
"85 0 LINE",
"148 0 LINE",
"166 68 LINE",
"173 68 LINE",
"196 36 OFFCURVE",
"276 -10 OFFCURVE",
"339 -10 QCURVE SMOOTH",
"438 -10 OFFCURVE",
"560 130 OFFCURVE",
"560 268 QCURVE SMOOTH",
"560 406 OFFCURVE",
"439 545 OFFCURVE",
"339 545 QCURVE SMOOTH",
"276 545 OFFCURVE",
"196 499 OFFCURVE",
"173 465 QCURVE",
"168 465 LINE",
"170 482 OFFCURVE",
"173 541 OFFCURVE",
"173 575 QCURVE SMOOTH",
"173 760 LINE",
"173 760 LINE"
);
},
{
closed = 1;
nodes = (
"469 472 OFFCURVE",
"469 269 QCURVE SMOOTH",
"469 169 OFFCURVE",
"398 63 OFFCURVE",
"326 63 QCURVE SMOOTH",
"238 63 OFFCURVE",
"173 168 OFFCURVE",
"173 267 QCURVE SMOOTH",
"173 271 LINE SMOOTH",
"173 374 OFFCURVE",
"239 472 OFFCURVE",
"324 472 QCURVE",
"324 472 LINE"
);
}
);
width = 615;
}
);
leftKerningGroup = b;
note = b;
rightKerningGroup = b;
unicode = 0062;
},
{
glyphname = c;
lastChange = "2020-03-26 11:01:55 +0000";
layers = (
{
layerId = "CFFEBDE4-599A-46B2-9328-D96E42CD9C81";
paths = (
{
closed = 1;
nodes = (
"346 -10 OFFCURVE",
"411 5 OFFCURVE",
"438 19 QCURVE",
"438 97 LINE",
"410 84 OFFCURVE",
"343 66 OFFCURVE",
"299 66 QCURVE SMOOTH",
"223 66 OFFCURVE",
"146 169 OFFCURVE",
"146 266 QCURVE SMOOTH",
"146 469 OFFCURVE",
"304 469 QCURVE SMOOTH",
"332 469 OFFCURVE",
"396 453 OFFCURVE",
"420 444 QCURVE",
"447 517 LINE",
"423 529 OFFCURVE",
"347 546 OFFCURVE",
"306 546 QCURVE SMOOTH",
"234 546 OFFCURVE",
"121 488 OFFCURVE",
"55 364 OFFCURVE",
"55 265 QCURVE SMOOTH",
"55 170 OFFCURVE",
"118 48 OFFCURVE",
"229 -10 OFFCURVE",
"300 -10 QCURVE",
"300 -10 LINE"
);
}
);
width = 480;
}
);
leftKerningGroup = c;
note = c;
unicode = 0063;
},
{
glyphname = d;
lastChange = "2020-03-26 11:01:55 +0000";
layers = (
{
layerId = "CFFEBDE4-599A-46B2-9328-D96E42CD9C81";
paths = (
{
closed = 1;
nodes = (
"338 -10 OFFCURVE",
"418 38 OFFCURVE",
"442 72 QCURVE",
"446 72 LINE",
"459 0 LINE",
"530 0 LINE",
"530 760 LINE",
"442 760 LINE",
"442 546 LINE SMOOTH",
"442 531 OFFCURVE",
"447 480 OFFCURVE",
"448 467 QCURVE",
"442 467 LINE",
"417 500 OFFCURVE",
"338 546 OFFCURVE",
"276 546 QCURVE SMOOTH",
"176 546 OFFCURVE",
"55 405 OFFCURVE",
"55 267 QCURVE SMOOTH",
"55 129 OFFCURVE",
"175 -10 OFFCURVE",
"275 -10 QCURVE",
"275 -10 LINE"
);
},
{
closed = 1;
nodes = (
"217 63 OFFCURVE",
"146 169 OFFCURVE",
"146 265 QCURVE SMOOTH",
"146 360 OFFCURVE",
"217 473 OFFCURVE",
"288 473 QCURVE SMOOTH",
"377 473 OFFCURVE",
"443 366 OFFCURVE",
"443 266 QCURVE SMOOTH",
"443 250 LINE SMOOTH",
"443 156 OFFCURVE",
"374 63 OFFCURVE",
"289 63 QCURVE",
"289 63 LINE"
);
}
);
width = 615;
}
);
leftKerningGroup = c;
note = d;
unicode = 0064;
},
{
glyphname = e;
lastChange = "2020-03-26 11:01:55 +0000";
layers = (
{
layerId = "CFFEBDE4-599A-46B2-9328-D96E42CD9C81";
paths = (
{
closed = 1;
nodes = (
"221 546 OFFCURVE",
"114 478 OFFCURVE",
"55 352 OFFCURVE",
"55 264 QCURVE SMOOTH",
"55 175 OFFCURVE",
"120 52 OFFCURVE",
"237 -10 OFFCURVE",
"313 -10 QCURVE SMOOTH",
"368 -10 OFFCURVE",
"448 7 OFFCURVE",
"489 25 QCURVE",
"489 102 LINE",
"447 84 OFFCURVE",
"368 65 OFFCURVE",
"317 65 QCURVE SMOOTH",
"237 65 OFFCURVE",
"148 160 OFFCURVE",
"146 251 QCURVE",
"513 251 LINE",
"513 304 LINE SMOOTH",
"513 377 OFFCURVE",
"460 486 OFFCURVE",
"361 546 OFFCURVE",
"292 546 QCURVE",
"292 546 LINE"
);
},
{
closed = 1;
nodes = (
"358 474 OFFCURVE",
"420 389 OFFCURVE",
"421 321 QCURVE",
"148 321 LINE",
"155 393 OFFCURVE",
"228 474 OFFCURVE",
"291 474 QCURVE",
"291 474 LINE"
);
}
);
width = 564;
}
);
leftKerningGroup = c;
note = e;
rightKerningGroup = b;
unicode = 0065;
},
{
glyphname = f;
lastChange = "2020-03-26 11:01:55 +0000";
layers = (
{
layerId = "CFFEBDE4-599A-46B2-9328-D96E42CD9C81";
paths = (
{
closed = 1;
nodes = (
"332 536 LINE",
"197 536 LINE",
"197 571 LINE SMOOTH",
"197 634 OFFCURVE",
"240 693 OFFCURVE",
"284 693 QCURVE SMOOTH",
"306 693 OFFCURVE",
"348 683 OFFCURVE",
"364 678 QCURVE",
"387 747 LINE",
"368 754 OFFCURVE",
"315 765 OFFCURVE",
"283 765 QCURVE SMOOTH",
"201 765 OFFCURVE",
"109 674 OFFCURVE",
"109 570 QCURVE SMOOTH",
"109 539 LINE",
"15 509 LINE",
"15 468 LINE",
"109 468 LINE",
"109 0 LINE",
"197 0 LINE",
"197 468 LINE",
"332 468 LINE",
"332 468 LINE"
);
}
);
width = 344;
}
);
leftKerningGroup = f;
note = f;
rightKerningGroup = f;
unicode = 0066;
},
{
glyphname = g;
lastChange = "2020-03-26 11:01:55 +0000";
layers = (
{
layerId = "CFFEBDE4-599A-46B2-9328-D96E42CD9C81";
paths = (
{
closed = 1;
nodes = (
"172 546 OFFCURVE",
"55 395 OFFCURVE",
"55 267 QCURVE SMOOTH",
"55 136 OFFCURVE",
"172 -10 OFFCURVE",
"276 -10 QCURVE SMOOTH",
"388 -10 OFFCURVE",
"442 71 QCURVE",
"446 71 LINE",
"445 62 OFFCURVE",
"443 17 OFFCURVE",
"443 5 QCURVE SMOOTH",
"443 -16 LINE SMOOTH",
"443 -86 OFFCURVE",
"364 -167 OFFCURVE",
"295 -167 QCURVE SMOOTH",
"176 -167 OFFCURVE",
"97 -125 QCURVE",
"97 -206 LINE",
"172 -240 OFFCURVE",
"290 -240 QCURVE SMOOTH",
"413 -240 OFFCURVE",
"530 -124 OFFCURVE",
"530 -9 QCURVE SMOOTH",
"530 536 LINE",
"460 536 LINE",
"448 465 LINE",
"443 465 LINE",
"413 506 OFFCURVE",
"328 546 OFFCURVE",
"275 546 QCURVE",
"275 546 LINE"
);
},
{
closed = 1;
nodes = (
"368 472 OFFCURVE",
"444 377 OFFCURVE",
"444 267 QCURVE SMOOTH",
"444 246 LINE SMOOTH",
"444 149 OFFCURVE",
"370 62 OFFCURVE",
"289 62 QCURVE SMOOTH",
"219 62 OFFCURVE",
"146 167 OFFCURVE",
"146 266 QCURVE SMOOTH",
"146 365 OFFCURVE",
"220 472 OFFCURVE",
"287 472 QCURVE",
"287 472 LINE"
);
}
);
width = 615;
}
);
leftKerningGroup = g;
note = g;
unicode = 0067;
},
{
glyphname = h;
lastChange = "2020-03-26 11:01:55 +0000";
layers = (
{
layerId = "CFFEBDE4-599A-46B2-9328-D96E42CD9C81";
paths = (
{
closed = 1;
nodes = (
"85 760 LINE",
"85 0 LINE",
"173 0 LINE",
"173 277 LINE SMOOTH",
"173 371 OFFCURVE",
"240 472 OFFCURVE",
"330 472 QCURVE SMOOTH",
"450 472 OFFCURVE",
"450 343 QCURVE SMOOTH",
"450 0 LINE",
"537 0 LINE",
"537 349 LINE SMOOTH",
"537 452 OFFCURVE",
"439 545 OFFCURVE",
"341 545 QCURVE SMOOTH",
"289 545 OFFCURVE",
"200 503 OFFCURVE",
"174 462 QCURVE",
"168 462 LINE",
"173 497 OFFCURVE",
"173 537 QCURVE SMOOTH",
"173 760 LINE",
"173 760 LINE"
);
}
);
width = 618;
}
);
leftKerningGroup = b;
note = h;
rightKerningGroup = a;
unicode = 0068;
},
{
glyphname = i;
lastChange = "2020-03-26 11:01:55 +0000";
layers = (
{
layerId = "CFFEBDE4-599A-46B2-9328-D96E42CD9C81";
paths = (
{
closed = 1;
nodes = (
"108 737 OFFCURVE",
"78 710 OFFCURVE",
"78 681 QCURVE SMOOTH",
"78 653 OFFCURVE",
"108 625 OFFCURVE",
"130 625 QCURVE SMOOTH",
"150 625 OFFCURVE",
"181 653 OFFCURVE",
"181 681 QCURVE SMOOTH",
"181 710 OFFCURVE",
"150 737 OFFCURVE",
"130 737 QCURVE",
"130 737 LINE"
);
},
{
closed = 1;
nodes = (
"85 536 LINE",
"85 0 LINE",
"173 0 LINE",
"173 536 LINE",
"173 536 LINE"
);
}
);
width = 258;
}
);
note = i;
unicode = 0069;
},
{
glyphname = j;
lastChange = "2020-03-26 11:01:55 +0000";
layers = (
{
layerId = "CFFEBDE4-599A-46B2-9328-D96E42CD9C81";
paths = (
{
closed = 1;
nodes = (
"78 653 OFFCURVE",
"108 625 OFFCURVE",
"130 625 QCURVE SMOOTH",
"150 625 OFFCURVE",
"181 653 OFFCURVE",
"181 681 QCURVE SMOOTH",
"181 710 OFFCURVE",
"150 737 OFFCURVE",
"130 737 QCURVE SMOOTH",
"108 737 OFFCURVE",
"78 710 OFFCURVE",
"78 681 QCURVE",
"78 681 LINE"
);
},
{
closed = 1;
nodes = (
"101 -240 OFFCURVE",
"173 -155 OFFCURVE",
"173 -80 QCURVE SMOOTH",
"173 536 LINE",
"85 536 LINE",
"85 -83 LINE SMOOTH",
"85 -132 OFFCURVE",
"43 -167 OFFCURVE",
"11 -167 QCURVE SMOOTH",
"-8 -167 OFFCURVE",
"-40 -161 OFFCURVE",
"-55 -157 QCURVE",
"-55 -228 LINE",
"-41 -233 OFFCURVE",
"-3 -240 OFFCURVE",
"22 -240 QCURVE",
"22 -240 LINE"
);
}
);
width = 258;
}
);
note = j;
unicode = 006A;
},
{
glyphname = k;
lastChange = "2020-03-26 11:01:55 +0000";
layers = (
{
layerId = "CFFEBDE4-599A-46B2-9328-D96E42CD9C81";
paths = (
{
closed = 1;
nodes = (
"85 760 LINE",
"85 0 LINE",
"172 0 LINE",
"172 197 LINE",
"233 250 LINE",
"419 0 LINE",
"525 0 LINE",
"293 307 LINE",
"510 536 LINE",
"407 536 LINE",
"236 355 LINE SMOOTH",
"227 345 OFFCURVE",
"202 314 OFFCURVE",
"178 284 OFFCURVE",
"172 276 QCURVE",
"168 276 LINE",
"169 295 OFFCURVE",
"172 347 OFFCURVE",
"172 363 QCURVE SMOOTH",
"172 760 LINE",
"172 760 LINE"
);
}
);
width = 534;
}
);
leftKerningGroup = b;
note = k;
unicode = 006B;
},
{
glyphname = l;
lastChange = "2020-03-26 11:01:55 +0000";
layers = (
{
layerId = "CFFEBDE4-599A-46B2-9328-D96E42CD9C81";
paths = (
{
closed = 1;
nodes = (
"173 760 LINE",
"85 760 LINE",
"85 0 LINE",
"173 0 LINE",
"173 0 LINE"
);
}
);
width = 258;
}
);
leftKerningGroup = b;
note = l;
unicode = 006C;
},
{
glyphname = m;
lastChange = "2020-03-26 11:01:55 +0000";
layers = (
{
layerId = "CFFEBDE4-599A-46B2-9328-D96E42CD9C81";
paths = (
{
closed = 1;
nodes = (
"621 546 OFFCURVE",
"528 502 OFFCURVE",
"501 456 QCURVE",
"496 456 LINE",
"458 546 OFFCURVE",
"332 546 QCURVE SMOOTH",
"284 546 OFFCURVE",
"199 505 OFFCURVE",
"174 463 QCURVE",
"169 463 LINE",
"156 536 LINE",
"85 536 LINE",
"85 0 LINE",
"173 0 LINE",
"173 278 LINE SMOOTH",
"173 372 OFFCURVE",
"235 472 OFFCURVE",
"316 472 QCURVE SMOOTH",
"426 472 OFFCURVE",
"426 345 QCURVE SMOOTH",
"426 0 LINE",
"513 0 LINE",
"513 296 LINE SMOOTH",
"513 382 OFFCURVE",
"580 472 OFFCURVE",
"658 472 QCURVE SMOOTH",
"767 472 OFFCURVE",
"767 345 QCURVE SMOOTH",
"767 0 LINE",
"854 0 LINE",
"854 349 LINE SMOOTH",
"854 453 OFFCURVE",
"764 546 OFFCURVE",
"673 546 QCURVE",
"673 546 LINE"
);
}
);
width = 935;
}
);
leftKerningGroup = m;
note = m;
rightKerningGroup = a;
unicode = 006D;
},
{
glyphname = n;
lastChange = "2020-03-26 11:01:55 +0000";
layers = (
{
layerId = "CFFEBDE4-599A-46B2-9328-D96E42CD9C81";
paths = (
{
closed = 1;
nodes = (
"292 546 OFFCURVE",
"200 505 OFFCURVE",
"174 463 QCURVE",
"169 463 LINE",
"156 536 LINE",
"85 536 LINE",
"85 0 LINE",
"173 0 LINE",
"173 278 LINE SMOOTH",
"173 372 OFFCURVE",
"241 472 OFFCURVE",
"330 472 QCURVE SMOOTH",
"450 472 OFFCURVE",
"450 343 QCURVE SMOOTH",
"450 0 LINE",
"537 0 LINE",
"537 349 LINE SMOOTH",
"537 453 OFFCURVE",
"439 546 OFFCURVE",
"343 546 QCURVE",
"343 546 LINE"
);
}
);
width = 618;
}
);
leftKerningGroup = m;
note = n;
rightKerningGroup = a;
unicode = 006E;
},
{
glyphname = o;
lastChange = "2020-03-26 11:01:55 +0000";
layers = (
{
layerId = "CFFEBDE4-599A-46B2-9328-D96E42CD9C81";
paths = (
{
closed = 1;
nodes = (
"551 358 OFFCURVE",
"488 481 OFFCURVE",
"377 546 OFFCURVE",
"304 546 QCURVE SMOOTH",
"189 546 OFFCURVE",
"55 402 OFFCURVE",
"55 269 QCURVE SMOOTH",
"55 180 OFFCURVE",
"119 55 OFFCURVE",
"230 -10 OFFCURVE",
"301 -10 QCURVE SMOOTH",
"416 -10 OFFCURVE",
"551 136 OFFCURVE",
"551 269 QCURVE",
"551 269 LINE"
);
},
{
closed = 1;
nodes = (
"146 364 OFFCURVE",
"220 472 OFFCURVE",
"302 472 QCURVE SMOOTH",
"384 472 OFFCURVE",
"460 364 OFFCURVE",
"460 269 QCURVE SMOOTH",
"460 174 OFFCURVE",
"384 63 OFFCURVE",
"303 63 QCURVE SMOOTH",
"221 63 OFFCURVE",
"146 174 OFFCURVE",
"146 269 QCURVE",
"146 269 LINE"
);
}
);
width = 605;
}
);
leftKerningGroup = c;
note = o;
rightKerningGroup = b;
unicode = 006F;
},
{
glyphname = p;
lastChange = "2020-03-26 11:01:55 +0000";
layers = (
{
layerId = "CFFEBDE4-599A-46B2-9328-D96E42CD9C81";
paths = (
{
closed = 1;
nodes = (
"275 546 OFFCURVE",
"197 498 OFFCURVE",
"173 463 QCURVE",
"169 463 LINE",
"157 536 LINE",
"85 536 LINE",
"85 -240 LINE",
"173 -240 LINE",
"173 -20 LINE SMOOTH",
"173 -1 OFFCURVE",
"169 51 OFFCURVE",
"167 68 QCURVE",
"173 68 LINE",
"196 37 OFFCURVE",
"277 -10 OFFCURVE",
"339 -10 QCURVE SMOOTH",
"439 -10 OFFCURVE",
"560 132 OFFCURVE",
"560 269 QCURVE SMOOTH",
"560 408 OFFCURVE",
"439 546 OFFCURVE",
"340 546 QCURVE",
"340 546 LINE"
);
},
{
closed = 1;
nodes = (
"398 472 OFFCURVE",
"469 362 OFFCURVE",
"469 270 QCURVE SMOOTH",
"469 210 OFFCURVE",
"438 117 OFFCURVE",
"375 63 OFFCURVE",
"326 63 QCURVE SMOOTH",
"238 63 OFFCURVE",
"173 170 OFFCURVE",
"173 269 QCURVE SMOOTH",
"173 286 LINE SMOOTH",
"175 380 OFFCURVE",
"242 472 OFFCURVE",
"324 472 QCURVE",
"324 472 LINE"
);
}
);
width = 615;
}
);
leftKerningGroup = m;
note = p;
rightKerningGroup = b;
unicode = 0070;
},
{
glyphname = q;
lastChange = "2020-03-26 11:01:55 +0000";
layers = (
{
layerId = "CFFEBDE4-599A-46B2-9328-D96E42CD9C81";
paths = (
{
closed = 1;
nodes = (
"530 -240 LINE",
"530 536 LINE",
"460 536 LINE",
"447 463 LINE",
"443 463 LINE",
"419 498 OFFCURVE",
"339 546 OFFCURVE",
"276 546 QCURVE SMOOTH",
"178 546 OFFCURVE",
"55 405 OFFCURVE",
"55 267 QCURVE SMOOTH",
"55 129 OFFCURVE",
"176 -10 OFFCURVE",
"273 -10 QCURVE SMOOTH",
"337 -10 OFFCURVE",
"418 38 OFFCURVE",
"441 72 QCURVE",
"447 72 LINE",
"444 55 OFFCURVE",
"442 7 OFFCURVE",
"442 -11 QCURVE SMOOTH",
"442 -240 LINE",
"442 -240 LINE"
);
},
{
closed = 1;
nodes = (
"217 63 OFFCURVE",
"146 170 OFFCURVE",
"146 265 QCURVE SMOOTH",
"146 360 OFFCURVE",
"216 473 OFFCURVE",
"288 473 QCURVE SMOOTH",
"375 473 OFFCURVE",
"443 368 OFFCURVE",
"443 266 QCURVE SMOOTH",
"443 248 LINE SMOOTH",
"442 154 OFFCURVE",
"373 63 OFFCURVE",
"290 63 QCURVE",
"290 63 LINE"
);
}
);
width = 615;
}
);
leftKerningGroup = c;
note = q;
unicode = 0071;
},
{
glyphname = r;
lastChange = "2020-03-26 11:01:55 +0000";
layers = (
{
layerId = "CFFEBDE4-599A-46B2-9328-D96E42CD9C81";
paths = (
{
closed = 1;
nodes = (
"279 546 OFFCURVE",
"197 482 OFFCURVE",
"171 438 QCURVE",
"167 438 LINE",
"157 536 LINE",
"85 536 LINE",
"85 0 LINE",
"173 0 LINE",
"173 286 LINE SMOOTH",
"173 340 OFFCURVE",
"216 421 OFFCURVE",
"288 466 OFFCURVE",
"329 466 QCURVE SMOOTH",
"343 466 OFFCURVE",
"374 462 OFFCURVE",
"387 459 QCURVE",
"398 540 LINE",
"385 543 OFFCURVE",
"350 546 OFFCURVE",
"335 546 QCURVE",
"335 546 LINE"
);
}
);
width = 413;
}
);
leftKerningGroup = m;
note = r;
rightKerningGroup = r;
unicode = 0072;
},
{
glyphname = s;
lastChange = "2020-03-26 11:01:55 +0000";
layers = (
{
layerId = "CFFEBDE4-599A-46B2-9328-D96E42CD9C81";
paths = (
{
closed = 1;
nodes = (
"434 191 OFFCURVE",
"396 248 OFFCURVE",
"324 288 OFFCURVE",
"273 307 QCURVE SMOOTH",
"222 327 OFFCURVE",
"161 356 OFFCURVE",
"135 387 OFFCURVE",
"135 409 QCURVE SMOOTH",
"135 439 OFFCURVE",
"192 474 OFFCURVE",
"246 474 QCURVE SMOOTH",
"285 474 OFFCURVE",
"359 454 OFFCURVE",
"393 440 QCURVE",
"423 510 LINE",
"386 527 OFFCURVE",
"301 546 OFFCURVE",
"252 546 QCURVE SMOOTH",
"162 546 OFFCURVE",
"51 472 OFFCURVE",
"51 404 QCURVE SMOOTH",
"51 360 OFFCURVE",
"91 304 OFFCURVE",
"165 264 OFFCURVE",
"217 244 QCURVE SMOOTH",
"270 224 OFFCURVE",
"327 192 OFFCURVE",
"349 160 OFFCURVE",
"349 140 QCURVE SMOOTH",
"349 104 OFFCURVE",
"289 61 OFFCURVE",
"222 61 QCURVE SMOOTH",
"175 61 OFFCURVE",
"84 88 OFFCURVE",
"52 104 QCURVE",
"52 24 LINE",
"83 8 OFFCURVE",
"164 -10 OFFCURVE",
"220 -10 QCURVE SMOOTH",
"318 -10 OFFCURVE",
"434 70 OFFCURVE",
"434 148 QCURVE",
"434 148 LINE"
);
}
);
width = 479;
}
);
leftKerningGroup = s;
note = s;
unicode = 0073;
},
{
glyphname = t;
lastChange = "2020-03-26 11:01:55 +0000";
layers = (
{
layerId = "CFFEBDE4-599A-46B2-9328-D96E42CD9C81";
paths = (
{
closed = 1;
nodes = (
"227 62 OFFCURVE",
"180 109 OFFCURVE",
"180 158 QCURVE SMOOTH",
"180 468 LINE",
"335 468 LINE",
"335 536 LINE",
"180 536 LINE",
"180 659 LINE",
"128 659 LINE",
"93 545 LINE",
"16 510 LINE",
"16 468 LINE",
"92 468 LINE",
"92 156 LINE SMOOTH",
"92 91 OFFCURVE",
"136 19 OFFCURVE",
"207 -10 OFFCURVE",
"249 -10 QCURVE SMOOTH",
"273 -10 OFFCURVE",
"325 -1 OFFCURVE",
"339 6 QCURVE",
"339 73 LINE",
"326 69 OFFCURVE",
"284 62 OFFCURVE",
"264 62 QCURVE",
"264 62 LINE"
);
}
);
width = 361;
}
);
leftKerningGroup = t;
note = t;
rightKerningGroup = t;
unicode = 0074;
},
{
glyphname = u;
lastChange = "2020-03-26 11:01:55 +0000";
layers = (
{
layerId = "CFFEBDE4-599A-46B2-9328-D96E42CD9C81";
paths = (
{
closed = 1;
nodes = (
"445 536 LINE",
"445 257 LINE SMOOTH",
"445 163 OFFCURVE",
"376 63 OFFCURVE",
"287 63 QCURVE SMOOTH",
"168 63 OFFCURVE",
"168 191 QCURVE SMOOTH",
"168 536 LINE",
"79 536 LINE",
"79 185 LINE SMOOTH",
"79 83 OFFCURVE",
"177 -10 OFFCURVE",
"274 -10 QCURVE SMOOTH",
"326 -10 OFFCURVE",
"418 29 OFFCURVE",
"444 71 QCURVE",
"448 71 LINE",
"461 0 LINE",
"533 0 LINE",
"533 536 LINE",
"533 536 LINE"
);
}
);
width = 618;
}
);
leftKerningGroup = m;
note = u;
unicode = 0075;
},
{
glyphname = v;
lastChange = "2020-03-26 11:01:55 +0000";
layers = (
{
layerId = "CFFEBDE4-599A-46B2-9328-D96E42CD9C81";
paths = (
{
closed = 1;
nodes = (
"304 0 LINE",
"508 536 LINE",
"414 536 LINE",
"300 220 LINE SMOOTH",
"293 199 OFFCURVE",
"274 145 OFFCURVE",
"259 95 OFFCURVE",
"255 78 QCURVE",
"251 78 LINE",
"248 95 OFFCURVE",
"234 144 OFFCURVE",
"216 198 OFFCURVE",
"208 220 QCURVE SMOOTH",
"94 536 LINE",
"0 536 LINE",
"203 0 LINE",
"203 0 LINE"
);
}
);
width = 508;
}
);
leftKerningGroup = v;
note = v;
rightKerningGroup = v;
unicode = 0076;
},
{
glyphname = w;
lastChange = "2020-03-26 11:01:55 +0000";
layers = (
{
layerId = "CFFEBDE4-599A-46B2-9328-D96E42CD9C81";
paths = (
{
closed = 1;
nodes = (
"626 1 LINE",
"775 537 LINE",
"685 537 LINE",
"610 251 LINE SMOOTH",
"598 205 OFFCURVE",
"577 117 OFFCURVE",
"574 92 QCURVE",
"570 92 LINE",
"566 121 OFFCURVE",
"545 201 OFFCURVE",
"534 235 QCURVE SMOOTH",
"442 537 LINE",
"346 537 LINE",
"251 235 LINE SMOOTH",
"244 213 OFFCURVE",
"230 158 OFFCURVE",
"219 108 OFFCURVE",
"215 91 QCURVE",
"211 91 LINE",
"207 120 OFFCURVE",
"187 208 OFFCURVE",
"176 251 QCURVE SMOOTH",
"102 537 LINE",
"11 537 LINE",
"158 1 LINE",
"258 1 LINE",
"354 302 LINE SMOOTH",
"368 344 OFFCURVE",
"386 423 OFFCURVE",
"390 445 QCURVE",
"394 445 LINE",
"399 423 OFFCURVE",
"418 344 OFFCURVE",
"431 303 QCURVE SMOOTH",
"523 1 LINE",
"523 1 LINE"
);
}
);
width = 786;
}
);
leftKerningGroup = v;
note = w;
rightKerningGroup = v;
unicode = 0077;
},
{
glyphname = x;
lastChange = "2020-03-26 11:01:55 +0000";
layers = (
{
layerId = "CFFEBDE4-599A-46B2-9328-D96E42CD9C81";
paths = (
{
closed = 1;
nodes = (
"18 0 LINE",
"117 0 LINE",
"265 214 LINE",
"411 0 LINE",
"511 0 LINE",
"316 274 LINE",
"501 536 LINE",
"402 536 LINE",
"265 334 LINE",
"127 536 LINE",
"27 536 LINE",
"212 274 LINE",
"212 274 LINE"
);
}
);
width = 529;
}
);
leftKerningGroup = v;
note = x;
rightKerningGroup = x;
unicode = 0078;
},
{
glyphname = y;
lastChange = "2020-03-26 11:01:55 +0000";
layers = (
{
layerId = "CFFEBDE4-599A-46B2-9328-D96E42CD9C81";
paths = (
{
closed = 1;
nodes = (
"217 -2 LINE",
"189 -73 LINE SMOOTH",
"173 -116 OFFCURVE",
"116 -168 OFFCURVE",
"70 -168 QCURVE SMOOTH",
"53 -168 OFFCURVE",
"22 -164 OFFCURVE",
"11 -162 QCURVE",
"11 -232 LINE",
"24 -235 OFFCURVE",
"60 -240 OFFCURVE",
"84 -240 QCURVE SMOOTH",
"162 -240 OFFCURVE",
"251 -150 OFFCURVE",
"279 -74 QCURVE SMOOTH",
"510 536 LINE",
"415 536 LINE",
"306 232 LINE SMOOTH",
"292 191 OFFCURVE",
"266 110 OFFCURVE",
"260 85 QCURVE",
"256 85 LINE",
"250 118 OFFCURVE",
"226 191 OFFCURVE",
"211 231 QCURVE SMOOTH",
"95 536 LINE",
"1 536 LINE",
"1 536 LINE"
);
}
);
width = 600;
}
);
leftKerningGroup = v;
note = y;
rightKerningGroup = v;
unicode = 0079;
},
{
glyphname = z;
lastChange = "2020-03-26 11:01:55 +0000";
layers = (
{
layerId = "CFFEBDE4-599A-46B2-9328-D96E42CD9C81";
paths = (
{
closed = 1;
nodes = (
"431 68 LINE",
"140 68 LINE",
"424 470 LINE",
"424 536 LINE",
"56 536 LINE",
"56 468 LINE",
"327 468 LINE",
"39 58 LINE",
"39 0 LINE",
"431 0 LINE",
"431 0 LINE"
);
}
);
width = 470;
}
);
leftKerningGroup = z;
note = z;
unicode = 007A;
},
{
glyphname = zero;
lastChange = "2020-03-26 11:01:55 +0000";
layers = (
{
layerId = "CFFEBDE4-599A-46B2-9328-D96E42CD9C81";
paths = (
{
closed = 1;
nodes = (
"523 532 OFFCURVE",
"405 725 OFFCURVE",
"285 725 QCURVE SMOOTH",
"200 725 OFFCURVE",
"96 638 OFFCURVE",
"49 474 OFFCURVE",
"49 358 QCURVE SMOOTH",
"49 185 OFFCURVE",
"164 -10 OFFCURVE",
"285 -10 QCURVE SMOOTH",
"371 -10 OFFCURVE",
"475 78 OFFCURVE",
"523 243 OFFCURVE",
"523 358 QCURVE",
"523 358 LINE"
);
},
{
closed = 1;
nodes = (
"137 504 OFFCURVE",
"204 650 OFFCURVE",
"285 650 QCURVE SMOOTH",
"365 650 OFFCURVE",
"434 504 OFFCURVE",
"434 358 QCURVE SMOOTH",
"434 210 OFFCURVE",
"365 65 OFFCURVE",
"285 65 QCURVE SMOOTH",
"204 65 OFFCURVE",
"137 211 OFFCURVE",
"137 358 QCURVE",
"137 358 LINE"
);
}
);
width = 572;
}
);
note = zero;
unicode = 0030;
},
{
glyphname = one;
lastChange = "2020-03-26 11:01:55 +0000";
layers = (
{
layerId = "CFFEBDE4-599A-46B2-9328-D96E42CD9C81";
paths = (
{
closed = 1;
nodes = (
"355 714 LINE",
"282 714 LINE",
"89 564 LINE",
"135 505 LINE",
"211 567 LINE SMOOTH",
"231 584 OFFCURVE",
"257 606 OFFCURVE",
"273 622 QCURVE",
"271 594 OFFCURVE",
"269 542 OFFCURVE",
"269 499 QCURVE SMOOTH",
"269 0 LINE",
"355 0 LINE",
"355 0 LINE"
);
}
);
width = 572;
}
);
note = one;
unicode = 0031;
},
{
glyphname = two;
lastChange = "2020-03-26 11:01:55 +0000";
layers = (
{
layerId = "CFFEBDE4-599A-46B2-9328-D96E42CD9C81";
paths = (
{
closed = 1;
nodes = (
"520 80 LINE",
"159 80 LINE",
"159 84 LINE",
"308 231 LINE SMOOTH",
"363 285 OFFCURVE",
"445 380 OFFCURVE",
"491 478 OFFCURVE",
"491 534 QCURVE SMOOTH",
"491 623 OFFCURVE",
"375 724 OFFCURVE",
"275 724 QCURVE SMOOTH",
"207 724 OFFCURVE",
"98 675 OFFCURVE",
"56 640 QCURVE",
"103 581 LINE",
"144 613 OFFCURVE",
"223 649 OFFCURVE",
"275 649 QCURVE SMOOTH",
"331 649 OFFCURVE",
"401 588 OFFCURVE",
"401 529 QCURVE SMOOTH",
"401 481 OFFCURVE",
"363 400 OFFCURVE",
"289 316 OFFCURVE",
"235 262 QCURVE SMOOTH",
"48 73 LINE",
"48 0 LINE",
"520 0 LINE",
"520 0 LINE"
);
}
);
width = 572;
}
);
note = two;
unicode = 0032;
},
{
glyphname = three;
lastChange = "2020-03-26 11:01:55 +0000";
layers = (
{
layerId = "CFFEBDE4-599A-46B2-9328-D96E42CD9C81";
paths = (
{
closed = 1;
nodes = (
"493 624 OFFCURVE",
"384 724 OFFCURVE",
"272 724 QCURVE SMOOTH",
"200 724 OFFCURVE",
"87 680 OFFCURVE",
"49 650 QCURVE",
"93 590 LINE",
"133 616 OFFCURVE",
"215 650 OFFCURVE",
"273 650 QCURVE SMOOTH",
"333 650 OFFCURVE",
"403 593 OFFCURVE",
"403 541 QCURVE SMOOTH",
"403 480 OFFCURVE",
"312 406 OFFCURVE",
"224 406 QCURVE SMOOTH",
"154 406 LINE",
"154 331 LINE",
"223 331 LINE SMOOTH",
"318 331 OFFCURVE",
"423 272 OFFCURVE",
"423 205 QCURVE SMOOTH",
"423 139 OFFCURVE",
"338 64 OFFCURVE",
"242 64 QCURVE SMOOTH",
"194 64 OFFCURVE",
"90 89 OFFCURVE",
"45 111 QCURVE",
"45 29 LINE",
"89 7 OFFCURVE",
"185 -10 OFFCURVE",
"241 -10 QCURVE SMOOTH",
"336 -10 OFFCURVE",
"457 44 OFFCURVE",
"515 141 OFFCURVE",
"515 203 QCURVE SMOOTH",
"515 274 OFFCURVE",
"431 362 OFFCURVE",
"345 372 QCURVE",
"345 376 LINE",
"413 390 OFFCURVE",
"493 475 OFFCURVE",
"493 547 QCURVE",
"493 547 LINE"
);
}
);
width = 572;
}
);
note = three;
unicode = 0033;
},
{
glyphname = four;
lastChange = "2020-03-26 11:01:55 +0000";
layers = (
{
layerId = "CFFEBDE4-599A-46B2-9328-D96E42CD9C81";
paths = (
{
closed = 1;
nodes = (
"552 241 LINE",
"448 241 LINE",
"448 718 LINE",
"357 718 LINE",
"21 237 LINE",
"21 162 LINE",
"363 162 LINE",
"363 0 LINE",
"448 0 LINE",
"448 162 LINE",
"552 162 LINE",
"552 162 LINE"
);
},
{
closed = 1;
nodes = (
"107 241 LINE",
"321 546 LINE SMOOTH",
"332 561 OFFCURVE",
"356 605 OFFCURVE",
"364 624 QCURVE",
"368 624 LINE",
"367 591 OFFCURVE",
"363 518 OFFCURVE",
"363 466 QCURVE SMOOTH",
"363 241 LINE",
"363 241 LINE"
);
}
);
width = 572;
}
);
note = four;
unicode = 0034;
},
{
glyphname = five;
lastChange = "2020-03-26 11:01:55 +0000";
layers = (
{
layerId = "CFFEBDE4-599A-46B2-9328-D96E42CD9C81";
paths = (
{
closed = 1;
nodes = (
"240 438 OFFCURVE",
"182 430 OFFCURVE",
"165 427 QCURVE",
"182 634 LINE",
"465 634 LINE",
"465 714 LINE",
"107 714 LINE",
"80 377 LINE",
"124 349 LINE",
"146 354 OFFCURVE",
"218 364 OFFCURVE",
"246 364 QCURVE SMOOTH",
"339 364 OFFCURVE",
"425 289 OFFCURVE",
"425 219 QCURVE SMOOTH",
"425 140 OFFCURVE",
"328 65 OFFCURVE",
"249 65 QCURVE SMOOTH",
"202 65 OFFCURVE",
"99 90 OFFCURVE",
"63 112 QCURVE",
"63 29 LINE",
"96 10 OFFCURVE",
"193 -10 OFFCURVE",
"248 -10 QCURVE SMOOTH",
"374 -10 OFFCURVE",
"515 117 OFFCURVE",
"515 228 QCURVE SMOOTH",
"515 328 OFFCURVE",
"385 438 OFFCURVE",
"275 438 QCURVE",
"275 438 LINE"
);
}
);
width = 572;
}
);
note = five;
unicode = 0035;
},
{
glyphname = six;
lastChange = "2020-03-26 11:01:55 +0000";
layers = (
{
layerId = "CFFEBDE4-599A-46B2-9328-D96E42CD9C81";
paths = (
{
closed = 1;
nodes = (
"55 198 OFFCURVE",
"120 58 OFFCURVE",
"230 -10 OFFCURVE",
"298 -10 QCURVE SMOOTH",
"402 -10 OFFCURVE",
"525 118 OFFCURVE",
"525 230 QCURVE SMOOTH",
"525 334 OFFCURVE",
"411 447 OFFCURVE",
"318 447 QCURVE SMOOTH",
"254 447 OFFCURVE",
"172 398 OFFCURVE",
"149 363 QCURVE",
"143 363 LINE",
"146 422 OFFCURVE",
"170 526 OFFCURVE",
"223 606 OFFCURVE",
"315 652 OFFCURVE",
"384 652 QCURVE SMOOTH",
"407 652 OFFCURVE",
"452 646 OFFCURVE",
"470 640 QCURVE",
"470 715 LINE",
"454 720 OFFCURVE",
"403 724 OFFCURVE",
"382 724 QCURVE SMOOTH",
"281 724 OFFCURVE",
"153 652 OFFCURVE",
"82 531 OFFCURVE",
"55 382 OFFCURVE",
"55 305 QCURVE",
"55 305 LINE"
);
},
{
closed = 1;
nodes = (
"246 64 OFFCURVE",
"178 119 OFFCURVE",
"144 204 OFFCURVE",
"144 247 QCURVE SMOOTH",
"144 279 OFFCURVE",
"183 339 OFFCURVE",
"253 378 OFFCURVE",
"300 378 QCURVE SMOOTH",
"369 378 OFFCURVE",
"438 298 OFFCURVE",
"438 230 QCURVE SMOOTH",
"438 145 OFFCURVE",
"360 64 OFFCURVE",
"297 64 QCURVE",
"297 64 LINE"
);
}
);
width = 572;
}
);
note = six;
unicode = 0036;
},
{
glyphname = seven;
lastChange = "2020-03-26 11:01:55 +0000";
layers = (
{
layerId = "CFFEBDE4-599A-46B2-9328-D96E42CD9C81";
paths = (
{
closed = 1;
nodes = (
"233 0 LINE",
"523 646 LINE",
"523 714 LINE",
"44 714 LINE",
"44 634 LINE",
"429 634 LINE",
"136 0 LINE",
"136 0 LINE"
);
}
);
width = 572;
}
);
note = seven;
unicode = 0037;
},
{
glyphname = eight;
lastChange = "2020-03-26 11:01:55 +0000";
layers = (
{
layerId = "CFFEBDE4-599A-46B2-9328-D96E42CD9C81";
paths = (
{
closed = 1;
nodes = (
"224 724 OFFCURVE",
"128 684 OFFCURVE",
"72 609 OFFCURVE",
"72 554 QCURVE SMOOTH",
"72 488 OFFCURVE",
"145 403 OFFCURVE",
"197 373 QCURVE",
"158 355 OFFCURVE",
"90 303 OFFCURVE",
"49 231 OFFCURVE",
"49 182 QCURVE SMOOTH",
"49 91 OFFCURVE",
"173 -10 OFFCURVE",
"288 -10 QCURVE SMOOTH",
"395 -10 OFFCURVE",
"522 95 OFFCURVE",
"522 185 QCURVE SMOOTH",
"522 234 OFFCURVE",
"479 304 OFFCURVE",
"407 357 OFFCURVE",
"363 378 QCURVE",
"400 397 OFFCURVE",
"462 446 OFFCURVE",
"499 510 OFFCURVE",
"499 553 QCURVE SMOOTH",
"499 636 OFFCURVE",
"379 724 OFFCURVE",
"285 724 QCURVE",
"285 724 LINE"
);
},
{
closed = 1;
nodes = (
"342 653 OFFCURVE",
"412 600 OFFCURVE",
"412 550 QCURVE SMOOTH",
"412 496 OFFCURVE",
"341 434 OFFCURVE",
"289 412 QCURVE",
"253 428 OFFCURVE",
"193 463 OFFCURVE",
"158 513 OFFCURVE",
"158 550 QCURVE SMOOTH",
"158 600 OFFCURVE",
"229 653 OFFCURVE",
"284 653 QCURVE",
"284 653 LINE"
);
},
{
closed = 1;
nodes = (
"135 236 OFFCURVE",
"204 309 OFFCURVE",
"270 337 QCURVE",
"286 331 LINE SMOOTH",
"354 305 OFFCURVE",
"436 236 OFFCURVE",
"436 184 QCURVE SMOOTH",
"436 129 OFFCURVE",
"359 60 OFFCURVE",
"286 60 QCURVE SMOOTH",
"209 60 OFFCURVE",
"135 129 OFFCURVE",
"135 181 QCURVE",
"135 181 LINE"
);
}
);
width = 572;
}
);
note = eight;
unicode = 0038;
},
{
glyphname = nine;
lastChange = "2020-03-26 11:01:55 +0000";
layers = (
{
layerId = "CFFEBDE4-599A-46B2-9328-D96E42CD9C81";
paths = (
{
closed = 1;
nodes = (
"520 516 OFFCURVE",
"456 655 OFFCURVE",
"346 724 OFFCURVE",
"278 724 QCURVE SMOOTH",
"209 724 OFFCURVE",
"107 666 OFFCURVE",
"50 558 OFFCURVE",
"50 483 QCURVE SMOOTH",
"50 380 OFFCURVE",
"163 267 OFFCURVE",
"255 267 QCURVE SMOOTH",
"320 267 OFFCURVE",
"403 316 OFFCURVE",
"425 350 QCURVE",
"431 350 LINE",
"429 292 OFFCURVE",
"405 187 OFFCURVE",
"351 108 OFFCURVE",
"260 62 OFFCURVE",
"190 62 QCURVE SMOOTH",
"141 62 OFFCURVE",
"102 75 QCURVE",
"102 0 LINE",
"119 -5 OFFCURVE",
"172 -10 OFFCURVE",
"192 -10 QCURVE SMOOTH",
"293 -10 OFFCURVE",
"422 62 OFFCURVE",
"493 183 OFFCURVE",
"520 332 OFFCURVE",
"520 409 QCURVE",
"520 409 LINE"
);
},
{
closed = 1;
nodes = (
"329 650 OFFCURVE",
"397 594 OFFCURVE",
"431 510 OFFCURVE",
"431 467 QCURVE SMOOTH",
"431 435 OFFCURVE",
"392 375 OFFCURVE",
"322 336 OFFCURVE",
"274 336 QCURVE SMOOTH",
"204 336 OFFCURVE",
"137 415 OFFCURVE",
"137 484 QCURVE SMOOTH",
"137 568 OFFCURVE",
"216 650 OFFCURVE",
"278 650 QCURVE",
"278 650 LINE"
);
}
);
width = 572;
}
);
note = nine;
unicode = 0039;
},
{
glyphname = period;
lastChange = "2020-03-26 11:01:55 +0000";
layers = (
{
layerId = "CFFEBDE4-599A-46B2-9328-D96E42CD9C81";
paths = (
{
closed = 1;
nodes = (
"72 18 OFFCURVE",
"108 -14 OFFCURVE",
"133 -14 QCURVE SMOOTH",
"159 -14 OFFCURVE",
"196 18 OFFCURVE",
"196 54 QCURVE SMOOTH",
"196 91 OFFCURVE",
"159 121 OFFCURVE",
"133 121 QCURVE SMOOTH",
"108 121 OFFCURVE",
"72 91 OFFCURVE",
"72 54 QCURVE",
"72 54 LINE"
);
}
);
width = 268;
}
);
leftKerningGroup = comma;
note = period;
rightKerningGroup = comma;
unicode = 002E;
},
{
glyphname = comma;
lastChange = "2020-03-26 11:01:55 +0000";
layers = (
{
layerId = "CFFEBDE4-599A-46B2-9328-D96E42CD9C81";
paths = (
{
closed = 1;
nodes = (
"91 116 LINE",
"84 64 OFFCURVE",
"55 -72 OFFCURVE",
"41 -129 QCURVE",
"106 -129 LINE",
"130 -75 OFFCURVE",
"179 52 OFFCURVE",
"192 105 QCURVE",
"185 116 LINE",
"185 116 LINE"
);
}
);
width = 268;
}
);
leftKerningGroup = comma;
note = comma;
rightKerningGroup = comma;
unicode = 002C;
},
{
glyphname = hyphen;
lastChange = "2020-03-26 11:01:55 +0000";
layers = (
{
layerId = "CFFEBDE4-599A-46B2-9328-D96E42CD9C81";
paths = (
{
closed = 1;
nodes = (
"282 229 LINE",
"282 307 LINE",
"40 307 LINE",
"40 229 LINE",
"40 229 LINE"
);
}
);
width = 322;
}
);
leftKerningGroup = hyphen;
note = hyphen;
rightKerningGroup = hyphen;
unicode = 002D;
},
{
glyphname = .notdef;
lastChange = "2020-03-26 11:01:55 +0000";
layers = (
{
associatedMasterId = "CFFEBDE4-599A-46B2-9328-D96E42CD9C81";
layerId = "0A718E2F-231D-484E-9433-16A5230D2CE8";
name = Bold;
paths = (
{
closed = 1;
nodes = (
"496 0 LINE",
"496 714 LINE",
"85 714 LINE",
"85 0 LINE"
);
},
{
closed = 1;
nodes = (
"136 663 LINE",
"445 663 LINE",
"445 51 LINE",
"136 51 LINE"
);
}
);
width = 582;
},
{
associatedMasterId = "CFFEBDE4-599A-46B2-9328-D96E42CD9C81";
layerId = "98E204A9-1C79-49C7-AB3E-40A925F56409";
name = "Bold Condensed";
paths = (
{
closed = 1;
nodes = (
"496 0 LINE",
"496 714 LINE",
"85 714 LINE",
"85 0 LINE"
);
},
{
closed = 1;
nodes = (
"136 663 LINE",
"445 663 LINE",
"445 51 LINE",
"136 51 LINE"
);
}
);
width = 582;
},
{
associatedMasterId = "CFFEBDE4-599A-46B2-9328-D96E42CD9C81";
layerId = "9FF96064-8718-4A86-A5C8-73C592101F67";
name = Regular;
paths = (
{
closed = 1;
nodes = (
"505 0 LINE",
"505 714 LINE",
"94 714 LINE",
"94 0 LINE"
);
},
{
closed = 1;
nodes = (
"145 663 LINE",
"454 663 LINE",
"454 51 LINE",
"145 51 LINE"
);
}
);
width = 600;
},
{
associatedMasterId = "CFFEBDE4-599A-46B2-9328-D96E42CD9C81";
layerId = "134B12F2-BF5D-48E3-8003-C7502B438C7E";
name = SemiBold;
paths = (
{
closed = 1;
nodes = (
"505 0 LINE",
"505 714 LINE",
"94 714 LINE",
"94 0 LINE"
);
},
{
closed = 1;
nodes = (
"145 663 LINE",
"454 663 LINE",
"454 51 LINE",
"145 51 LINE"
);
}
);
width = 600;
},
{
associatedMasterId = "CFFEBDE4-599A-46B2-9328-D96E42CD9C81";
layerId = "36F3C8CB-53EE-4548-BFDE-2C03212BACAA";
name = Condensed;
paths = (
{
closed = 1;
nodes = (
"496 0 LINE",
"496 714 LINE",
"85 714 LINE",
"85 0 LINE"
);
},
{
closed = 1;
nodes = (
"136 663 LINE",
"445 663 LINE",
"445 51 LINE",
"136 51 LINE"
);
}
);
width = 595;
},
{
associatedMasterId = "CFFEBDE4-599A-46B2-9328-D96E42CD9C81";
layerId = "43B45EC1-5522-4B1A-B0C7-88628E50A583";
name = "SemiBold Condensed";
paths = (
{
closed = 1;
nodes = (
"496 0 LINE",
"496 714 LINE",
"85 714 LINE",
"85 0 LINE"
);
},
{
closed = 1;
nodes = (
"136 663 LINE",
"445 663 LINE",
"445 51 LINE",
"136 51 LINE"
);
}
);
width = 587;
},
{
layerId = "CFFEBDE4-599A-46B2-9328-D96E42CD9C81";
paths = (
{
closed = 1;
nodes = (
"505 0 LINE",
"505 714 LINE",
"94 714 LINE",
"94 0 LINE",
"94 0 LINE"
);
},
{
closed = 1;
nodes = (
"145 663 LINE",
"454 663 LINE",
"454 51 LINE",
"145 51 LINE",
"145 51 LINE"
);
}
);
userData = {
assembly = "NPUSHB[ ]	/* 39 values pushed */\0120 0 0 3 2 0 3 103 0 2 1 1 2 87 0 2 2 1 95 4 1 1 2 1 79 0 0 7 6 5 4 0 3 0 3 17 5 6 23 \012CALL[ ]	/* CallFunction */";
};
width = 600;
},
{
associatedMasterId = "CFFEBDE4-599A-46B2-9328-D96E42CD9C81";
layerId = "029FEF0C-5FA4-4A3E-AC23-838A1147A554";
name = "Light Condensed";
paths = (
{
closed = 1;
nodes = (
"496 0 LINE",
"496 714 LINE",
"85 714 LINE",
"85 0 LINE"
);
},
{
closed = 1;
nodes = (
"136 663 LINE",
"445 663 LINE",
"445 51 LINE",
"136 51 LINE"
);
}
);
width = 600;
},
{
associatedMasterId = "CFFEBDE4-599A-46B2-9328-D96E42CD9C81";
layerId = "6CD3EE05-C8AD-47E9-A0AE-B645441B0163";
name = Regular;
paths = (
{
closed = 1;
nodes = (
"496 0 LINE",
"496 714 LINE",
"85 714 LINE",
"85 0 LINE"
);
},
{
closed = 1;
nodes = (
"136 663 LINE",
"445 663 LINE",
"445 51 LINE",
"136 51 LINE"
);
}
);
width = 582;
},
{
associatedMasterId = "CFFEBDE4-599A-46B2-9328-D96E42CD9C81";
layerId = "4BA813F0-6E24-42D1-9A84-D42DCF76A6FD";
name = Regular;
paths = (
{
closed = 1;
nodes = (
"496 0 LINE",
"496 714 LINE",
"85 714 LINE",
"85 0 LINE"
);
},
{
closed = 1;
nodes = (
"136 663 LINE",
"445 663 LINE",
"445 51 LINE",
"136 51 LINE"
);
}
);
width = 582;
},
{
associatedMasterId = "CFFEBDE4-599A-46B2-9328-D96E42CD9C81";
layerId = "11C7202F-BDE1-4540-9196-841830120CA8";
name = Regular;
paths = (
{
closed = 1;
nodes = (
"505 0 LINE",
"505 714 LINE",
"94 714 LINE",
"94 0 LINE"
);
},
{
closed = 1;
nodes = (
"145 663 LINE",
"454 663 LINE",
"454 51 LINE",
"145 51 LINE"
);
}
);
width = 600;
},
{
associatedMasterId = "CFFEBDE4-599A-46B2-9328-D96E42CD9C81";
layerId = "5D16F8A9-2BA9-47A0-99C6-C9F3EBB274A0";
name = Regular;
paths = (
{
closed = 1;
nodes = (
"505 0 LINE",
"505 714 LINE",
"94 714 LINE",
"94 0 LINE"
);
},
{
closed = 1;
nodes = (
"145 663 LINE",
"454 663 LINE",
"454 51 LINE",
"145 51 LINE"
);
}
);
width = 600;
},
{
associatedMasterId = "CFFEBDE4-599A-46B2-9328-D96E42CD9C81";
layerId = "444C4D7B-BB42-46E5-A210-3251DB2C5DF7";
name = Regular;
paths = (
{
closed = 1;
nodes = (
"496 0 LINE",
"496 714 LINE",
"85 714 LINE",
"85 0 LINE"
);
},
{
closed = 1;
nodes = (
"136 663 LINE",
"445 663 LINE",
"445 51 LINE",
"136 51 LINE"
);
}
);
width = 595;
},
{
associatedMasterId = "CFFEBDE4-599A-46B2-9328-D96E42CD9C81";
layerId = "D00C89AE-1924-40D7-BCB8-50F6B6FF00C9";
name = Regular;
paths = (
{
closed = 1;
nodes = (
"496 0 LINE",
"496 714 LINE",
"85 714 LINE",
"85 0 LINE"
);
},
{
closed = 1;
nodes = (
"136 663 LINE",
"445 663 LINE",
"445 51 LINE",
"136 51 LINE"
);
}
);
width = 587;
},
{
associatedMasterId = "CFFEBDE4-599A-46B2-9328-D96E42CD9C81";
layerId = "0C04772A-F31D-4E86-90EF-3402D1EA39CA";
name = Regular;
paths = (
{
closed = 1;
nodes = (
"505 0 LINE",
"505 714 LINE",
"94 714 LINE",
"94 0 LINE"
);
},
{
closed = 1;
nodes = (
"145 663 LINE",
"454 663 LINE",
"454 51 LINE",
"145 51 LINE"
);
}
);
width = 600;
},
{
associatedMasterId = "CFFEBDE4-599A-46B2-9328-D96E42CD9C81";
layerId = "E44A1C33-4DA7-464B-9CD1-E803182C2B8E";
name = Regular;
paths = (
{
closed = 1;
nodes = (
"496 0 LINE",
"496 714 LINE",
"85 714 LINE",
"85 0 LINE"
);
},
{
closed = 1;
nodes = (
"136 663 LINE",
"445 663 LINE",
"445 51 LINE",
"136 51 LINE"
);
}
);
width = 600;
},
{
associatedMasterId = "CFFEBDE4-599A-46B2-9328-D96E42CD9C81";
layerId = "6CD769E4-BA55-4180-AEEB-BBFB0FE71E60";
name = SemiBold;
paths = (
{
closed = 1;
nodes = (
"496 0 LINE",
"496 714 LINE",
"85 714 LINE",
"85 0 LINE"
);
},
{
closed = 1;
nodes = (
"136 663 LINE",
"445 663 LINE",
"445 51 LINE",
"136 51 LINE"
);
}
);
width = 582;
},
{
associatedMasterId = "CFFEBDE4-599A-46B2-9328-D96E42CD9C81";
layerId = "B72AC865-DCE2-4021-9F6A-E52C2F7C36C3";
name = SemiBold;
paths = (
{
closed = 1;
nodes = (
"496 0 LINE",
"496 714 LINE",
"85 714 LINE",
"85 0 LINE"
);
},
{
closed = 1;
nodes = (
"136 663 LINE",
"445 663 LINE",
"445 51 LINE",
"136 51 LINE"
);
}
);
width = 582;
},
{
associatedMasterId = "CFFEBDE4-599A-46B2-9328-D96E42CD9C81";
layerId = "73144C29-A3E1-435F-A101-12EB16795B90";
name = SemiBold;
paths = (
{
closed = 1;
nodes = (
"505 0 LINE",
"505 714 LINE",
"94 714 LINE",
"94 0 LINE"
);
},
{
closed = 1;
nodes = (
"145 663 LINE",
"454 663 LINE",
"454 51 LINE",
"145 51 LINE"
);
}
);
width = 600;
},
{
associatedMasterId = "CFFEBDE4-599A-46B2-9328-D96E42CD9C81";
layerId = "18CF4588-85AB-4745-818C-09CE36B775D2";
name = SemiBold;
paths = (
{
closed = 1;
nodes = (
"505 0 LINE",
"505 714 LINE",
"94 714 LINE",
"94 0 LINE"
);
},
{
closed = 1;
nodes = (
"145 663 LINE",
"454 663 LINE",
"454 51 LINE",
"145 51 LINE"
);
}
);
width = 600;
},
{
associatedMasterId = "CFFEBDE4-599A-46B2-9328-D96E42CD9C81";
layerId = "686EB0C4-EABE-4AD7-86BC-00ECD1BF7E9E";
name = SemiBold;
paths = (
{
closed = 1;
nodes = (
"496 0 LINE",
"496 714 LINE",
"85 714 LINE",
"85 0 LINE"
);
},
{
closed = 1;
nodes = (
"136 663 LINE",
"445 663 LINE",
"445 51 LINE",
"136 51 LINE"
);
}
);
width = 595;
},
{
associatedMasterId = "CFFEBDE4-599A-46B2-9328-D96E42CD9C81";
layerId = "E5BC6AAC-6572-4494-8CA4-C3D39E7EACEC";
name = SemiBold;
paths = (
{
closed = 1;
nodes = (
"496 0 LINE",
"496 714 LINE",
"85 714 LINE",
"85 0 LINE"
);
},
{
closed = 1;
nodes = (
"136 663 LINE",
"445 663 LINE",
"445 51 LINE",
"136 51 LINE"
);
}
);
width = 587;
},
{
associatedMasterId = "CFFEBDE4-599A-46B2-9328-D96E42CD9C81";
layerId = "206B8059-80C9-426C-870D-7DCC5D63B771";
name = SemiBold;
paths = (
{
closed = 1;
nodes = (
"505 0 LINE",
"505 714 LINE",
"94 714 LINE",
"94 0 LINE"
);
},
{
closed = 1;
nodes = (
"145 663 LINE",
"454 663 LINE",
"454 51 LINE",
"145 51 LINE"
);
}
);
width = 600;
},
{
associatedMasterId = "CFFEBDE4-599A-46B2-9328-D96E42CD9C81";
layerId = "8CA70734-D081-4BD8-AD2F-7C5E13D31257";
name = SemiBold;
paths = (
{
closed = 1;
nodes = (
"496 0 LINE",
"496 714 LINE",
"85 714 LINE",
"85 0 LINE"
);
},
{
closed = 1;
nodes = (
"136 663 LINE",
"445 663 LINE",
"445 51 LINE",
"136 51 LINE"
);
}
);
width = 600;
},
{
associatedMasterId = "CFFEBDE4-599A-46B2-9328-D96E42CD9C81";
layerId = "6D228CAF-D3D7-4333-A99C-26716E667E2A";
name = Bold;
paths = (
{
closed = 1;
nodes = (
"496 0 LINE",
"496 714 LINE",
"85 714 LINE",
"85 0 LINE"
);
},
{
closed = 1;
nodes = (
"136 663 LINE",
"445 663 LINE",
"445 51 LINE",
"136 51 LINE"
);
}
);
width = 582;
},
{
associatedMasterId = "CFFEBDE4-599A-46B2-9328-D96E42CD9C81";
layerId = "0F275DA8-301B-4F20-BD77-158CA365DF6E";
name = Bold;
paths = (
{
closed = 1;
nodes = (
"496 0 LINE",
"496 714 LINE",
"85 714 LINE",
"85 0 LINE"
);
},
{
closed = 1;
nodes = (
"136 663 LINE",
"445 663 LINE",
"445 51 LINE",
"136 51 LINE"
);
}
);
width = 582;
},
{
associatedMasterId = "CFFEBDE4-599A-46B2-9328-D96E42CD9C81";
layerId = "D46BE755-DD9E-4EEB-B458-600115B36096";
name = Bold;
paths = (
{
closed = 1;
nodes = (
"505 0 LINE",
"505 714 LINE",
"94 714 LINE",
"94 0 LINE"
);
},
{
closed = 1;
nodes = (
"145 663 LINE",
"454 663 LINE",
"454 51 LINE",
"145 51 LINE"
);
}
);
width = 600;
},
{
associatedMasterId = "CFFEBDE4-599A-46B2-9328-D96E42CD9C81";
layerId = "7FE48EA0-3A2C-4D49-ABA4-E32E78AB57C1";
name = Bold;
paths = (
{
closed = 1;
nodes = (
"505 0 LINE",
"505 714 LINE",
"94 714 LINE",
"94 0 LINE"
);
},
{
closed = 1;
nodes = (
"145 663 LINE",
"454 663 LINE",
"454 51 LINE",
"145 51 LINE"
);
}
);
width = 600;
},
{
associatedMasterId = "CFFEBDE4-599A-46B2-9328-D96E42CD9C81";
layerId = "0C5F2DE2-4894-433A-AF78-14A7760305F4";
name = Bold;
paths = (
{
closed = 1;
nodes = (
"496 0 LINE",
"496 714 LINE",
"85 714 LINE",
"85 0 LINE"
);
},
{
closed = 1;
nodes = (
"136 663 LINE",
"445 663 LINE",
"445 51 LINE",
"136 51 LINE"
);
}
);
width = 595;
},
{
associatedMasterId = "CFFEBDE4-599A-46B2-9328-D96E42CD9C81";
layerId = "218C21A7-D612-4AB3-84F9-0D3A7F75CFA6";
name = Bold;
paths = (
{
closed = 1;
nodes = (
"496 0 LINE",
"496 714 LINE",
"85 714 LINE",
"85 0 LINE"
);
},
{
closed = 1;
nodes = (
"136 663 LINE",
"445 663 LINE",
"445 51 LINE",
"136 51 LINE"
);
}
);
width = 587;
},
{
associatedMasterId = "CFFEBDE4-599A-46B2-9328-D96E42CD9C81";
layerId = "3FB868F8-5CDC-4A46-BA32-95627737ABE0";
name = Bold;
paths = (
{
closed = 1;
nodes = (
"505 0 LINE",
"505 714 LINE",
"94 714 LINE",
"94 0 LINE"
);
},
{
closed = 1;
nodes = (
"145 663 LINE",
"454 663 LINE",
"454 51 LINE",
"145 51 LINE"
);
}
);
width = 600;
},
{
associatedMasterId = "CFFEBDE4-599A-46B2-9328-D96E42CD9C81";
layerId = "5BFF9FCA-B510-42EF-B974-4F4703A3DF37";
name = Bold;
paths = (
{
closed = 1;
nodes = (
"496 0 LINE",
"496 714 LINE",
"85 714 LINE",
"85 0 LINE"
);
},
{
closed = 1;
nodes = (
"136 663 LINE",
"445 663 LINE",
"445 51 LINE",
"136 51 LINE"
);
}
);
width = 600;
},
{
associatedMasterId = "CFFEBDE4-599A-46B2-9328-D96E42CD9C81";
layerId = "10F16149-C491-4EC1-A76D-4B0D82B949A8";
name = "Light Condensed";
paths = (
{
closed = 1;
nodes = (
"496 0 LINE",
"496 714 LINE",
"85 714 LINE",
"85 0 LINE"
);
},
{
closed = 1;
nodes = (
"136 663 LINE",
"445 663 LINE",
"445 51 LINE",
"136 51 LINE"
);
}
);
width = 582;
},
{
associatedMasterId = "CFFEBDE4-599A-46B2-9328-D96E42CD9C81";
layerId = "72186310-A4A1-43C8-93EC-DE7F7E0C04DC";
name = "Light Condensed";
paths = (
{
closed = 1;
nodes = (
"496 0 LINE",
"496 714 LINE",
"85 714 LINE",
"85 0 LINE"
);
},
{
closed = 1;
nodes = (
"136 663 LINE",
"445 663 LINE",
"445 51 LINE",
"136 51 LINE"
);
}
);
width = 582;
},
{
associatedMasterId = "CFFEBDE4-599A-46B2-9328-D96E42CD9C81";
layerId = "3AA2D878-A039-41E2-8382-305C1EBDDC14";
name = "Light Condensed";
paths = (
{
closed = 1;
nodes = (
"505 0 LINE",
"505 714 LINE",
"94 714 LINE",
"94 0 LINE"
);
},
{
closed = 1;
nodes = (
"145 663 LINE",
"454 663 LINE",
"454 51 LINE",
"145 51 LINE"
);
}
);
width = 600;
},
{
associatedMasterId = "CFFEBDE4-599A-46B2-9328-D96E42CD9C81";
layerId = "910244F3-C233-4E50-A821-AC6322E08668";
name = "Light Condensed";
paths = (
{
closed = 1;
nodes = (
"505 0 LINE",
"505 714 LINE",
"94 714 LINE",
"94 0 LINE"
);
},
{
closed = 1;
nodes = (
"145 663 LINE",
"454 663 LINE",
"454 51 LINE",
"145 51 LINE"
);
}
);
width = 600;
},
{
associatedMasterId = "CFFEBDE4-599A-46B2-9328-D96E42CD9C81";
layerId = "3D21177B-E83B-427F-9FBC-21300ED8A213";
name = "Light Condensed";
paths = (
{
closed = 1;
nodes = (
"496 0 LINE",
"496 714 LINE",
"85 714 LINE",
"85 0 LINE"
);
},
{
closed = 1;
nodes = (
"136 663 LINE",
"445 663 LINE",
"445 51 LINE",
"136 51 LINE"
);
}
);
width = 595;
},
{
associatedMasterId = "CFFEBDE4-599A-46B2-9328-D96E42CD9C81";
layerId = "4355EC66-3F59-4296-9F4C-72EC0B481B5D";
name = "Light Condensed";
paths = (
{
closed = 1;
nodes = (
"496 0 LINE",
"496 714 LINE",
"85 714 LINE",
"85 0 LINE"
);
},
{
closed = 1;
nodes = (
"136 663 LINE",
"445 663 LINE",
"445 51 LINE",
"136 51 LINE"
);
}
);
width = 587;
},
{
associatedMasterId = "CFFEBDE4-599A-46B2-9328-D96E42CD9C81";
layerId = "BD31AAF9-E65B-4A30-ACC0-7018B0C27C60";
name = "Light Condensed";
paths = (
{
closed = 1;
nodes = (
"505 0 LINE",
"505 714 LINE",
"94 714 LINE",
"94 0 LINE"
);
},
{
closed = 1;
nodes = (
"145 663 LINE",
"454 663 LINE",
"454 51 LINE",
"145 51 LINE"
);
}
);
width = 600;
},
{
associatedMasterId = "CFFEBDE4-599A-46B2-9328-D96E42CD9C81";
layerId = "D77228BB-6669-4F59-82EB-EFDED494D297";
name = "Light Condensed";
paths = (
{
closed = 1;
nodes = (
"496 0 LINE",
"496 714 LINE",
"85 714 LINE",
"85 0 LINE"
);
},
{
closed = 1;
nodes = (
"136 663 LINE",
"445 663 LINE",
"445 51 LINE",
"136 51 LINE"
);
}
);
width = 600;
},
{
associatedMasterId = "CFFEBDE4-599A-46B2-9328-D96E42CD9C81";
layerId = "81F4823B-D69E-4E11-86B2-52E1D1CABD54";
name = Condensed;
paths = (
{
closed = 1;
nodes = (
"496 0 LINE",
"496 714 LINE",
"85 714 LINE",
"85 0 LINE"
);
},
{
closed = 1;
nodes = (
"136 663 LINE",
"445 663 LINE",
"445 51 LINE",
"136 51 LINE"
);
}
);
width = 582;
},
{
associatedMasterId = "CFFEBDE4-599A-46B2-9328-D96E42CD9C81";
layerId = "1ACF29D9-9C6C-45FA-8C10-238DD2AA8ADF";
name = Condensed;
paths = (
{
closed = 1;
nodes = (
"496 0 LINE",
"496 714 LINE",
"85 714 LINE",
"85 0 LINE"
);
},
{
closed = 1;
nodes = (
"136 663 LINE",
"445 663 LINE",
"445 51 LINE",
"136 51 LINE"
);
}
);
width = 582;
},
{
associatedMasterId = "CFFEBDE4-599A-46B2-9328-D96E42CD9C81";
layerId = "A823C984-E080-4BD5-A1B6-02506CC81AD1";
name = Condensed;
paths = (
{
closed = 1;
nodes = (
"505 0 LINE",
"505 714 LINE",
"94 714 LINE",
"94 0 LINE"
);
},
{
closed = 1;
nodes = (
"145 663 LINE",
"454 663 LINE",
"454 51 LINE",
"145 51 LINE"
);
}
);
width = 600;
},
{
associatedMasterId = "CFFEBDE4-599A-46B2-9328-D96E42CD9C81";
layerId = "7C505BEE-2611-4A04-ABA0-64C0BA48336F";
name = Condensed;
paths = (
{
closed = 1;
nodes = (
"505 0 LINE",
"505 714 LINE",
"94 714 LINE",
"94 0 LINE"
);
},
{
closed = 1;
nodes = (
"145 663 LINE",
"454 663 LINE",
"454 51 LINE",
"145 51 LINE"
);
}
);
width = 600;
},
{
associatedMasterId = "CFFEBDE4-599A-46B2-9328-D96E42CD9C81";
layerId = "CFFC113C-B55C-44E0-A174-84F7BF124894";
name = Condensed;
paths = (
{
closed = 1;
nodes = (
"496 0 LINE",
"496 714 LINE",
"85 714 LINE",
"85 0 LINE"
);
},
{
closed = 1;
nodes = (
"136 663 LINE",
"445 663 LINE",
"445 51 LINE",
"136 51 LINE"
);
}
);
width = 595;
},
{
associatedMasterId = "CFFEBDE4-599A-46B2-9328-D96E42CD9C81";
layerId = "43D1030E-7459-4003-8CF9-EC0A1464FBD9";
name = Condensed;
paths = (
{
closed = 1;
nodes = (
"496 0 LINE",
"496 714 LINE",
"85 714 LINE",
"85 0 LINE"
);
},
{
closed = 1;
nodes = (
"136 663 LINE",
"445 663 LINE",
"445 51 LINE",
"136 51 LINE"
);
}
);
width = 587;
},
{
associatedMasterId = "CFFEBDE4-599A-46B2-9328-D96E42CD9C81";
layerId = "E193C3F6-581C-4255-BA06-39B2C55FEA85";
name = Condensed;
paths = (
{
closed = 1;
nodes = (
"505 0 LINE",
"505 714 LINE",
"94 714 LINE",
"94 0 LINE"
);
},
{
closed = 1;
nodes = (
"145 663 LINE",
"454 663 LINE",
"454 51 LINE",
"145 51 LINE"
);
}
);
width = 600;
},
{
associatedMasterId = "CFFEBDE4-599A-46B2-9328-D96E42CD9C81";
layerId = "BC1F2A7D-5C4C-489A-B80D-F8A78AA87396";
name = Condensed;
paths = (
{
closed = 1;
nodes = (
"496 0 LINE",
"496 714 LINE",
"85 714 LINE",
"85 0 LINE"
);
},
{
closed = 1;
nodes = (
"136 663 LINE",
"445 663 LINE",
"445 51 LINE",
"136 51 LINE"
);
}
);
width = 600;
},
{
associatedMasterId = "CFFEBDE4-599A-46B2-9328-D96E42CD9C81";
layerId = "4A97D365-134C-40CE-A1F4-ACEEDAC52A69";
name = Bold;
paths = (
{
closed = 1;
nodes = (
"496 0 LINE",
"496 714 LINE",
"85 714 LINE",
"85 0 LINE"
);
},
{
closed = 1;
nodes = (
"136 663 LINE",
"445 663 LINE",
"445 51 LINE",
"136 51 LINE"
);
}
);
width = 582;
},
{
associatedMasterId = "CFFEBDE4-599A-46B2-9328-D96E42CD9C81";
layerId = "E30ED5CA-5FDA-483A-B078-9F166668F082";
name = "Bold Condensed";
paths = (
{
closed = 1;
nodes = (
"496 0 LINE",
"496 714 LINE",
"85 714 LINE",
"85 0 LINE"
);
},
{
closed = 1;
nodes = (
"136 663 LINE",
"445 663 LINE",
"445 51 LINE",
"136 51 LINE"
);
}
);
width = 582;
},
{
associatedMasterId = "CFFEBDE4-599A-46B2-9328-D96E42CD9C81";
layerId = "5E9EB60B-4C02-4C45-9028-66D331043723";
name = Regular;
paths = (
{
closed = 1;
nodes = (
"505 0 LINE",
"505 714 LINE",
"94 714 LINE",
"94 0 LINE"
);
},
{
closed = 1;
nodes = (
"145 663 LINE",
"454 663 LINE",
"454 51 LINE",
"145 51 LINE"
);
}
);
width = 600;
},
{
associatedMasterId = "CFFEBDE4-599A-46B2-9328-D96E42CD9C81";
layerId = "CF4745A3-289E-483C-9D08-2C2CDA3793CE";
name = SemiBold;
paths = (
{
closed = 1;
nodes = (
"505 0 LINE",
"505 714 LINE",
"94 714 LINE",
"94 0 LINE"
);
},
{
closed = 1;
nodes = (
"145 663 LINE",
"454 663 LINE",
"454 51 LINE",
"145 51 LINE"
);
}
);
width = 600;
},
{
associatedMasterId = "CFFEBDE4-599A-46B2-9328-D96E42CD9C81";
layerId = "0007F7B2-5B0D-4ECF-8993-9E445AE70882";
name = Condensed;
paths = (
{
closed = 1;
nodes = (
"496 0 LINE",
"496 714 LINE",
"85 714 LINE",
"85 0 LINE"
);
},
{
closed = 1;
nodes = (
"136 663 LINE",
"445 663 LINE",
"445 51 LINE",
"136 51 LINE"
);
}
);
width = 595;
},
{
associatedMasterId = "CFFEBDE4-599A-46B2-9328-D96E42CD9C81";
layerId = "A6240D38-CEDA-4780-B12F-EAC7EDB843D9";
name = "SemiBold Condensed";
paths = (
{
closed = 1;
nodes = (
"496 0 LINE",
"496 714 LINE",
"85 714 LINE",
"85 0 LINE"
);
},
{
closed = 1;
nodes = (
"136 663 LINE",
"445 663 LINE",
"445 51 LINE",
"136 51 LINE"
);
}
);
width = 587;
},
{
associatedMasterId = "CFFEBDE4-599A-46B2-9328-D96E42CD9C81";
layerId = "79A278C6-3EFA-4DDB-B984-DD1D15CE97C9";
name = "Light Condensed";
paths = (
{
closed = 1;
nodes = (
"496 0 LINE",
"496 714 LINE",
"85 714 LINE",
"85 0 LINE"
);
},
{
closed = 1;
nodes = (
"136 663 LINE",
"445 663 LINE",
"445 51 LINE",
"136 51 LINE"
);
}
);
width = 600;
},
{
associatedMasterId = "CFFEBDE4-599A-46B2-9328-D96E42CD9C81";
layerId = "0F2AC913-770D-4B71-A4B9-DFCE7D340767";
name = "SemiBold Condensed";
paths = (
{
closed = 1;
nodes = (
"496 0 LINE",
"496 714 LINE",
"85 714 LINE",
"85 0 LINE"
);
},
{
closed = 1;
nodes = (
"136 663 LINE",
"445 663 LINE",
"445 51 LINE",
"136 51 LINE"
);
}
);
width = 582;
},
{
associatedMasterId = "CFFEBDE4-599A-46B2-9328-D96E42CD9C81";
layerId = "5818F93F-12B0-43EF-AE07-DE875336F2D3";
name = "SemiBold Condensed";
paths = (
{
closed = 1;
nodes = (
"496 0 LINE",
"496 714 LINE",
"85 714 LINE",
"85 0 LINE"
);
},
{
closed = 1;
nodes = (
"136 663 LINE",
"445 663 LINE",
"445 51 LINE",
"136 51 LINE"
);
}
);
width = 582;
},
{
associatedMasterId = "CFFEBDE4-599A-46B2-9328-D96E42CD9C81";
layerId = "69A75AA9-C824-4690-AF06-368352D8C4A0";
name = "SemiBold Condensed";
paths = (
{
closed = 1;
nodes = (
"505 0 LINE",
"505 714 LINE",
"94 714 LINE",
"94 0 LINE"
);
},
{
closed = 1;
nodes = (
"145 663 LINE",
"454 663 LINE",
"454 51 LINE",
"145 51 LINE"
);
}
);
width = 600;
},
{
associatedMasterId = "CFFEBDE4-599A-46B2-9328-D96E42CD9C81";
layerId = "0659F8A8-1CA7-437A-8862-AFE6849E1BC8";
name = "SemiBold Condensed";
paths = (
{
closed = 1;
nodes = (
"505 0 LINE",
"505 714 LINE",
"94 714 LINE",
"94 0 LINE"
);
},
{
closed = 1;
nodes = (
"145 663 LINE",
"454 663 LINE",
"454 51 LINE",
"145 51 LINE"
);
}
);
width = 600;
},
{
associatedMasterId = "CFFEBDE4-599A-46B2-9328-D96E42CD9C81";
layerId = "9849390B-0D5D-419F-BBF7-4CB8DF1108F4";
name = "SemiBold Condensed";
paths = (
{
closed = 1;
nodes = (
"496 0 LINE",
"496 714 LINE",
"85 714 LINE",
"85 0 LINE"
);
},
{
closed = 1;
nodes = (
"136 663 LINE",
"445 663 LINE",
"445 51 LINE",
"136 51 LINE"
);
}
);
width = 595;
},
{
associatedMasterId = "CFFEBDE4-599A-46B2-9328-D96E42CD9C81";
layerId = "435372D3-A5C6-4F91-8D68-18D24F2DC602";
name = "SemiBold Condensed";
paths = (
{
closed = 1;
nodes = (
"496 0 LINE",
"496 714 LINE",
"85 714 LINE",
"85 0 LINE"
);
},
{
closed = 1;
nodes = (
"136 663 LINE",
"445 663 LINE",
"445 51 LINE",
"136 51 LINE"
);
}
);
width = 587;
},
{
associatedMasterId = "CFFEBDE4-599A-46B2-9328-D96E42CD9C81";
layerId = "4D9C3FAB-40EB-4CCF-A752-6D6FE9920038";
name = "SemiBold Condensed";
paths = (
{
closed = 1;
nodes = (
"505 0 LINE",
"505 714 LINE",
"94 714 LINE",
"94 0 LINE"
);
},
{
closed = 1;
nodes = (
"145 663 LINE",
"454 663 LINE",
"454 51 LINE",
"145 51 LINE"
);
}
);
width = 600;
},
{
associatedMasterId = "CFFEBDE4-599A-46B2-9328-D96E42CD9C81";
layerId = "AFC07936-CFE6-40C4-A927-1C79F0D571B9";
name = "SemiBold Condensed";
paths = (
{
closed = 1;
nodes = (
"496 0 LINE",
"496 714 LINE",
"85 714 LINE",
"85 0 LINE"
);
},
{
closed = 1;
nodes = (
"136 663 LINE",
"445 663 LINE",
"445 51 LINE",
"136 51 LINE"
);
}
);
width = 600;
},
{
associatedMasterId = "CFFEBDE4-599A-46B2-9328-D96E42CD9C81";
layerId = "3DB921F2-2B03-4BC4-8509-8FCD7A6F784E";
name = "Bold Condensed";
paths = (
{
closed = 1;
nodes = (
"496 0 LINE",
"496 714 LINE",
"85 714 LINE",
"85 0 LINE"
);
},
{
closed = 1;
nodes = (
"136 663 LINE",
"445 663 LINE",
"445 51 LINE",
"136 51 LINE"
);
}
);
width = 582;
},
{
associatedMasterId = "CFFEBDE4-599A-46B2-9328-D96E42CD9C81";
layerId = "2F2377A1-11C3-41B6-919D-D55F8AA75D07";
name = "Bold Condensed";
paths = (
{
closed = 1;
nodes = (
"496 0 LINE",
"496 714 LINE",
"85 714 LINE",
"85 0 LINE"
);
},
{
closed = 1;
nodes = (
"136 663 LINE",
"445 663 LINE",
"445 51 LINE",
"136 51 LINE"
);
}
);
width = 582;
},
{
associatedMasterId = "CFFEBDE4-599A-46B2-9328-D96E42CD9C81";
layerId = "18EFA2A5-94BA-44A1-8C61-68BF4E401414";
name = "Bold Condensed";
paths = (
{
closed = 1;
nodes = (
"505 0 LINE",
"505 714 LINE",
"94 714 LINE",
"94 0 LINE"
);
},
{
closed = 1;
nodes = (
"145 663 LINE",
"454 663 LINE",
"454 51 LINE",
"145 51 LINE"
);
}
);
width = 600;
},
{
associatedMasterId = "CFFEBDE4-599A-46B2-9328-D96E42CD9C81";
layerId = "9E2FF5C0-3F8B-4CDD-8C0B-518BB51B0C53";
name = "Bold Condensed";
paths = (
{
closed = 1;
nodes = (
"505 0 LINE",
"505 714 LINE",
"94 714 LINE",
"94 0 LINE"
);
},
{
closed = 1;
nodes = (
"145 663 LINE",
"454 663 LINE",
"454 51 LINE",
"145 51 LINE"
);
}
);
width = 600;
},
{
associatedMasterId = "CFFEBDE4-599A-46B2-9328-D96E42CD9C81";
layerId = "49C7FBBB-5D49-485A-90F5-A2972E78A97C";
name = "Bold Condensed";
paths = (
{
closed = 1;
nodes = (
"496 0 LINE",
"496 714 LINE",
"85 714 LINE",
"85 0 LINE"
);
},
{
closed = 1;
nodes = (
"136 663 LINE",
"445 663 LINE",
"445 51 LINE",
"136 51 LINE"
);
}
);
width = 595;
},
{
associatedMasterId = "CFFEBDE4-599A-46B2-9328-D96E42CD9C81";
layerId = "42E87011-FEDB-43C8-99A4-706BFF7CA79F";
name = "Bold Condensed";
paths = (
{
closed = 1;
nodes = (
"496 0 LINE",
"496 714 LINE",
"85 714 LINE",
"85 0 LINE"
);
},
{
closed = 1;
nodes = (
"136 663 LINE",
"445 663 LINE",
"445 51 LINE",
"136 51 LINE"
);
}
);
width = 587;
},
{
associatedMasterId = "CFFEBDE4-599A-46B2-9328-D96E42CD9C81";
layerId = "AD6F6DAA-2D58-4E1D-98AF-ACAAF76D7B9E";
name = "Bold Condensed";
paths = (
{
closed = 1;
nodes = (
"505 0 LINE",
"505 714 LINE",
"94 714 LINE",
"94 0 LINE"
);
},
{
closed = 1;
nodes = (
"145 663 LINE",
"454 663 LINE",
"454 51 LINE",
"145 51 LINE"
);
}
);
width = 600;
},
{
associatedMasterId = "CFFEBDE4-599A-46B2-9328-D96E42CD9C81";
layerId = "001EDBC9-3154-4441-98CE-7D8995D9200E";
name = "Bold Condensed";
paths = (
{
closed = 1;
nodes = (
"496 0 LINE",
"496 714 LINE",
"85 714 LINE",
"85 0 LINE"
);
},
{
closed = 1;
nodes = (
"136 663 LINE",
"445 663 LINE",
"445 51 LINE",
"136 51 LINE"
);
}
);
width = 600;
}
);
note = .notdef;
},
{
glyphname = u1B170;
lastChange = "2020-04-06 10:49:17 +0000";
layers = (
{
background = {
paths = (
{
closed = 1;
nodes = (
"284 930 LINE",
"299 806 OFFCURVE",
"303 698 OFFCURVE",
"303 578 CURVE SMOOTH",
"303 211 OFFCURVE",
"241 45 OFFCURVE",
"24 -141 CURVE",
"81 -203 LINE",
"323 3 OFFCURVE",
"389 190 OFFCURVE",
"389 582 CURVE SMOOTH",
"389 706 OFFCURVE",
"381 820 OFFCURVE",
"367 939 CURVE"
);
}
);
};
layerId = "CFFEBDE4-599A-46B2-9328-D96E42CD9C81";
paths = (
{
closed = 1;
nodes = (
"337 939 LINE",
"336 478 OFFCURVE",
"251 97 OFFCURVE",
"114 -165 CURVE",
"191 -203 LINE",
"330 61 OFFCURVE",
"420 443 OFFCURVE",
"423 938 CURVE"
);
}
);
vertOrigin = 25;
vertWidth = 1362;
width = 469;
}
);
unicode = 1B170;
},
{
glyphname = u1B171;
lastChange = "2020-04-06 12:02:10 +0000";
layers = (
{
background = {
paths = (
{
closed = 1;
nodes = (
"284 378 OFFCURVE",
"201 212 OFFCURVE",
"20 12 CURVE",
"82 -45 LINE",
"281 171 OFFCURVE",
"370 362 OFFCURVE",
"370 664 CURVE SMOOTH",
"370 766 OFFCURVE",
"364 856 OFFCURVE",
"351 949 CURVE",
"268 939 LINE",
"278 843 OFFCURVE",
"284 775 OFFCURVE",
"284 662 CURVE SMOOTH"
);
},
{
closed = 1;
nodes = (
"460 261 LINE",
"388 83 OFFCURVE",
"300 -39 OFFCURVE",
"179 -154 CURVE",
"239 -213 LINE",
"364 -94 OFFCURVE",
"458 36 OFFCURVE",
"538 229 CURVE"
);
}
);
};
guideLines = (
{
angle = 90;
locked = 1;
position = "{321, 490}";
}
);
layerId = "CFFEBDE4-599A-46B2-9328-D96E42CD9C81";
paths = (
{
closed = 1;
nodes = (
"450 271 LINE",
"378 93 OFFCURVE",
"280 -29 OFFCURVE",
"159 -144 CURVE",
"219 -203 LINE",
"344 -84 OFFCURVE",
"448 46 OFFCURVE",
"528 239 CURVE"
);
},
{
closed = 1;
nodes = (
"337 939 LINE",
"336 478 OFFCURVE",
"252 274 OFFCURVE",
"40 59 CURVE",
"102 0 LINE",
"316 217 OFFCURVE",
"420 432 OFFCURVE",
"423 938 CURVE"
);
}
);
vertOrigin = 25;
vertWidth = 1362;
width = 526;
}
);
unicode = 1B171;
},
{
glyphname = u1B172;
lastChange = "2020-04-06 09:41:49 +0000";
layers = (
{
background = {
components = (
{
name = u1B170;
transform = "{1, 0, 0, 1, -21, 0}";
}
);
};
guideLines = (
{
angle = 90;
locked = 1;
position = "{229, 490}";
}
);
layerId = "CFFEBDE4-599A-46B2-9328-D96E42CD9C81";
paths = (
{
closed = 1;
nodes = (
"395 939 LINE",
"360 757 OFFCURVE",
"322 632 OFFCURVE",
"272 509 CURVE",
"253 479 LINE",
"189 349 OFFCURVE",
"126 251 OFFCURVE",
"31 132 CURVE",
"97 79 LINE",
"183 182 OFFCURVE",
"247 283 OFFCURVE",
"307 411 CURVE",
"331 436 LINE",
"398 588 OFFCURVE",
"436 715 OFFCURVE",
"480 923 CURVE"
);
},
{
closed = 1;
nodes = (
"284 449 OFFCURVE",
"374 301 OFFCURVE",
"374 137 CURVE SMOOTH",
"374 21 OFFCURVE",
"347 -57 OFFCURVE",
"265 -150 CURVE",
"327 -203 LINE",
"416 -105 OFFCURVE",
"460 0 OFFCURVE",
"460 139 CURVE SMOOTH",
"460 315 OFFCURVE",
"366 491 OFFCURVE",
"66 768 CURVE",
"10 703 LINE"
);
}
);
vertOrigin = 25;
vertWidth = 1362;
width = 529;
}
);
unicode = 1B172;
},
{
glyphname = u1B173;
lastChange = "2020-04-06 09:43:47 +0000";
layers = (
{
guideLines = (
{
angle = 90;
locked = 1;
position = "{260, 490}";
}
);
layerId = "CFFEBDE4-599A-46B2-9328-D96E42CD9C81";
paths = (
{
closed = 1;
nodes = (
"588 -72 LINE",
"499 154 OFFCURVE",
"404 313 OFFCURVE",
"267 504 CURVE",
"251 387 LINE",
"353 236 OFFCURVE",
"435 78 OFFCURVE",
"508 -104 CURVE"
);
},
{
closed = 1;
nodes = (
"237 939 LINE",
"236 478 OFFCURVE",
"151 97 OFFCURVE",
"14 -165 CURVE",
"91 -203 LINE",
"230 61 OFFCURVE",
"320 443 OFFCURVE",
"323 938 CURVE"
);
}
);
vertOrigin = 25;
vertWidth = 1362;
width = 503;
}
);
unicode = 1B173;
},
{
glyphname = u1B174;
lastChange = "2020-04-06 09:44:02 +0000";
layers = (
{
guideLines = (
{
angle = 90;
locked = 1;
position = "{335, 490}";
}
);
layerId = "CFFEBDE4-599A-46B2-9328-D96E42CD9C81";
paths = (
{
closed = 1;
nodes = (
"106 522 OFFCURVE",
"142 371 OFFCURVE",
"142 202 CURVE SMOOTH",
"142 69 OFFCURVE",
"118 -50 OFFCURVE",
"63 -174 CURVE",
"140 -203 LINE",
"204 -65 OFFCURVE",
"226 56 OFFCURVE",
"226 202 CURVE SMOOTH",
"226 390 OFFCURVE",
"193 535 OFFCURVE",
"107 741 CURVE",
"30 707 LINE"
);
},
{
closed = 1;
nodes = (
"492 279 OFFCURVE",
"447 415 OFFCURVE",
"447 579 CURVE SMOOTH",
"447 692 OFFCURVE",
"458 794 OFFCURVE",
"489 923 CURVE",
"407 939 LINE",
"377 812 OFFCURVE",
"363 710 OFFCURVE",
"363 594 CURVE SMOOTH",
"363 405 OFFCURVE",
"412 241 OFFCURVE",
"520 90 CURVE",
"586 139 LINE"
);
}
);
vertOrigin = 25;
vertWidth = 1362;
width = 586;
}
);
unicode = 1B174;
},
{
glyphname = u1B175;
lastChange = "2020-04-06 09:44:50 +0000";
layers = (
{
background = {
paths = (
{
closed = 1;
nodes = (
"394 979 LINE",
"353 759 OFFCURVE",
"317 637 OFFCURVE",
"270 512 CURVE",
"258 479 LINE",
"195 340 OFFCURVE",
"131 251 OFFCURVE",
"36 132 CURVE",
"101 77 LINE",
"187 180 OFFCURVE",
"259 282 OFFCURVE",
"319 411 CURVE",
"334 436 LINE",
"391 581 OFFCURVE",
"436 735 OFFCURVE",
"479 964 CURVE"
);
},
{
closed = 1;
nodes = (
"294 445 OFFCURVE",
"374 287 OFFCURVE",
"374 106 CURVE SMOOTH",
"374 -6 OFFCURVE",
"348 -90 OFFCURVE",
"259 -204 CURVE",
"327 -253 LINE",
"423 -134 OFFCURVE",
"460 -27 OFFCURVE",
"460 108 CURVE SMOOTH",
"460 301 OFFCURVE",
"379 484 OFFCURVE",
"79 785 CURVE",
"20 723 LINE"
);
}
);
};
layerId = "CFFEBDE4-599A-46B2-9328-D96E42CD9C81";
paths = (
{
closed = 1;
nodes = (
"565 -85 LINE",
"514 81 OFFCURVE",
"438 248 OFFCURVE",
"359 394 CURVE",
"331 424 LINE",
"263 547 OFFCURVE",
"197 656 OFFCURVE",
"107 771 CURVE",
"40 717 LINE",
"138 592 OFFCURVE",
"213 470 OFFCURVE",
"289 326 CURVE",
"318 291 LINE",
"382 162 OFFCURVE",
"442 22 OFFCURVE",
"484 -112 CURVE"
);
},
{
closed = 1;
nodes = (
"406 939 LINE",
"352 543 OFFCURVE",
"246 181 OFFCURVE",
"78 -167 CURVE",
"154 -203 LINE",
"320 141 OFFCURVE",
"434 514 OFFCURVE",
"491 928 CURVE"
);
}
);
vertOrigin = 25;
vertWidth = 1362;
width = 605;
}
);
unicode = 1B175;
},
{
glyphname = u1B176;
lastChange = "2020-04-06 10:49:51 +0000";
layers = (
{
background = {
paths = (
{
closed = 1;
nodes = (
"285 758 OFFCURVE",
"305 595 OFFCURVE",
"305 443 CURVE SMOOTH",
"305 172 OFFCURVE",
"247 19 OFFCURVE",
"83 -147 CURVE",
"144 -203 LINE",
"331 -25 OFFCURVE",
"391 166 OFFCURVE",
"391 444 CURVE SMOOTH",
"391 597 OFFCURVE",
"370 770 OFFCURVE",
"323 939 CURVE",
"240 918 LINE"
);
},
{
closed = 1;
nodes = (
"120 306 OFFCURVE",
"143 323 OFFCURVE",
"143 362 CURVE SMOOTH",
"143 401 OFFCURVE",
"120 418 OFFCURVE",
"92 418 CURVE SMOOTH",
"63 418 OFFCURVE",
"40 401 OFFCURVE",
"40 362 CURVE SMOOTH",
"40 323 OFFCURVE",
"63 306 OFFCURVE",
"92 306 CURVE SMOOTH"
);
}
);
};
guideLines = (
{
angle = 90;
locked = 1;
position = "{233, 490}";
}
);
layerId = "CFFEBDE4-599A-46B2-9328-D96E42CD9C81";
paths = (
{
closed = 1;
nodes = (
"120 306 OFFCURVE",
"143 323 OFFCURVE",
"143 362 CURVE SMOOTH",
"143 401 OFFCURVE",
"120 418 OFFCURVE",
"92 418 CURVE SMOOTH",
"63 418 OFFCURVE",
"40 401 OFFCURVE",
"40 362 CURVE SMOOTH",
"40 323 OFFCURVE",
"63 306 OFFCURVE",
"92 306 CURVE SMOOTH"
);
},
{
closed = 1;
nodes = (
"377 939 LINE",
"376 478 OFFCURVE",
"291 97 OFFCURVE",
"154 -165 CURVE",
"231 -203 LINE",
"370 61 OFFCURVE",
"460 443 OFFCURVE",
"463 938 CURVE"
);
}
);
vertOrigin = 25;
vertWidth = 1362;
width = 501;
}
);
unicode = 1B176;
},
{
glyphname = u1B177;
lastChange = "2020-04-06 10:54:11 +0000";
layers = (
{
background = {
paths = (
{
closed = 1;
nodes = (
"151 939 LINE",
"106 750 OFFCURVE",
"83 577 OFFCURVE",
"83 424 CURVE SMOOTH",
"83 131 OFFCURVE",
"147 -38 OFFCURVE",
"330 -203 CURVE",
"387 -142 LINE",
"223 11 OFFCURVE",
"169 152 OFFCURVE",
"169 423 CURVE SMOOTH",
"169 575 OFFCURVE",
"192 741 OFFCURVE",
"235 921 CURVE"
);
}
);
};
guideLines = (
{
angle = 90;
locked = 1;
position = "{370, 490}";
}
);
layerId = "CFFEBDE4-599A-46B2-9328-D96E42CD9C81";
paths = (
{
closed = 1;
nodes = (
"433 295 OFFCURVE",
"410 278 OFFCURVE",
"410 239 CURVE SMOOTH",
"410 200 OFFCURVE",
"433 183 OFFCURVE",
"461 183 CURVE SMOOTH",
"490 183 OFFCURVE",
"513 200 OFFCURVE",
"513 239 CURVE SMOOTH",
"513 278 OFFCURVE",
"490 295 OFFCURVE",
"461 295 CURVE SMOOTH"
);
},
{
closed = 1;
nodes = (
"129 478 OFFCURVE",
"93 93 OFFCURVE",
"129 -203 CURVE",
"215 -195 LINE",
"180 98 OFFCURVE",
"217 479 OFFCURVE",
"385 910 CURVE",
"305 939 LINE"
);
}
);
vertOrigin = 25;
vertWidth = 1362;
width = 498;
}
);
unicode = 1B177;
},
{
glyphname = u1B178;
lastChange = "2020-04-06 11:01:05 +0000";
layers = (
{
background = {
paths = (
{
closed = 1;
nodes = (
"407 939 LINE",
"406 478 OFFCURVE",
"321 97 OFFCURVE",
"184 -165 CURVE",
"261 -203 LINE",
"400 61 OFFCURVE",
"490 443 OFFCURVE",
"493 938 CURVE"
);
}
);
};
guideLines = (
{
angle = 90;
locked = 1;
position = "{375, 490}";
}
);
layerId = "CFFEBDE4-599A-46B2-9328-D96E42CD9C81";
paths = (
{
closed = 1;
nodes = (
"153 442 LINE",
"130 276 OFFCURVE",
"72 139 OFFCURVE",
"-11 37 CURVE",
"57 -13 LINE",
"152 110 OFFCURVE",
"210 247 OFFCURVE",
"236 431 CURVE"
);
},
{
closed = 1;
nodes = (
"529 216 OFFCURVE",
"514 114 OFFCURVE",
"514 0 CURVE SMOOTH",
"514 -78 OFFCURVE",
"521 -144 OFFCURVE",
"535 -203 CURVE",
"616 -191 LINE",
"603 -122 OFFCURVE",
"598 -65 OFFCURVE",
"598 0 CURVE SMOOTH",
"598 106 OFFCURVE",
"611 195 OFFCURVE",
"644 309 CURVE",
"566 331 LINE"
);
},
{
closed = 1;
nodes = (
"388 939 LINE",
"385 445 OFFCURVE",
"345 136 OFFCURVE",
"185 -141 CURVE",
"260 -183 LINE",
"420 96 OFFCURVE",
"473 417 OFFCURVE",
"474 938 CURVE"
);
}
);
vertOrigin = 25;
vertWidth = 1362;
width = 719;
}
);
unicode = 1B178;
},
{
glyphname = u1B179;
lastChange = "2020-04-06 10:00:41 +0000";
layers = (
{
background = {
paths = (
{
closed = 1;
nodes = (
"415 -293 LINE",
"428 -184 OFFCURVE",
"433 -86 OFFCURVE",
"433 30 CURVE SMOOTH",
"433 302 OFFCURVE",
"354 592 OFFCURVE",
"171 859 CURVE",
"101 812 LINE",
"283 549 OFFCURVE",
"347 294 OFFCURVE",
"347 30 CURVE SMOOTH",
"347 -82 OFFCURVE",
"343 -182 OFFCURVE",
"330 -286 CURVE"
);
},
{
closed = 1;
nodes = (
"442 939 LINE",
"326 691 OFFCURVE",
"211 536 OFFCURVE",
"20 335 CURVE",
"83 276 LINE",
"294 496 OFFCURVE",
"396 638 OFFCURVE",
"522 906 CURVE"
);
},
{
closed = 1;
nodes = (
"542 607 LINE",
"421 411 OFFCURVE",
"294 245 OFFCURVE",
"93 75 CURVE",
"150 11 LINE",
"347 178 OFFCURVE",
"487 354 OFFCURVE",
"613 559 CURVE"
);
}
);
};
guideLines = (
{
angle = 90;
locked = 1;
position = "{295, 490}";
}
);
layerId = "CFFEBDE4-599A-46B2-9328-D96E42CD9C81";
paths = (
{
closed = 1;
nodes = (
"485 939 LINE",
"342 761 OFFCURVE",
"205 630 OFFCURVE",
"30 489 CURVE",
"84 423 LINE",
"260 563 OFFCURVE",
"396 694 OFFCURVE",
"553 887 CURVE"
);
},
{
closed = 1;
nodes = (
"477 740 OFFCURVE",
"501 692 OFFCURVE",
"501 629 CURVE SMOOTH",
"501 500 OFFCURVE",
"411 411 OFFCURVE",
"111 199 CURVE",
"162 130 LINE",
"491 358 OFFCURVE",
"587 471 OFFCURVE",
"587 629 CURVE SMOOTH",
"587 719 OFFCURVE",
"556 781 OFFCURVE",
"473 864 CURVE",
"424 793 LINE"
);
},
{
closed = 1;
nodes = (
"376 363 LINE",
"392 247 OFFCURVE",
"397 170 OFFCURVE",
"397 42 CURVE SMOOTH",
"397 -51 OFFCURVE",
"393 -113 OFFCURVE",
"385 -196 CURVE",
"470 -203 LINE",
"479 -122 OFFCURVE",
"483 -53 OFFCURVE",
"483 40 CURVE SMOOTH",
"483 170 OFFCURVE",
"477 263 OFFCURVE",
"442 408 CURVE"
);
}
);
vertOrigin = 25;
vertWidth = 1362;
width = 647;
}
);
unicode = 1B179;
},
{
glyphname = u1B17A;
lastChange = "2020-04-06 10:16:53 +0000";
layers = (
{
guideLines = (
{
angle = 90;
locked = 1;
position = "{355, 490}";
}
);
layerId = "CFFEBDE4-599A-46B2-9328-D96E42CD9C81";
paths = (
{
closed = 1;
nodes = (
"314 338 LINE",
"328 235 OFFCURVE",
"331 170 OFFCURVE",
"331 55 CURVE SMOOTH",
"331 -33 OFFCURVE",
"326 -112 OFFCURVE",
"315 -192 CURVE",
"399 -203 LINE",
"413 -106 OFFCURVE",
"417 -32 OFFCURVE",
"417 56 CURVE SMOOTH",
"417 172 OFFCURVE",
"410 250 OFFCURVE",
"395 350 CURVE"
);
},
{
closed = 1;
nodes = (
"405 939 LINE",
"338 675 OFFCURVE",
"243 464 OFFCURVE",
"68 220 CURVE",
"139 172 LINE",
"313 416 OFFCURVE",
"417 635 OFFCURVE",
"489 920 CURVE"
);
},
{
closed = 1;
nodes = (
"211 599 OFFCURVE",
"419 448 OFFCURVE",
"570 301 CURVE",
"627 366 LINE",
"460 524 OFFCURVE",
"263 661 OFFCURVE",
"49 766 CURVE",
"13 688 LINE"
);
}
);
vertOrigin = 25;
vertWidth = 1362;
width = 616;
}
);
unicode = 1B17A;
},
{
glyphname = u1B17B;
lastChange = "2020-04-06 10:40:01 +0000";
layers = (
{
layerId = "CFFEBDE4-599A-46B2-9328-D96E42CD9C81";
paths = (
{
closed = 1;
nodes = (
"433 939 LINE",
"328 689 OFFCURVE",
"208 506 OFFCURVE",
"41 304 CURVE",
"108 250 LINE",
"273 448 OFFCURVE",
"405 651 OFFCURVE",
"514 909 CURVE"
);
},
{
closed = 1;
nodes = (
"76 831 LINE",
"280 490 OFFCURVE",
"423 155 OFFCURVE",
"536 -203 CURVE",
"618 -178 LINE",
"507 187 OFFCURVE",
"355 521 OFFCURVE",
"150 875 CURVE"
);
},
{
closed = 1;
nodes = (
"361 308 LINE",
"295 172 OFFCURVE",
"227 66 OFFCURVE",
"128 -65 CURVE",
"196 -118 LINE",
"290 6 OFFCURVE",
"357 110 OFFCURVE",
"426 265 CURVE"
);
}
);
vertOrigin = 25;
vertWidth = 1362;
width = 628;
}
);
unicode = 1B17B;
},
{
glyphname = u1B17C;
lastChange = "2020-04-06 10:42:58 +0000";
layers = (
{
layerId = "CFFEBDE4-599A-46B2-9328-D96E42CD9C81";
paths = (
{
closed = 1;
nodes = (
"120 495 LINE",
"256 296 OFFCURVE",
"369 105 OFFCURVE",
"486 -110 CURVE",
"561 -68 LINE",
"438 155 OFFCURVE",
"316 360 OFFCURVE",
"169 577 CURVE",
"181 499 LINE",
"258 640 OFFCURVE",
"313 752 OFFCURVE",
"373 910 CURVE",
"292 939 LINE",
"233 789 OFFCURVE",
"184 682 OFFCURVE",
"120 566 CURVE"
);
},
{
closed = 1;
nodes = (
"364 709 OFFCURVE",
"390 632 OFFCURVE",
"390 536 CURVE SMOOTH",
"390 362 OFFCURVE",
"341 213 OFFCURVE",
"73 -153 CURVE",
"143 -203 LINE",
"408 153 OFFCURVE",
"476 354 OFFCURVE",
"476 536 CURVE SMOOTH",
"476 662 OFFCURVE",
"436 766 OFFCURVE",
"331 889 CURVE",
"296 803 LINE"
);
}
);
vertOrigin = 25;
vertWidth = 1362;
width = 547;
}
);
unicode = 1B17C;
},
{
glyphname = u1B17D;
lastChange = "2020-04-06 10:46:15 +0000";
layers = (
{
background = {
paths = (
{
closed = 1;
nodes = (
"268 383 LINE",
"327 247 OFFCURVE",
"357 138 OFFCURVE",
"357 -4 CURVE SMOOTH",
"357 -91 OFFCURVE",
"347 -177 OFFCURVE",
"327 -277 CURVE",
"410 -293 LINE",
"435 -184 OFFCURVE",
"443 -95 OFFCURVE",
"443 -11 CURVE SMOOTH",
"443 182 OFFCURVE",
"394 322 OFFCURVE",
"284 525 CURVE"
);
},
{
closed = 1;
nodes = (
"238 832 OFFCURVE",
"244 751 OFFCURVE",
"244 639 CURVE SMOOTH",
"244 402 OFFCURVE",
"171 232 OFFCURVE",
"10 40 CURVE",
"72 -10 LINE",
"251 192 OFFCURVE",
"330 383 OFFCURVE",
"330 652 CURVE SMOOTH",
"330 765 OFFCURVE",
"320 855 OFFCURVE",
"308 939 CURVE",
"224 930 LINE"
);
}
);
};
layerId = "CFFEBDE4-599A-46B2-9328-D96E42CD9C81";
paths = (
{
closed = 1;
nodes = (
"317 929 LINE",
"292 536 OFFCURVE",
"204 306 OFFCURVE",
"17 95 CURVE",
"80 37 LINE",
"275 256 OFFCURVE",
"374 494 OFFCURVE",
"403 922 CURVE"
);
},
{
closed = 1;
nodes = (
"628 279 OFFCURVE",
"651 296 OFFCURVE",
"651 335 CURVE SMOOTH",
"651 374 OFFCURVE",
"628 391 OFFCURVE",
"600 391 CURVE SMOOTH",
"571 391 OFFCURVE",
"548 374 OFFCURVE",
"548 335 CURVE SMOOTH",
"548 296 OFFCURVE",
"571 279 OFFCURVE",
"600 279 CURVE SMOOTH"
);
},
{
closed = 1;
nodes = (
"278 504 LINE",
"345 334 OFFCURVE",
"362 220 OFFCURVE",
"362 54 CURVE SMOOTH",
"362 -39 OFFCURVE",
"356 -113 OFFCURVE",
"348 -196 CURVE",
"433 -203 LINE",
"442 -122 OFFCURVE",
"448 -41 OFFCURVE",
"448 52 CURVE SMOOTH",
"448 220 OFFCURVE",
"427 363 OFFCURVE",
"344 549 CURVE"
);
}
);
vertOrigin = 25;
vertWidth = 1362;
width = 641;
}
);
unicode = 1B17D;
},
{
glyphname = u1B17E;
lastChange = "2020-04-06 10:48:26 +0000";
layers = (
{
layerId = "CFFEBDE4-599A-46B2-9328-D96E42CD9C81";
paths = (
{
closed = 1;
nodes = (
"403 939 LINE",
"312 789 OFFCURVE",
"203 669 OFFCURVE",
"76 550 CURVE",
"116 401 OFFCURVE",
"127 287 OFFCURVE",
"127 175 CURVE SMOOTH",
"127 27 OFFCURVE",
"111 -63 OFFCURVE",
"76 -181 CURVE",
"157 -203 LINE",
"197 -77 OFFCURVE",
"213 27 OFFCURVE",
"213 175 CURVE SMOOTH",
"213 308 OFFCURVE",
"201 414 OFFCURVE",
"161 568 CURVE",
"154 507 LINE",
"276 621 OFFCURVE",
"385 740 OFFCURVE",
"479 898 CURVE"
);
},
{
closed = 1;
nodes = (
"514 315 LINE",
"486 492 OFFCURVE",
"446 611 OFFCURVE",
"359 777 CURVE",
"307 702 LINE",
"375 557 OFFCURVE",
"405 461 OFFCURVE",
"429 304 CURVE"
);
}
);
vertOrigin = 25;
vertWidth = 1362;
width = 554;
}
);
unicode = 1B17E;
},
{
glyphname = u1B17F;
lastChange = "2020-04-06 10:49:00 +0000";
layers = (
{
layerId = "CFFEBDE4-599A-46B2-9328-D96E42CD9C81";
paths = (
{
closed = 1;
nodes = (
"100 274 OFFCURVE",
"123 291 OFFCURVE",
"123 330 CURVE SMOOTH",
"123 369 OFFCURVE",
"100 386 OFFCURVE",
"72 386 CURVE SMOOTH",
"43 386 OFFCURVE",
"20 369 OFFCURVE",
"20 330 CURVE SMOOTH",
"20 291 OFFCURVE",
"43 274 OFFCURVE",
"72 274 CURVE SMOOTH"
);
},
{
closed = 1;
nodes = (
"577 12 OFFCURVE",
"600 29 OFFCURVE",
"600 68 CURVE SMOOTH",
"600 107 OFFCURVE",
"577 124 OFFCURVE",
"549 124 CURVE SMOOTH",
"520 124 OFFCURVE",
"497 107 OFFCURVE",
"497 68 CURVE SMOOTH",
"497 29 OFFCURVE",
"520 12 OFFCURVE",
"549 12 CURVE SMOOTH"
);
},
{
closed = 1;
nodes = (
"337 939 LINE",
"336 478 OFFCURVE",
"251 97 OFFCURVE",
"114 -165 CURVE",
"191 -203 LINE",
"330 61 OFFCURVE",
"420 443 OFFCURVE",
"423 938 CURVE"
);
}
);
vertOrigin = 25;
vertWidth = 1362;
width = 620;
}
);
unicode = 1B17F;
},
{
glyphname = u1B180;
lastChange = "2020-04-06 12:58:03 +0000";
layers = (
{
background = {
paths = (
{
closed = 1;
nodes = (
"177 446 LINE",
"256 299 OFFCURVE",
"320 174 OFFCURVE",
"379 23 CURVE",
"452 66 LINE",
"389 225 OFFCURVE",
"320 364 OFFCURVE",
"230 523 CURVE"
);
},
{
closed = 1;
nodes = (
"371 939 LINE",
"267 643 OFFCURVE",
"138 406 OFFCURVE",
"10 192 CURVE",
"82 145 LINE",
"211 350 OFFCURVE",
"349 624 OFFCURVE",
"454 916 CURVE"
);
},
{
closed = 1;
nodes = (
"531 412 LINE",
"447 213 OFFCURVE",
"341 17 OFFCURVE",
"220 -146 CURVE",
"290 -196 LINE",
"426 -7 OFFCURVE",
"515 160 OFFCURVE",
"609 375 CURVE"
);
}
);
};
layerId = "CFFEBDE4-599A-46B2-9328-D96E42CD9C81";
paths = (
{
closed = 1;
nodes = (
"518 68 LINE",
"387 323 OFFCURVE",
"263 531 OFFCURVE",
"92 780 CURVE",
"21 731 LINE",
"189 490 OFFCURVE",
"318 273 OFFCURVE",
"441 30 CURVE"
);
},
{
closed = 1;
nodes = (
"428 939 LINE",
"326 613 OFFCURVE",
"205 339 OFFCURVE",
"60 92 CURVE",
"134 49 LINE",
"275 287 OFFCURVE",
"403 572 OFFCURVE",
"511 916 CURVE"
);
},
{
closed = 1;
nodes = (
"599 408 LINE",
"515 209 OFFCURVE",
"410 5 OFFCURVE",
"306 -158 CURVE",
"379 -203 LINE",
"498 -14 OFFCURVE",
"585 160 OFFCURVE",
"679 375 CURVE"
);
}
);
vertOrigin = 30;
vertWidth = 1362;
width = 689;
}
);
unicode = 1B180;
},
{
glyphname = u1B181;
lastChange = "2020-04-06 11:08:02 +0000";
layers = (
{
layerId = "CFFEBDE4-599A-46B2-9328-D96E42CD9C81";
paths = (
{
closed = 1;
nodes = (
"92 344 LINE",
"230 170 OFFCURVE",
"358 -24 OFFCURVE",
"447 -203 CURVE",
"524 -165 LINE",
"422 32 OFFCURVE",
"295 225 OFFCURVE",
"146 415 CURVE",
"148 343 LINE",
"300 554 OFFCURVE",
"387 696 OFFCURVE",
"476 907 CURVE",
"396 939 LINE",
"312 736 OFFCURVE",
"222 588 OFFCURVE",
"92 415 CURVE"
);
},
{
closed = 1;
nodes = (
"338 596 OFFCURVE",
"390 488 OFFCURVE",
"390 380 CURVE SMOOTH",
"390 244 OFFCURVE",
"329 137 OFFCURVE",
"91 -98 CURVE",
"152 -158 LINE",
"384 69 OFFCURVE",
"476 205 OFFCURVE",
"476 380 CURVE SMOOTH",
"476 524 OFFCURVE",
"403 648 OFFCURVE",
"136 854 CURVE",
"83 786 LINE"
);
}
);
vertOrigin = 25;
vertWidth = 1362;
width = 517;
}
);
unicode = 1B181;
},
{
glyphname = u1B182;
lastChange = "2020-04-06 12:33:15 +0000";
layers = (
{
background = {
paths = (
{
closed = 1;
nodes = (
"120 495 LINE",
"256 296 OFFCURVE",
"369 105 OFFCURVE",
"486 -110 CURVE",
"561 -68 LINE",
"438 155 OFFCURVE",
"316 360 OFFCURVE",
"169 577 CURVE",
"181 499 LINE",
"258 640 OFFCURVE",
"313 752 OFFCURVE",
"373 910 CURVE",
"292 939 LINE",
"233 789 OFFCURVE",
"184 682 OFFCURVE",
"120 566 CURVE"
);
},
{
closed = 1;
nodes = (
"364 709 OFFCURVE",
"390 632 OFFCURVE",
"390 536 CURVE SMOOTH",
"390 362 OFFCURVE",
"341 213 OFFCURVE",
"73 -153 CURVE",
"143 -203 LINE",
"408 153 OFFCURVE",
"476 354 OFFCURVE",
"476 536 CURVE SMOOTH",
"476 662 OFFCURVE",
"436 766 OFFCURVE",
"331 889 CURVE",
"296 803 LINE"
);
}
);
};
layerId = "CFFEBDE4-599A-46B2-9328-D96E42CD9C81";
paths = (
{
closed = 1;
nodes = (
"190 473 LINE",
"281 609 OFFCURVE",
"340 719 OFFCURVE",
"414 910 CURVE",
"333 939 LINE",
"267 766 OFFCURVE",
"205 645 OFFCURVE",
"133 542 CURVE"
);
},
{
closed = 1;
nodes = (
"369 706 OFFCURVE",
"390 631 OFFCURVE",
"390 521 CURVE SMOOTH",
"390 342 OFFCURVE",
"315 175 OFFCURVE",
"76 -155 CURVE",
"147 -203 LINE",
"401 146 OFFCURVE",
"476 327 OFFCURVE",
"476 521 CURVE SMOOTH",
"476 653 OFFCURVE",
"441 758 OFFCURVE",
"350 869 CURVE",
"292 820 LINE"
);
},
{
closed = 1;
nodes = (
"17 644 LINE",
"202 356 OFFCURVE",
"333 137 OFFCURVE",
"456 -105 CURVE",
"532 -65 LINE",
"403 191 OFFCURVE",
"276 398 OFFCURVE",
"89 692 CURVE"
);
}
);
vertOrigin = 25;
vertWidth = 1362;
width = 562;
}
);
unicode = 1B182;
},
{
glyphname = u1B183;
lastChange = "2020-04-06 11:11:27 +0000";
layers = (
{
background = {
paths = (
{
closed = 1;
nodes = (
"518 68 LINE",
"387 323 OFFCURVE",
"263 531 OFFCURVE",
"92 780 CURVE",
"21 731 LINE",
"189 490 OFFCURVE",
"318 273 OFFCURVE",
"441 30 CURVE"
);
},
{
closed = 1;
nodes = (
"428 939 LINE",
"324 628 OFFCURVE",
"189 339 OFFCURVE",
"30 92 CURVE",
"102 45 LINE",
"257 283 OFFCURVE",
"401 587 OFFCURVE",
"511 916 CURVE"
);
},
{
closed = 1;
nodes = (
"599 408 LINE",
"515 209 OFFCURVE",
"410 5 OFFCURVE",
"306 -158 CURVE",
"379 -203 LINE",
"498 -14 OFFCURVE",
"585 160 OFFCURVE",
"679 375 CURVE"
);
}
);
};
layerId = "CFFEBDE4-599A-46B2-9328-D96E42CD9C81";
paths = (
{
closed = 1;
nodes = (
"213 435 LINE",
"301 293 OFFCURVE",
"372 173 OFFCURVE",
"440 25 CURVE",
"511 72 LINE",
"438 227 OFFCURVE",
"361 362 OFFCURVE",
"261 515 CURVE"
);
},
{
closed = 1;
nodes = (
"401 939 LINE",
"297 643 OFFCURVE",
"148 326 OFFCURVE",
"20 112 CURVE",
"94 69 LINE",
"222 277 OFFCURVE",
"379 621 OFFCURVE",
"484 916 CURVE"
);
},
{
closed = 1;
nodes = (
"600 406 LINE",
"516 207 OFFCURVE",
"407 3 OFFCURVE",
"298 -156 CURVE",
"370 -203 LINE",
"494 -18 OFFCURVE",
"585 158 OFFCURVE",
"679 373 CURVE"
);
}
);
vertOrigin = 24;
vertWidth = 1362;
width = 679;
}
);
unicode = 1B183;
},
{
glyphname = u1B184;
lastChange = "2020-04-06 11:12:19 +0000";
layers = (
{
layerId = "CFFEBDE4-599A-46B2-9328-D96E42CD9C81";
paths = (
{
closed = 1;
nodes = (
"267 -62 OFFCURVE",
"290 -45 OFFCURVE",
"290 -6 CURVE SMOOTH",
"290 33 OFFCURVE",
"267 50 OFFCURVE",
"239 50 CURVE SMOOTH",
"210 50 OFFCURVE",
"187 33 OFFCURVE",
"187 -6 CURVE SMOOTH",
"187 -45 OFFCURVE",
"210 -62 OFFCURVE",
"239 -62 CURVE SMOOTH"
);
},
{
closed = 1;
nodes = (
"317 929 LINE",
"292 536 OFFCURVE",
"194 306 OFFCURVE",
"-3 95 CURVE",
"60 37 LINE",
"265 256 OFFCURVE",
"374 494 OFFCURVE",
"403 922 CURVE"
);
},
{
closed = 1;
nodes = (
"278 504 LINE",
"366 334 OFFCURVE",
"396 220 OFFCURVE",
"396 22 CURVE SMOOTH",
"396 -59 OFFCURVE",
"393 -113 OFFCURVE",
"385 -196 CURVE",
"470 -203 LINE",
"479 -122 OFFCURVE",
"482 -61 OFFCURVE",
"482 20 CURVE SMOOTH",
"482 220 OFFCURVE",
"448 363 OFFCURVE",
"330 581 CURVE"
);
}
);
vertOrigin = 25;
vertWidth = 1362;
width = 571;
}
);
unicode = 1B184;
},
{
glyphname = u1B185;
lastChange = "2020-04-06 11:53:26 +0000";
layers = (
{
layerId = "CFFEBDE4-599A-46B2-9328-D96E42CD9C81";
paths = (
{
closed = 1;
nodes = (
"308 939 LINE",
"253 678 OFFCURVE",
"183 519 OFFCURVE",
"43 334 CURVE",
"111 282 LINE",
"250 456 OFFCURVE",
"335 655 OFFCURVE",
"393 924 CURVE"
);
},
{
closed = 1;
nodes = (
"317 784 LINE",
"415 646 OFFCURVE",
"504 509 OFFCURVE",
"595 320 CURVE",
"672 357 LINE",
"576 559 OFFCURVE",
"486 699 OFFCURVE",
"361 854 CURVE"
);
},
{
closed = 1;
nodes = (
"323 428 LINE",
"338 312 OFFCURVE",
"343 213 OFFCURVE",
"343 97 CURVE SMOOTH",
"343 -7 OFFCURVE",
"338 -95 OFFCURVE",
"322 -190 CURVE",
"406 -203 LINE",
"422 -106 OFFCURVE",
"429 -6 OFFCURVE",
"429 98 CURVE SMOOTH",
"429 221 OFFCURVE",
"422 321 OFFCURVE",
"404 439 CURVE"
);
}
);
vertOrigin = 25;
vertWidth = 1362;
width = 702;
}
);
unicode = 1B185;
},
{
glyphname = u1B186;
lastChange = "2020-04-06 11:56:09 +0000";
layers = (
{
background = {
paths = (
{
closed = 1;
nodes = (
"297 939 LINE",
"238 765 OFFCURVE",
"168 639 OFFCURVE",
"60 520 CURVE",
"100 371 OFFCURVE",
"111 254 OFFCURVE",
"111 135 CURVE SMOOTH",
"111 -3 OFFCURVE",
"89 -128 OFFCURVE",
"43 -269 CURVE",
"119 -293 LINE",
"165 -143 OFFCURVE",
"191 -24 OFFCURVE",
"191 145 CURVE SMOOTH",
"191 271 OFFCURVE",
"176 388 OFFCURVE",
"138 538 CURVE",
"133 478 LINE",
"237 592 OFFCURVE",
"315 734 OFFCURVE",
"377 916 CURVE"
);
},
{
closed = 1;
nodes = (
"437 216 LINE",
"426 432 OFFCURVE",
"377 602 OFFCURVE",
"293 777 CURVE",
"250 673 LINE",
"308 540 OFFCURVE",
"343 386 OFFCURVE",
"353 204 CURVE"
);
}
);
};
layerId = "CFFEBDE4-599A-46B2-9328-D96E42CD9C81";
paths = (
{
closed = 1;
nodes = (
"151 593 OFFCURVE",
"181 425 OFFCURVE",
"181 266 CURVE SMOOTH",
"181 89 OFFCURVE",
"163 -33 OFFCURVE",
"121 -179 CURVE",
"201 -203 LINE",
"246 -56 OFFCURVE",
"265 75 OFFCURVE",
"265 266 CURVE SMOOTH",
"265 446 OFFCURVE",
"230 616 OFFCURVE",
"148 789 CURVE",
"71 756 LINE"
);
},
{
closed = 1;
nodes = (
"456 678 OFFCURVE",
"347 501 OFFCURVE",
"201 348 CURVE",
"236 271 LINE",
"418 461 OFFCURVE",
"521 611 OFFCURVE",
"607 917 CURVE",
"524 939 LINE"
);
},
{
closed = 1;
nodes = (
"404 579 LINE",
"476 438 OFFCURVE",
"520 296 OFFCURVE",
"545 134 CURVE",
"630 148 LINE",
"601 335 OFFCURVE",
"547 484 OFFCURVE",
"457 643 CURVE"
);
}
);
vertOrigin = 25;
vertWidth = 1362;
width = 670;
}
);
unicode = 1B186;
},
{
glyphname = u1B187;
lastChange = "2020-04-06 11:57:31 +0000";
layers = (
{
background = {
paths = (
{
closed = 1;
nodes = (
"229 597 LINE",
"308 404 OFFCURVE",
"347 240 OFFCURVE",
"347 17 CURVE SMOOTH",
"347 -98 OFFCURVE",
"342 -193 OFFCURVE",
"330 -286 CURVE",
"415 -293 LINE",
"426 -198 OFFCURVE",
"433 -100 OFFCURVE",
"433 27 CURVE SMOOTH",
"433 233 OFFCURVE",
"384 458 OFFCURVE",
"285 665 CURVE"
);
},
{
closed = 1;
nodes = (
"397 939 LINE",
"303 732 OFFCURVE",
"173 545 OFFCURVE",
"20 396 CURVE",
"79 334 LINE",
"236 485 OFFCURVE",
"372 671 OFFCURVE",
"477 909 CURVE"
);
},
{
closed = 1;
nodes = (
"529 649 LINE",
"414 446 OFFCURVE",
"282 286 OFFCURVE",
"85 115 CURVE",
"140 50 LINE",
"340 218 OFFCURVE",
"474 387 OFFCURVE",
"605 607 CURVE"
);
}
);
};
layerId = "CFFEBDE4-599A-46B2-9328-D96E42CD9C81";
paths = (
{
closed = 1;
nodes = (
"455 -203 LINE",
"468 -104 OFFCURVE",
"473 -24 OFFCURVE",
"473 78 CURVE SMOOTH",
"473 392 OFFCURVE",
"377 654 OFFCURVE",
"221 901 CURVE",
"148 856 LINE",
"303 613 OFFCURVE",
"387 384 OFFCURVE",
"387 78 CURVE SMOOTH",
"387 -20 OFFCURVE",
"383 -102 OFFCURVE",
"370 -196 CURVE"
);
},
{
closed = 1;
nodes = (
"462 939 LINE",
"349 726 OFFCURVE",
"221 557 OFFCURVE",
"72 407 CURVE",
"133 346 LINE",
"298 516 OFFCURVE",
"414 670 OFFCURVE",
"540 902 CURVE"
);
},
{
closed = 1;
nodes = (
"592 669 LINE",
"471 473 OFFCURVE",
"323 296 OFFCURVE",
"145 139 CURVE",
"202 75 LINE",
"376 228 OFFCURVE",
"539 417 OFFCURVE",
"665 623 CURVE"
);
}
);
vertOrigin = 25;
vertWidth = 1362;
width = 673;
}
);
unicode = 1B187;
},
{
glyphname = u1B188;
lastChange = "2020-04-06 11:57:42 +0000";
layers = (
{
background = {
paths = (
{
closed = 1;
nodes = (
"664 795 LINE",
"602 379 OFFCURVE",
"492 88 OFFCURVE",
"345 -168 CURVE",
"395 -179 LINE",
"333 12 OFFCURVE",
"276 147 OFFCURVE",
"187 304 CURVE",
"113 261 LINE",
"199 103 OFFCURVE",
"250 -5 OFFCURVE",
"316 -203 CURVE",
"416 -213 LINE",
"561 36 OFFCURVE",
"680 318 OFFCURVE",
"749 784 CURVE"
);
},
{
closed = 1;
nodes = (
"80 -101 OFFCURVE",
"103 -84 OFFCURVE",
"103 -45 CURVE SMOOTH",
"103 -6 OFFCURVE",
"80 11 OFFCURVE",
"52 11 CURVE SMOOTH",
"23 11 OFFCURVE",
"0 -6 OFFCURVE",
"0 -45 CURVE SMOOTH",
"0 -84 OFFCURVE",
"23 -101 OFFCURVE",
"52 -101 CURVE SMOOTH"
);
},
{
closed = 1;
nodes = (
"408 299 OFFCURVE",
"431 316 OFFCURVE",
"431 355 CURVE SMOOTH",
"431 394 OFFCURVE",
"408 411 OFFCURVE",
"380 411 CURVE SMOOTH",
"351 411 OFFCURVE",
"328 394 OFFCURVE",
"328 355 CURVE SMOOTH",
"328 316 OFFCURVE",
"351 299 OFFCURVE",
"380 299 CURVE SMOOTH"
);
}
);
};
layerId = "CFFEBDE4-599A-46B2-9328-D96E42CD9C81";
paths = (
{
closed = 1;
nodes = (
"634 895 LINE",
"572 479 OFFCURVE",
"492 188 OFFCURVE",
"365 -68 CURVE",
"415 -79 LINE",
"353 112 OFFCURVE",
"296 247 OFFCURVE",
"207 404 CURVE",
"133 361 LINE",
"219 203 OFFCURVE",
"270 95 OFFCURVE",
"336 -103 CURVE",
"436 -113 LINE",
"561 136 OFFCURVE",
"650 418 OFFCURVE",
"719 884 CURVE"
);
},
{
closed = 1;
nodes = (
"100 -1 OFFCURVE",
"123 16 OFFCURVE",
"123 55 CURVE SMOOTH",
"123 94 OFFCURVE",
"100 111 OFFCURVE",
"72 111 CURVE SMOOTH",
"43 111 OFFCURVE",
"20 94 OFFCURVE",
"20 55 CURVE SMOOTH",
"20 16 OFFCURVE",
"43 -1 OFFCURVE",
"72 -1 CURVE SMOOTH"
);
}
);
vertOrigin = 24;
vertWidth = 1362;
width = 759;
}
);
unicode = 1B188;
},
{
glyphname = u1B189;
lastChange = "2020-04-06 12:00:46 +0000";
layers = (
{
background = {
paths = (
{
closed = 1;
nodes = (
"455 -203 LINE",
"468 -104 OFFCURVE",
"473 -24 OFFCURVE",
"473 78 CURVE SMOOTH",
"473 392 OFFCURVE",
"377 654 OFFCURVE",
"221 901 CURVE",
"148 856 LINE",
"303 613 OFFCURVE",
"387 384 OFFCURVE",
"387 78 CURVE SMOOTH",
"387 -20 OFFCURVE",
"383 -102 OFFCURVE",
"370 -196 CURVE"
);
},
{
closed = 1;
nodes = (
"462 939 LINE",
"349 726 OFFCURVE",
"221 557 OFFCURVE",
"72 407 CURVE",
"133 346 LINE",
"298 516 OFFCURVE",
"414 670 OFFCURVE",
"540 902 CURVE"
);
},
{
closed = 1;
nodes = (
"592 669 LINE",
"471 473 OFFCURVE",
"323 296 OFFCURVE",
"145 139 CURVE",
"202 75 LINE",
"376 228 OFFCURVE",
"539 417 OFFCURVE",
"665 623 CURVE"
);
}
);
};
layerId = "CFFEBDE4-599A-46B2-9328-D96E42CD9C81";
paths = (
{
closed = 1;
nodes = (
"273 636 LINE",
"353 452 OFFCURVE",
"387 276 OFFCURVE",
"387 63 CURVE SMOOTH",
"387 -28 OFFCURVE",
"382 -103 OFFCURVE",
"370 -196 CURVE",
"455 -203 LINE",
"466 -108 OFFCURVE",
"473 -30 OFFCURVE",
"473 73 CURVE SMOOTH",
"473 269 OFFCURVE",
"434 500 OFFCURVE",
"329 704 CURVE"
);
},
{
closed = 1;
nodes = (
"457 939 LINE",
"343 743 OFFCURVE",
"212 578 OFFCURVE",
"40 426 CURVE",
"99 364 LINE",
"268 516 OFFCURVE",
"416 695 OFFCURVE",
"532 897 CURVE"
);
},
{
closed = 1;
nodes = (
"604 662 LINE",
"465 452 OFFCURVE",
"326 302 OFFCURVE",
"143 156 CURVE",
"197 89 LINE",
"376 232 OFFCURVE",
"528 390 OFFCURVE",
"676 614 CURVE"
);
}
);
vertOrigin = 25;
vertWidth = 1362;
width = 665;
}
);
unicode = 1B189;
},
{
glyphname = u1B18A;
lastChange = "2020-04-06 12:05:48 +0000";
layers = (
{
background = {
paths = (
{
closed = 1;
nodes = (
"450 271 LINE",
"378 93 OFFCURVE",
"280 -29 OFFCURVE",
"159 -144 CURVE",
"219 -203 LINE",
"344 -84 OFFCURVE",
"448 46 OFFCURVE",
"528 239 CURVE"
);
},
{
closed = 1;
nodes = (
"337 939 LINE",
"336 478 OFFCURVE",
"252 274 OFFCURVE",
"40 59 CURVE",
"102 0 LINE",
"316 217 OFFCURVE",
"420 432 OFFCURVE",
"423 938 CURVE"
);
}
);
};
layerId = "CFFEBDE4-599A-46B2-9328-D96E42CD9C81";
paths = (
{
closed = 1;
nodes = (
"382 342 LINE",
"301 204 OFFCURVE",
"218 120 OFFCURVE",
"93 26 CURVE",
"141 -40 LINE",
"271 57 OFFCURVE",
"361 149 OFFCURVE",
"452 299 CURVE"
);
},
{
closed = 1;
nodes = (
"479 160 LINE",
"389 29 OFFCURVE",
"297 -56 OFFCURVE",
"182 -136 CURVE",
"229 -203 LINE",
"351 -117 OFFCURVE",
"455 -22 OFFCURVE",
"546 114 CURVE"
);
},
{
closed = 1;
nodes = (
"337 939 LINE",
"306 571 OFFCURVE",
"246 405 OFFCURVE",
"3 190 CURVE",
"58 127 LINE",
"303 344 OFFCURVE",
"390 520 OFFCURVE",
"423 933 CURVE"
);
}
);
vertOrigin = 25;
vertWidth = 1362;
width = 602;
}
);
unicode = 1B18A;
},
{
glyphname = u1B18B;
lastChange = "2020-04-06 12:08:07 +0000";
layers = (
{
layerId = "CFFEBDE4-599A-46B2-9328-D96E42CD9C81";
paths = (
{
closed = 1;
nodes = (
"516 733 LINE",
"452 630 OFFCURVE",
"395 562 OFFCURVE",
"303 478 CURVE",
"329 376 OFFCURVE",
"341 287 OFFCURVE",
"341 178 CURVE SMOOTH",
"341 83 OFFCURVE",
"335 23 OFFCURVE",
"326 -35 CURVE",
"409 -46 LINE",
"422 24 OFFCURVE",
"427 96 OFFCURVE",
"427 179 CURVE SMOOTH",
"427 287 OFFCURVE",
"415 380 OFFCURVE",
"382 497 CURVE",
"376 430 LINE",
"456 503 OFFCURVE",
"522 582 OFFCURVE",
"588 690 CURVE"
);
},
{
closed = 1;
nodes = (
"403 939 LINE",
"312 789 OFFCURVE",
"203 669 OFFCURVE",
"76 550 CURVE",
"116 401 OFFCURVE",
"127 287 OFFCURVE",
"127 175 CURVE SMOOTH",
"127 27 OFFCURVE",
"111 -63 OFFCURVE",
"76 -181 CURVE",
"157 -203 LINE",
"197 -77 OFFCURVE",
"213 27 OFFCURVE",
"213 175 CURVE SMOOTH",
"213 308 OFFCURVE",
"201 414 OFFCURVE",
"161 568 CURVE",
"154 507 LINE",
"276 621 OFFCURVE",
"385 740 OFFCURVE",
"479 898 CURVE"
);
}
);
vertOrigin = 25;
vertWidth = 1362;
width = 574;
}
);
unicode = 1B18B;
},
{
glyphname = u1B18C;
lastChange = "2020-04-06 12:08:50 +0000";
layers = (
{
layerId = "CFFEBDE4-599A-46B2-9328-D96E42CD9C81";
paths = (
{
closed = 1;
nodes = (
"621 558 OFFCURVE",
"644 575 OFFCURVE",
"644 614 CURVE SMOOTH",
"644 653 OFFCURVE",
"621 670 OFFCURVE",
"593 670 CURVE SMOOTH",
"564 670 OFFCURVE",
"541 653 OFFCURVE",
"541 614 CURVE SMOOTH",
"541 575 OFFCURVE",
"564 558 OFFCURVE",
"593 558 CURVE SMOOTH"
);
},
{
closed = 1;
nodes = (
"60 156 OFFCURVE",
"83 173 OFFCURVE",
"83 212 CURVE SMOOTH",
"83 251 OFFCURVE",
"60 268 OFFCURVE",
"32 268 CURVE SMOOTH",
"3 268 OFFCURVE",
"-20 251 OFFCURVE",
"-20 212 CURVE SMOOTH",
"-20 173 OFFCURVE",
"3 156 OFFCURVE",
"32 156 CURVE SMOOTH"
);
},
{
closed = 1;
nodes = (
"146 522 OFFCURVE",
"182 371 OFFCURVE",
"182 202 CURVE SMOOTH",
"182 69 OFFCURVE",
"158 -50 OFFCURVE",
"103 -174 CURVE",
"180 -203 LINE",
"244 -65 OFFCURVE",
"266 56 OFFCURVE",
"266 202 CURVE SMOOTH",
"266 390 OFFCURVE",
"233 535 OFFCURVE",
"147 741 CURVE",
"70 707 LINE"
);
},
{
closed = 1;
nodes = (
"481 279 OFFCURVE",
"436 415 OFFCURVE",
"436 579 CURVE SMOOTH",
"436 692 OFFCURVE",
"447 794 OFFCURVE",
"478 923 CURVE",
"396 939 LINE",
"366 812 OFFCURVE",
"352 710 OFFCURVE",
"352 594 CURVE SMOOTH",
"352 405 OFFCURVE",
"401 241 OFFCURVE",
"509 90 CURVE",
"575 139 LINE"
);
}
);
vertOrigin = 25;
vertWidth = 1362;
width = 685;
}
);
unicode = 1B18C;
},
{
glyphname = u1B18D;
lastChange = "2020-04-06 12:09:40 +0000";
layers = (
{
background = {
paths = (
{
closed = 1;
nodes = (
"393 939 LINE",
"310 765 OFFCURVE",
"213 639 OFFCURVE",
"86 520 CURVE",
"126 371 OFFCURVE",
"137 254 OFFCURVE",
"137 135 CURVE SMOOTH",
"137 -3 OFFCURVE",
"115 -128 OFFCURVE",
"69 -269 CURVE",
"145 -293 LINE",
"191 -143 OFFCURVE",
"217 -24 OFFCURVE",
"217 145 CURVE SMOOTH",
"217 271 OFFCURVE",
"202 388 OFFCURVE",
"164 538 CURVE",
"159 478 LINE",
"282 592 OFFCURVE",
"381 725 OFFCURVE",
"467 907 CURVE"
);
},
{
closed = 1;
nodes = (
"504 243 LINE",
"485 459 OFFCURVE",
"436 602 OFFCURVE",
"349 777 CURVE",
"306 673 LINE",
"367 540 OFFCURVE",
"401 416 OFFCURVE",
"419 234 CURVE"
);
}
);
};
layerId = "CFFEBDE4-599A-46B2-9328-D96E42CD9C81";
paths = (
{
closed = 1;
nodes = (
"448 278 LINE",
"437 350 OFFCURVE",
"410 428 OFFCURVE",
"384 490 CURVE",
"310 459 LINE",
"341 384 OFFCURVE",
"368 316 OFFCURVE",
"392 221 CURVE",
"481 218 LINE",
"545 308 OFFCURVE",
"567 394 OFFCURVE",
"567 476 CURVE SMOOTH",
"567 590 OFFCURVE",
"522 705 OFFCURVE",
"368 851 CURVE",
"327 779 LINE",
"451 644 OFFCURVE",
"481 568 OFFCURVE",
"481 470 CURVE SMOOTH",
"481 402 OFFCURVE",
"462 332 OFFCURVE",
"434 269 CURVE"
);
},
{
closed = 1;
nodes = (
"403 939 LINE",
"312 789 OFFCURVE",
"203 669 OFFCURVE",
"76 550 CURVE",
"116 401 OFFCURVE",
"127 287 OFFCURVE",
"127 175 CURVE SMOOTH",
"127 27 OFFCURVE",
"111 -63 OFFCURVE",
"76 -181 CURVE",
"157 -203 LINE",
"197 -77 OFFCURVE",
"213 27 OFFCURVE",
"213 175 CURVE SMOOTH",
"213 308 OFFCURVE",
"201 414 OFFCURVE",
"161 568 CURVE",
"154 507 LINE",
"276 621 OFFCURVE",
"385 740 OFFCURVE",
"479 898 CURVE"
);
}
);
vertOrigin = 25;
vertWidth = 1362;
width = 597;
}
);
unicode = 1B18D;
},
{
glyphname = u1B18E;
lastChange = "2020-04-06 12:12:35 +0000";
layers = (
{
background = {
paths = (
{
closed = 1;
nodes = (
"433 939 LINE",
"328 689 OFFCURVE",
"208 506 OFFCURVE",
"41 304 CURVE",
"108 250 LINE",
"273 448 OFFCURVE",
"405 651 OFFCURVE",
"514 909 CURVE"
);
},
{
closed = 1;
nodes = (
"76 831 LINE",
"280 490 OFFCURVE",
"423 155 OFFCURVE",
"536 -203 CURVE",
"618 -178 LINE",
"507 187 OFFCURVE",
"355 521 OFFCURVE",
"150 875 CURVE"
);
},
{
closed = 1;
nodes = (
"361 308 LINE",
"295 172 OFFCURVE",
"227 66 OFFCURVE",
"128 -65 CURVE",
"196 -118 LINE",
"290 6 OFFCURVE",
"357 110 OFFCURVE",
"426 265 CURVE"
);
}
);
};
layerId = "CFFEBDE4-599A-46B2-9328-D96E42CD9C81";
paths = (
{
closed = 1;
nodes = (
"323 109 LINE",
"300 8 OFFCURVE",
"277 -79 OFFCURVE",
"240 -180 CURVE",
"319 -203 LINE",
"356 -104 OFFCURVE",
"380 -11 OFFCURVE",
"402 92 CURVE"
);
},
{
closed = 1;
nodes = (
"437 939 LINE",
"328 739 OFFCURVE",
"203 566 OFFCURVE",
"20 374 CURVE",
"82 314 LINE",
"259 501 OFFCURVE",
"392 678 OFFCURVE",
"515 902 CURVE"
);
},
{
closed = 1;
nodes = (
"72 824 LINE",
"307 463 OFFCURVE",
"436 194 OFFCURVE",
"576 -153 CURVE",
"655 -120 LINE",
"507 254 OFFCURVE",
"372 510 OFFCURVE",
"143 874 CURVE"
);
},
{
closed = 1;
nodes = (
"346 448 LINE",
"258 301 OFFCURVE",
"191 196 OFFCURVE",
"72 60 CURVE",
"138 5 LINE",
"247 135 OFFCURVE",
"323 245 OFFCURVE",
"409 408 CURVE"
);
}
);
vertOrigin = 25;
vertWidth = 1362;
width = 735;
}
);
unicode = 1B18E;
},
{
glyphname = u1B18F;
lastChange = "2020-04-06 12:12:53 +0000";
layers = (
{
layerId = "CFFEBDE4-599A-46B2-9328-D96E42CD9C81";
paths = (
{
closed = 1;
nodes = (
"588 383 OFFCURVE",
"611 400 OFFCURVE",
"611 439 CURVE SMOOTH",
"611 478 OFFCURVE",
"588 495 OFFCURVE",
"560 495 CURVE SMOOTH",
"531 495 OFFCURVE",
"508 478 OFFCURVE",
"508 439 CURVE SMOOTH",
"508 400 OFFCURVE",
"531 383 OFFCURVE",
"560 383 CURVE SMOOTH"
);
},
{
closed = 1;
nodes = (
"128 255 OFFCURVE",
"151 272 OFFCURVE",
"151 311 CURVE SMOOTH",
"151 350 OFFCURVE",
"128 367 OFFCURVE",
"100 367 CURVE SMOOTH",
"71 367 OFFCURVE",
"48 350 OFFCURVE",
"48 311 CURVE SMOOTH",
"48 272 OFFCURVE",
"71 255 OFFCURVE",
"100 255 CURVE SMOOTH"
);
},
{
closed = 1;
nodes = (
"565 -85 LINE",
"514 81 OFFCURVE",
"438 248 OFFCURVE",
"359 394 CURVE",
"331 424 LINE",
"263 547 OFFCURVE",
"197 656 OFFCURVE",
"107 771 CURVE",
"40 717 LINE",
"138 592 OFFCURVE",
"213 470 OFFCURVE",
"289 326 CURVE",
"318 291 LINE",
"382 162 OFFCURVE",
"442 22 OFFCURVE",
"484 -112 CURVE"
);
},
{
closed = 1;
nodes = (
"406 939 LINE",
"352 543 OFFCURVE",
"246 181 OFFCURVE",
"78 -167 CURVE",
"154 -203 LINE",
"320 141 OFFCURVE",
"434 514 OFFCURVE",
"491 928 CURVE"
);
}
);
vertOrigin = 25;
vertWidth = 1362;
width = 683;
}
);
unicode = 1B18F;
},
{
glyphname = u1B190;
lastChange = "2020-04-06 12:14:44 +0000";
layers = (
{
layerId = "CFFEBDE4-599A-46B2-9328-D96E42CD9C81";
paths = (
{
closed = 1;
nodes = (
"227 -101 OFFCURVE",
"265 -156 OFFCURVE",
"344 -203 CURVE",
"415 -194 LINE",
"500 -97 OFFCURVE",
"522 -28 OFFCURVE",
"522 51 CURVE SMOOTH",
"522 130 OFFCURVE",
"485 186 OFFCURVE",
"401 236 CURVE",
"327 226 LINE",
"250 123 OFFCURVE",
"227 51 OFFCURVE",
"227 -14 CURVE SMOOTH"
);
},
{
closed = 1;
nodes = (
"341 186 LINE",
"417 134 OFFCURVE",
"438 95 OFFCURVE",
"438 51 CURVE SMOOTH",
"438 -7 OFFCURVE",
"421 -57 OFFCURVE",
"355 -143 CURVE",
"394 -143 LINE",
"337 -97 OFFCURVE",
"311 -61 OFFCURVE",
"311 -7 CURVE SMOOTH",
"311 46 OFFCURVE",
"337 101 OFFCURVE",
"394 186 CURVE"
);
},
{
closed = 1;
nodes = (
"135 694 OFFCURVE",
"151 599 OFFCURVE",
"151 486 CURVE SMOOTH",
"151 359 OFFCURVE",
"116 258 OFFCURVE",
"40 150 CURVE",
"108 101 LINE",
"202 231 OFFCURVE",
"235 339 OFFCURVE",
"235 490 CURVE SMOOTH",
"235 617 OFFCURVE",
"217 710 OFFCURVE",
"174 823 CURVE",
"95 794 LINE"
);
},
{
closed = 1;
nodes = (
"534 454 OFFCURVE",
"501 519 OFFCURVE",
"501 647 CURVE SMOOTH",
"501 745 OFFCURVE",
"515 819 OFFCURVE",
"546 917 CURVE",
"468 939 LINE",
"432 830 OFFCURVE",
"417 749 OFFCURVE",
"417 641 CURVE SMOOTH",
"417 499 OFFCURVE",
"464 397 OFFCURVE",
"572 273 CURVE",
"633 329 LINE"
);
}
);
vertOrigin = 25;
vertWidth = 1362;
width = 690;
}
);
unicode = 1B190;
},
{
glyphname = u1B191;
lastChange = "2020-04-06 12:16:31 +0000";
layers = (
{
background = {
paths = (
{
closed = 1;
nodes = (
"485 939 LINE",
"342 747 OFFCURVE",
"205 601 OFFCURVE",
"30 449 CURVE",
"84 383 LINE",
"259 531 OFFCURVE",
"398 681 OFFCURVE",
"556 891 CURVE"
);
},
{
closed = 1;
nodes = (
"477 734 OFFCURVE",
"501 686 OFFCURVE",
"501 623 CURVE SMOOTH",
"501 494 OFFCURVE",
"372 368 OFFCURVE",
"91 139 CURVE",
"144 72 LINE",
"454 313 OFFCURVE",
"587 466 OFFCURVE",
"587 623 CURVE SMOOTH",
"587 713 OFFCURVE",
"556 775 OFFCURVE",
"473 864 CURVE",
"424 793 LINE"
);
},
{
closed = 1;
nodes = (
"356 323 LINE",
"372 207 OFFCURVE",
"377 130 OFFCURVE",
"377 2 CURVE SMOOTH",
"377 -97 OFFCURVE",
"370 -203 OFFCURVE",
"360 -286 CURVE",
"445 -293 LINE",
"456 -196 OFFCURVE",
"463 -108 OFFCURVE",
"463 0 CURVE SMOOTH",
"463 122 OFFCURVE",
"457 223 OFFCURVE",
"422 368 CURVE"
);
}
);
};
layerId = "CFFEBDE4-599A-46B2-9328-D96E42CD9C81";
paths = (
{
closed = 1;
nodes = (
"628 356 LINE",
"482 215 OFFCURVE",
"344 117 OFFCURVE",
"158 14 CURVE",
"200 -61 LINE",
"397 49 OFFCURVE",
"523 140 OFFCURVE",
"688 294 CURVE"
);
},
{
closed = 1;
nodes = (
"495 939 LINE",
"352 774 OFFCURVE",
"208 650 OFFCURVE",
"33 522 CURVE",
"84 453 LINE",
"259 580 OFFCURVE",
"404 704 OFFCURVE",
"561 884 CURVE"
);
},
{
closed = 1;
nodes = (
"477 734 OFFCURVE",
"501 692 OFFCURVE",
"501 629 CURVE SMOOTH",
"501 530 OFFCURVE",
"415 444 OFFCURVE",
"115 252 CURVE",
"162 180 LINE",
"491 388 OFFCURVE",
"587 501 OFFCURVE",
"587 629 CURVE SMOOTH",
"587 719 OFFCURVE",
"556 775 OFFCURVE",
"473 864 CURVE",
"424 793 LINE"
);
},
{
closed = 1;
nodes = (
"353 363 LINE",
"369 247 OFFCURVE",
"374 170 OFFCURVE",
"374 42 CURVE SMOOTH",
"374 -51 OFFCURVE",
"370 -113 OFFCURVE",
"362 -196 CURVE",
"447 -203 LINE",
"456 -122 OFFCURVE",
"460 -53 OFFCURVE",
"460 40 CURVE SMOOTH",
"460 170 OFFCURVE",
"454 263 OFFCURVE",
"419 408 CURVE"
);
}
);
vertOrigin = 25;
vertWidth = 1362;
width = 713;
}
);
unicode = 1B191;
},
{
glyphname = u1B192;
lastChange = "2020-04-06 12:17:46 +0000";
layers = (
{
background = {
paths = (
{
closed = 1;
nodes = (
"464 939 LINE",
"381 765 OFFCURVE",
"284 639 OFFCURVE",
"157 520 CURVE",
"195 375 OFFCURVE",
"208 271 OFFCURVE",
"208 135 CURVE SMOOTH",
"208 -21 OFFCURVE",
"188 -127 OFFCURVE",
"141 -267 CURVE",
"222 -293 LINE",
"276 -145 OFFCURVE",
"294 -23 OFFCURVE",
"294 129 CURVE SMOOTH",
"294 271 OFFCURVE",
"278 388 OFFCURVE",
"240 538 CURVE",
"235 474 LINE",
"358 588 OFFCURVE",
"455 721 OFFCURVE",
"541 903 CURVE"
);
},
{
closed = 1;
nodes = (
"575 243 LINE",
"556 459 OFFCURVE",
"507 602 OFFCURVE",
"420 777 CURVE",
"377 673 LINE",
"438 540 OFFCURVE",
"472 416 OFFCURVE",
"490 234 CURVE"
);
}
);
};
layerId = "CFFEBDE4-599A-46B2-9328-D96E42CD9C81";
paths = (
{
closed = 1;
nodes = (
"110 91 OFFCURVE",
"133 108 OFFCURVE",
"133 147 CURVE SMOOTH",
"133 186 OFFCURVE",
"110 203 OFFCURVE",
"82 203 CURVE SMOOTH",
"53 203 OFFCURVE",
"30 186 OFFCURVE",
"30 147 CURVE SMOOTH",
"30 108 OFFCURVE",
"53 91 OFFCURVE",
"82 91 CURVE SMOOTH"
);
},
{
closed = 1;
nodes = (
"473 939 LINE",
"382 789 OFFCURVE",
"273 669 OFFCURVE",
"146 550 CURVE",
"206 401 OFFCURVE",
"230 288 OFFCURVE",
"230 163 CURVE SMOOTH",
"230 40 OFFCURVE",
"213 -49 OFFCURVE",
"162 -167 CURVE",
"240 -203 LINE",
"296 -77 OFFCURVE",
"316 40 OFFCURVE",
"316 163 CURVE SMOOTH",
"316 293 OFFCURVE",
"291 414 OFFCURVE",
"231 568 CURVE",
"224 507 LINE",
"346 621 OFFCURVE",
"455 740 OFFCURVE",
"549 898 CURVE"
);
},
{
closed = 1;
nodes = (
"598 315 LINE",
"570 492 OFFCURVE",
"526 614 OFFCURVE",
"429 777 CURVE",
"377 702 LINE",
"455 560 OFFCURVE",
"489 461 OFFCURVE",
"513 304 CURVE"
);
}
);
vertOrigin = 25;
vertWidth = 1362;
width = 664;
}
);
unicode = 1B192;
},
{
glyphname = u1B193;
lastChange = "2020-04-06 12:17:57 +0000";
layers = (
{
background = {
paths = (
{
closed = 1;
nodes = (
"678 939 LINE",
"637 440 OFFCURVE",
"535 76 OFFCURVE",
"355 -208 CURVE",
"405 -219 LINE",
"343 -28 OFFCURVE",
"275 136 OFFCURVE",
"186 304 CURVE",
"113 261 LINE",
"199 92 OFFCURVE",
"260 -45 OFFCURVE",
"326 -243 CURVE",
"426 -253 LINE",
"604 24 OFFCURVE",
"721 382 OFFCURVE",
"762 931 CURVE"
);
},
{
closed = 1;
nodes = (
"80 -101 OFFCURVE",
"103 -84 OFFCURVE",
"103 -45 CURVE SMOOTH",
"103 -6 OFFCURVE",
"80 11 OFFCURVE",
"52 11 CURVE SMOOTH",
"23 11 OFFCURVE",
"0 -6 OFFCURVE",
"0 -45 CURVE SMOOTH",
"0 -84 OFFCURVE",
"23 -101 OFFCURVE",
"52 -101 CURVE SMOOTH"
);
},
{
closed = 1;
nodes = (
"408 299 OFFCURVE",
"431 316 OFFCURVE",
"431 355 CURVE SMOOTH",
"431 394 OFFCURVE",
"408 411 OFFCURVE",
"380 411 CURVE SMOOTH",
"351 411 OFFCURVE",
"328 394 OFFCURVE",
"328 355 CURVE SMOOTH",
"328 316 OFFCURVE",
"351 299 OFFCURVE",
"380 299 CURVE SMOOTH"
);
}
);
};
layerId = "CFFEBDE4-599A-46B2-9328-D96E42CD9C81";
paths = (
{
closed = 1;
nodes = (
"110 29 OFFCURVE",
"133 46 OFFCURVE",
"133 85 CURVE SMOOTH",
"133 124 OFFCURVE",
"110 141 OFFCURVE",
"82 141 CURVE SMOOTH",
"53 141 OFFCURVE",
"30 124 OFFCURVE",
"30 85 CURVE SMOOTH",
"30 46 OFFCURVE",
"53 29 OFFCURVE",
"82 29 CURVE SMOOTH"
);
},
{
closed = 1;
nodes = (
"418 449 OFFCURVE",
"441 466 OFFCURVE",
"441 505 CURVE SMOOTH",
"441 544 OFFCURVE",
"418 561 OFFCURVE",
"390 561 CURVE SMOOTH",
"361 561 OFFCURVE",
"338 544 OFFCURVE",
"338 505 CURVE SMOOTH",
"338 466 OFFCURVE",
"361 449 OFFCURVE",
"390 449 CURVE SMOOTH"
);
},
{
closed = 1;
nodes = (
"654 895 LINE",
"592 479 OFFCURVE",
"512 188 OFFCURVE",
"385 -68 CURVE",
"435 -79 LINE",
"373 112 OFFCURVE",
"316 247 OFFCURVE",
"227 404 CURVE",
"153 361 LINE",
"239 203 OFFCURVE",
"290 95 OFFCURVE",
"356 -103 CURVE",
"456 -113 LINE",
"581 136 OFFCURVE",
"670 418 OFFCURVE",
"739 884 CURVE"
);
}
);
vertOrigin = 24;
vertWidth = 1362;
width = 819;
}
);
unicode = 1B193;
},
{
glyphname = u1B194;
lastChange = "2020-04-06 12:20:22 +0000";
layers = (
{
background = {
paths = (
{
closed = 1;
nodes = (
"433 939 LINE",
"328 689 OFFCURVE",
"208 506 OFFCURVE",
"41 304 CURVE",
"108 250 LINE",
"273 448 OFFCURVE",
"405 651 OFFCURVE",
"514 909 CURVE"
);
},
{
closed = 1;
nodes = (
"76 831 LINE",
"280 490 OFFCURVE",
"423 155 OFFCURVE",
"536 -203 CURVE",
"618 -178 LINE",
"507 187 OFFCURVE",
"355 521 OFFCURVE",
"150 875 CURVE"
);
},
{
closed = 1;
nodes = (
"361 308 LINE",
"295 172 OFFCURVE",
"227 66 OFFCURVE",
"128 -65 CURVE",
"196 -118 LINE",
"290 6 OFFCURVE",
"357 110 OFFCURVE",
"426 265 CURVE"
);
}
);
};
layerId = "CFFEBDE4-599A-46B2-9328-D96E42CD9C81";
paths = (
{
closed = 1;
nodes = (
"446 168 LINE",
"385 56 OFFCURVE",
"327 -30 OFFCURVE",
"237 -148 CURVE",
"306 -199 LINE",
"395 -85 OFFCURVE",
"452 8 OFFCURVE",
"512 128 CURVE"
);
},
{
closed = 1;
nodes = (
"431 939 LINE",
"319 723 OFFCURVE",
"202 553 OFFCURVE",
"30 354 CURVE",
"96 299 LINE",
"264 493 OFFCURVE",
"385 663 OFFCURVE",
"510 904 CURVE"
);
},
{
closed = 1;
nodes = (
"566 711 LINE",
"446 498 OFFCURVE",
"310 310 OFFCURVE",
"130 108 CURVE",
"197 53 LINE",
"374 255 OFFCURVE",
"512 443 OFFCURVE",
"643 673 CURVE"
);
},
{
closed = 1;
nodes = (
"70 829 LINE",
"298 468 OFFCURVE",
"445 144 OFFCURVE",
"586 -203 CURVE",
"665 -171 LINE",
"518 203 OFFCURVE",
"362 516 OFFCURVE",
"143 874 CURVE"
);
}
);
vertOrigin = 25;
vertWidth = 1362;
width = 735;
}
);
unicode = 1B194;
},
{
glyphname = u1B195;
lastChange = "2020-04-06 17:40:49 +0000";
layers = (
{
layerId = "CFFEBDE4-599A-46B2-9328-D96E42CD9C81";
paths = (
{
closed = 1;
nodes = (
"688 509 OFFCURVE",
"711 526 OFFCURVE",
"711 565 CURVE SMOOTH",
"711 604 OFFCURVE",
"688 621 OFFCURVE",
"660 621 CURVE SMOOTH",
"631 621 OFFCURVE",
"608 604 OFFCURVE",
"608 565 CURVE SMOOTH",
"608 526 OFFCURVE",
"631 509 OFFCURVE",
"660 509 CURVE SMOOTH"
);
},
{
closed = 1;
nodes = (
"113 386 OFFCURVE",
"136 403 OFFCURVE",
"136 442 CURVE SMOOTH",
"136 481 OFFCURVE",
"113 498 OFFCURVE",
"85 498 CURVE SMOOTH",
"56 498 OFFCURVE",
"33 481 OFFCURVE",
"33 442 CURVE SMOOTH",
"33 403 OFFCURVE",
"56 386 OFFCURVE",
"85 386 CURVE SMOOTH"
);
},
{
closed = 1;
nodes = (
"708 -72 LINE",
"619 154 OFFCURVE",
"519 313 OFFCURVE",
"382 504 CURVE",
"366 387 LINE",
"468 236 OFFCURVE",
"555 78 OFFCURVE",
"628 -104 CURVE"
);
},
{
closed = 1;
nodes = (
"352 939 LINE",
"351 478 OFFCURVE",
"274 133 OFFCURVE",
"96 -162 CURVE",
"171 -203 LINE",
"353 94 OFFCURVE",
"436 443 OFFCURVE",
"438 938 CURVE"
);
}
);
vertOrigin = 25;
vertWidth = 1362;
width = 731;
}
);
unicode = 1B195;
},
{
glyphname = u1B196;
lastChange = "2020-04-06 12:23:53 +0000";
layers = (
{
background = {
paths = (
{
closed = 1;
nodes = (
"605 -85 LINE",
"554 81 OFFCURVE",
"478 248 OFFCURVE",
"399 394 CURVE",
"371 424 LINE",
"303 547 OFFCURVE",
"237 656 OFFCURVE",
"147 771 CURVE",
"80 717 LINE",
"178 592 OFFCURVE",
"253 470 OFFCURVE",
"329 326 CURVE",
"358 291 LINE",
"422 162 OFFCURVE",
"482 22 OFFCURVE",
"524 -112 CURVE"
);
},
{
closed = 1;
nodes = (
"446 939 LINE",
"392 543 OFFCURVE",
"286 181 OFFCURVE",
"118 -167 CURVE",
"194 -203 LINE",
"360 141 OFFCURVE",
"474 514 OFFCURVE",
"531 928 CURVE"
);
}
);
};
layerId = "CFFEBDE4-599A-46B2-9328-D96E42CD9C81";
paths = (
{
closed = 1;
nodes = (
"369 487 OFFCURVE",
"313 254 OFFCURVE",
"117 -167 CURVE",
"193 -203 LINE",
"377 190 OFFCURVE",
"461 481 OFFCURVE",
"520 879 CURVE",
"481 879 LINE",
"524 783 OFFCURVE",
"555 694 OFFCURVE",
"583 591 CURVE",
"665 612 LINE",
"632 737 OFFCURVE",
"598 824 OFFCURVE",
"538 939 CURVE",
"447 925 LINE"
);
},
{
closed = 1;
nodes = (
"296 445 OFFCURVE",
"430 177 OFFCURVE",
"525 -113 CURVE",
"606 -85 LINE",
"496 239 OFFCURVE",
"368 484 OFFCURVE",
"172 772 CURVE",
"88 759 LINE",
"73 585 OFFCURVE",
"60 491 OFFCURVE",
"40 390 CURVE",
"123 376 LINE",
"141 477 OFFCURVE",
"149 548 OFFCURVE",
"158 714 CURVE",
"111 716 LINE"
);
}
);
vertOrigin = 25;
vertWidth = 1362;
width = 745;
}
);
unicode = 1B196;
},
{
glyphname = u1B197;
lastChange = "2020-04-06 12:25:57 +0000";
layers = (
{
background = {
paths = (
{
closed = 1;
nodes = (
"408 939 LINE",
"296 649 OFFCURVE",
"200 478 OFFCURVE",
"20 256 CURVE",
"88 202 LINE",
"271 434 OFFCURVE",
"372 622 OFFCURVE",
"491 912 CURVE"
);
},
{
closed = 1;
nodes = (
"556 207 LINE",
"447 15 OFFCURVE",
"331 -117 OFFCURVE",
"212 -232 CURVE",
"273 -293 LINE",
"403 -162 OFFCURVE",
"515 -37 OFFCURVE",
"631 164 CURVE"
);
},
{
closed = 1;
nodes = (
"206 451 LINE",
"276 272 OFFCURVE",
"330 87 OFFCURVE",
"377 -108 CURVE",
"454 -76 LINE",
"405 142 OFFCURVE",
"341 341 OFFCURVE",
"269 526 CURVE"
);
},
{
closed = 1;
nodes = (
"466 510 LINE",
"367 329 OFFCURVE",
"264 171 OFFCURVE",
"123 20 CURVE",
"186 -38 LINE",
"327 113 OFFCURVE",
"435 283 OFFCURVE",
"541 466 CURVE"
);
}
);
};
layerId = "CFFEBDE4-599A-46B2-9328-D96E42CD9C81";
paths = (
{
closed = 1;
nodes = (
"434 939 LINE",
"321 688 OFFCURVE",
"196 502 OFFCURVE",
"40 318 CURVE",
"107 264 LINE",
"268 450 OFFCURVE",
"386 633 OFFCURVE",
"514 906 CURVE"
);
},
{
closed = 1;
nodes = (
"622 286 LINE",
"535 132 OFFCURVE",
"423 -12 OFFCURVE",
"291 -142 CURVE",
"349 -203 LINE",
"492 -57 OFFCURVE",
"603 80 OFFCURVE",
"697 243 CURVE"
);
},
{
closed = 1;
nodes = (
"520 -1 LINE",
"439 289 OFFCURVE",
"324 562 OFFCURVE",
"167 863 CURVE",
"91 823 LINE",
"256 518 OFFCURVE",
"362 239 OFFCURVE",
"443 -29 CURVE"
);
},
{
closed = 1;
nodes = (
"509 573 LINE",
"408 394 OFFCURVE",
"296 236 OFFCURVE",
"160 87 CURVE",
"223 31 LINE",
"359 180 OFFCURVE",
"475 343 OFFCURVE",
"583 532 CURVE"
);
}
);
vertOrigin = 25;
vertWidth = 1362;
width = 707;
}
);
unicode = 1B197;
},
{
glyphname = u1B198;
lastChange = "2020-04-06 12:27:16 +0000";
layers = (
{
background = {
paths = (
{
closed = 1;
nodes = (
"383 939 LINE",
"300 765 OFFCURVE",
"203 639 OFFCURVE",
"76 520 CURVE",
"114 375 OFFCURVE",
"127 271 OFFCURVE",
"127 135 CURVE SMOOTH",
"127 -21 OFFCURVE",
"107 -127 OFFCURVE",
"60 -267 CURVE",
"141 -293 LINE",
"195 -145 OFFCURVE",
"213 -23 OFFCURVE",
"213 129 CURVE SMOOTH",
"213 271 OFFCURVE",
"197 388 OFFCURVE",
"159 538 CURVE",
"154 474 LINE",
"277 588 OFFCURVE",
"374 721 OFFCURVE",
"460 903 CURVE"
);
}
);
};
layerId = "CFFEBDE4-599A-46B2-9328-D96E42CD9C81";
paths = (
{
closed = 1;
nodes = (
"334 359 OFFCURVE",
"365 292 OFFCURVE",
"441 241 CURVE",
"519 251 LINE",
"567 316 OFFCURVE",
"582 378 OFFCURVE",
"582 440 CURVE SMOOTH",
"582 556 OFFCURVE",
"532 658 OFFCURVE",
"371 851 CURVE",
"327 777 LINE",
"455 621 OFFCURVE",
"498 538 OFFCURVE",
"498 440 CURVE SMOOTH",
"498 395 OFFCURVE",
"492 351 OFFCURVE",
"459 292 CURVE",
"487 301 LINE",
"434 347 OFFCURVE",
"418 385 OFFCURVE",
"418 434 CURVE SMOOTH",
"418 484 OFFCURVE",
"436 536 OFFCURVE",
"497 602 CURVE",
"471 679 LINE",
"364 568 OFFCURVE",
"334 497 OFFCURVE",
"334 429 CURVE SMOOTH"
);
},
{
closed = 1;
nodes = (
"403 939 LINE",
"312 789 OFFCURVE",
"203 669 OFFCURVE",
"76 550 CURVE",
"116 401 OFFCURVE",
"127 287 OFFCURVE",
"127 175 CURVE SMOOTH",
"127 27 OFFCURVE",
"111 -63 OFFCURVE",
"76 -181 CURVE",
"157 -203 LINE",
"197 -77 OFFCURVE",
"213 27 OFFCURVE",
"213 175 CURVE SMOOTH",
"213 308 OFFCURVE",
"201 414 OFFCURVE",
"161 568 CURVE",
"154 507 LINE",
"276 621 OFFCURVE",
"385 740 OFFCURVE",
"479 898 CURVE"
);
}
);
vertOrigin = 25;
vertWidth = 1362;
width = 612;
}
);
unicode = 1B198;
},
{
glyphname = u1B199;
lastChange = "2020-04-06 12:29:37 +0000";
layers = (
{
layerId = "CFFEBDE4-599A-46B2-9328-D96E42CD9C81";
paths = (
{
closed = 1;
nodes = (
"296 393 LINE",
"249 152 OFFCURVE",
"196 26 OFFCURVE",
"71 -156 CURVE",
"143 -203 LINE",
"267 -23 OFFCURVE",
"332 118 OFFCURVE",
"381 378 CURVE"
);
},
{
closed = 1;
nodes = (
"284 232 LINE",
"395 89 OFFCURVE",
"459 -20 OFFCURVE",
"516 -171 CURVE",
"595 -137 LINE",
"527 28 OFFCURVE",
"457 143 OFFCURVE",
"341 284 CURVE"
);
},
{
closed = 1;
nodes = (
"271 939 LINE",
"230 672 OFFCURVE",
"169 534 OFFCURVE",
"43 354 CURVE",
"114 306 LINE",
"249 500 OFFCURVE",
"307 634 OFFCURVE",
"356 927 CURVE"
);
},
{
closed = 1;
nodes = (
"262 760 LINE",
"393 617 OFFCURVE",
"473 507 OFFCURVE",
"543 359 CURVE",
"620 398 LINE",
"532 572 OFFCURVE",
"455 676 OFFCURVE",
"319 818 CURVE"
);
}
);
vertOrigin = 25;
vertWidth = 1362;
width = 651;
}
);
unicode = 1B199;
},
{
glyphname = u1B19A;
lastChange = "2020-04-06 12:31:56 +0000";
layers = (
{
background = {
paths = (
{
closed = 1;
nodes = (
"407 939 LINE",
"324 765 OFFCURVE",
"227 639 OFFCURVE",
"100 520 CURVE",
"138 375 OFFCURVE",
"151 271 OFFCURVE",
"151 135 CURVE SMOOTH",
"151 -21 OFFCURVE",
"131 -127 OFFCURVE",
"84 -267 CURVE",
"165 -293 LINE",
"219 -145 OFFCURVE",
"237 -23 OFFCURVE",
"237 129 CURVE SMOOTH",
"237 271 OFFCURVE",
"221 388 OFFCURVE",
"183 538 CURVE",
"178 477 LINE",
"300 591 OFFCURVE",
"399 721 OFFCURVE",
"485 903 CURVE"
);
},
{
closed = 1;
nodes = (
"518 243 LINE",
"499 459 OFFCURVE",
"450 602 OFFCURVE",
"363 777 CURVE",
"320 673 LINE",
"381 540 OFFCURVE",
"415 416 OFFCURVE",
"433 234 CURVE"
);
}
);
};
layerId = "CFFEBDE4-599A-46B2-9328-D96E42CD9C81";
paths = (
{
closed = 1;
nodes = (
"556 939 LINE",
"478 676 OFFCURVE",
"363 525 OFFCURVE",
"200 381 CURVE",
"245 320 LINE",
"439 481 OFFCURVE",
"553 639 OFFCURVE",
"639 914 CURVE"
);
},
{
closed = 1;
nodes = (
"125 627 OFFCURVE",
"151 477 OFFCURVE",
"151 291 CURVE SMOOTH",
"151 114 OFFCURVE",
"131 -29 OFFCURVE",
"84 -180 CURVE",
"165 -203 LINE",
"219 -32 OFFCURVE",
"237 108 OFFCURVE",
"237 291 CURVE SMOOTH",
"237 481 OFFCURVE",
"207 656 OFFCURVE",
"137 820 CURVE",
"60 792 LINE"
);
},
{
closed = 1;
nodes = (
"535 -105 LINE",
"603 13 OFFCURVE",
"657 144 OFFCURVE",
"697 294 CURVE",
"614 317 LINE",
"573 171 OFFCURVE",
"534 67 OFFCURVE",
"488 -28 CURVE",
"505 -45 LINE",
"464 106 OFFCURVE",
"382 254 OFFCURVE",
"272 373 CURVE",
"214 329 LINE",
"320 191 OFFCURVE",
"394 56 OFFCURVE",
"440 -96 CURVE"
);
}
);
vertOrigin = 25;
vertWidth = 1362;
width = 707;
}
);
unicode = 1B19A;
},
{
glyphname = u1B19B;
lastChange = "2020-04-06 12:33:37 +0000";
layers = (
{
layerId = "CFFEBDE4-599A-46B2-9328-D96E42CD9C81";
paths = (
{
closed = 1;
nodes = (
"90 50 OFFCURVE",
"113 67 OFFCURVE",
"113 106 CURVE SMOOTH",
"113 145 OFFCURVE",
"90 162 OFFCURVE",
"62 162 CURVE SMOOTH",
"33 162 OFFCURVE",
"10 145 OFFCURVE",
"10 106 CURVE SMOOTH",
"10 67 OFFCURVE",
"33 50 OFFCURVE",
"62 50 CURVE SMOOTH"
);
},
{
closed = 1;
nodes = (
"166 259 OFFCURVE",
"189 276 OFFCURVE",
"189 315 CURVE SMOOTH",
"189 354 OFFCURVE",
"166 371 OFFCURVE",
"138 371 CURVE SMOOTH",
"109 371 OFFCURVE",
"86 354 OFFCURVE",
"86 315 CURVE SMOOTH",
"86 276 OFFCURVE",
"109 259 OFFCURVE",
"138 259 CURVE SMOOTH"
);
},
{
closed = 1;
nodes = (
"605 -85 LINE",
"554 81 OFFCURVE",
"478 248 OFFCURVE",
"399 394 CURVE",
"371 424 LINE",
"303 547 OFFCURVE",
"237 656 OFFCURVE",
"147 771 CURVE",
"80 717 LINE",
"178 592 OFFCURVE",
"253 470 OFFCURVE",
"329 326 CURVE",
"358 291 LINE",
"422 162 OFFCURVE",
"482 22 OFFCURVE",
"524 -112 CURVE"
);
},
{
closed = 1;
nodes = (
"446 939 LINE",
"392 543 OFFCURVE",
"286 181 OFFCURVE",
"118 -167 CURVE",
"194 -203 LINE",
"360 141 OFFCURVE",
"474 514 OFFCURVE",
"531 928 CURVE"
);
}
);
vertOrigin = 25;
vertWidth = 1362;
width = 675;
}
);
unicode = 1B19B;
},
{
glyphname = u1B19C;
lastChange = "2020-04-06 12:35:44 +0000";
layers = (
{
layerId = "CFFEBDE4-599A-46B2-9328-D96E42CD9C81";
paths = (
{
closed = 1;
nodes = (
"581 411 LINE",
"513 310 OFFCURVE",
"487 220 OFFCURVE",
"487 124 CURVE SMOOTH",
"487 22 OFFCURVE",
"517 -65 OFFCURVE",
"579 -136 CURVE",
"646 -89 LINE",
"596 -22 OFFCURVE",
"573 40 OFFCURVE",
"573 125 CURVE SMOOTH",
"573 203 OFFCURVE",
"589 282 OFFCURVE",
"650 366 CURVE"
);
},
{
closed = 1;
nodes = (
"162 -203 LINE",
"199 -133 OFFCURVE",
"211 -72 OFFCURVE",
"211 22 CURVE SMOOTH",
"211 117 OFFCURVE",
"186 195 OFFCURVE",
"120 283 CURVE",
"53 235 LINE",
"109 163 OFFCURVE",
"128 101 OFFCURVE",
"128 22 CURVE SMOOTH",
"128 -55 OFFCURVE",
"117 -111 OFFCURVE",
"86 -173 CURVE"
);
},
{
closed = 1;
nodes = (
"529 939 LINE",
"461 626 OFFCURVE",
"391 442 OFFCURVE",
"301 269 CURVE",
"339 273 LINE",
"291 393 OFFCURVE",
"219 520 OFFCURVE",
"152 619 CURVE",
"82 573 LINE",
"154 465 OFFCURVE",
"212 366 OFFCURVE",
"265 249 CURVE",
"375 241 LINE",
"468 413 OFFCURVE",
"537 588 OFFCURVE",
"613 922 CURVE"
);
}
);
vertOrigin = 25;
vertWidth = 1362;
width = 702;
}
);
unicode = 1B19C;
},
{
glyphname = u1B19D;
lastChange = "2020-04-06 12:39:08 +0000";
layers = (
{
background = {
paths = (
{
closed = 1;
nodes = (
"308 939 LINE",
"253 678 OFFCURVE",
"183 519 OFFCURVE",
"43 334 CURVE",
"111 282 LINE",
"250 456 OFFCURVE",
"335 655 OFFCURVE",
"393 924 CURVE"
);
},
{
closed = 1;
nodes = (
"317 784 LINE",
"415 646 OFFCURVE",
"504 509 OFFCURVE",
"595 320 CURVE",
"672 357 LINE",
"576 559 OFFCURVE",
"486 699 OFFCURVE",
"361 854 CURVE"
);
},
{
closed = 1;
nodes = (
"323 428 LINE",
"338 312 OFFCURVE",
"343 213 OFFCURVE",
"343 97 CURVE SMOOTH",
"343 -7 OFFCURVE",
"338 -95 OFFCURVE",
"322 -190 CURVE",
"406 -203 LINE",
"422 -106 OFFCURVE",
"429 -6 OFFCURVE",
"429 98 CURVE SMOOTH",
"429 221 OFFCURVE",
"422 321 OFFCURVE",
"404 439 CURVE"
);
}
);
};
layerId = "CFFEBDE4-599A-46B2-9328-D96E42CD9C81";
paths = (
{
closed = 1;
nodes = (
"475 597 LINE",
"393 328 OFFCURVE",
"288 99 OFFCURVE",
"120 -158 CURVE",
"191 -203 LINE",
"363 64 OFFCURVE",
"458 278 OFFCURVE",
"546 553 CURVE"
);
},
{
closed = 1;
nodes = (
"171 475 LINE",
"309 280 OFFCURVE",
"419 91 OFFCURVE",
"510 -123 CURVE",
"590 -92 LINE",
"483 153 OFFCURVE",
"363 351 OFFCURVE",
"221 543 CURVE"
);
},
{
closed = 1;
nodes = (
"308 939 LINE",
"241 686 OFFCURVE",
"163 506 OFFCURVE",
"24 297 CURVE",
"96 250 LINE",
"235 461 OFFCURVE",
"316 635 OFFCURVE",
"391 918 CURVE"
);
},
{
closed = 1;
nodes = (
"291 808 LINE",
"426 640 OFFCURVE",
"533 487 OFFCURVE",
"637 299 CURVE",
"711 343 LINE",
"602 534 OFFCURVE",
"496 690 OFFCURVE",
"338 879 CURVE"
);
}
);
vertOrigin = 25;
vertWidth = 1362;
width = 731;
}
);
unicode = 1B19D;
},
{
glyphname = u1B19E;
lastChange = "2020-04-06 12:45:42 +0000";
layers = (
{
background = {
paths = (
{
closed = 1;
nodes = (
"273 636 LINE",
"353 452 OFFCURVE",
"387 276 OFFCURVE",
"387 63 CURVE SMOOTH",
"387 -28 OFFCURVE",
"382 -103 OFFCURVE",
"370 -196 CURVE",
"455 -203 LINE",
"466 -108 OFFCURVE",
"473 -30 OFFCURVE",
"473 73 CURVE SMOOTH",
"473 269 OFFCURVE",
"434 500 OFFCURVE",
"329 704 CURVE"
);
},
{
closed = 1;
nodes = (
"457 939 LINE",
"343 743 OFFCURVE",
"212 578 OFFCURVE",
"40 426 CURVE",
"99 364 LINE",
"268 516 OFFCURVE",
"416 695 OFFCURVE",
"532 897 CURVE"
);
},
{
closed = 1;
nodes = (
"584 672 LINE",
"450 462 OFFCURVE",
"316 312 OFFCURVE",
"133 166 CURVE",
"187 99 LINE",
"366 242 OFFCURVE",
"513 400 OFFCURVE",
"656 624 CURVE"
);
}
);
};
layerId = "CFFEBDE4-599A-46B2-9328-D96E42CD9C81";
paths = (
{
closed = 1;
nodes = (
"452 202 OFFCURVE",
"404 474 OFFCURVE",
"303 704 CURVE",
"243 636 LINE",
"329 420 OFFCURVE",
"364 189 OFFCURVE",
"375 -112 CURVE",
"462 -153 LINE",
"574 -56 OFFCURVE",
"653 47 OFFCURVE",
"755 204 CURVE",
"683 251 LINE",
"586 99 OFFCURVE",
"510 0 OFFCURVE",
"434 -80 CURVE",
"456 -87 LINE"
);
},
{
closed = 1;
nodes = (
"427 939 LINE",
"313 743 OFFCURVE",
"183 580 OFFCURVE",
"11 428 CURVE",
"69 364 LINE",
"238 516 OFFCURVE",
"386 695 OFFCURVE",
"502 897 CURVE"
);
},
{
closed = 1;
nodes = (
"564 672 LINE",
"430 472 OFFCURVE",
"297 332 OFFCURVE",
"129 186 CURVE",
"187 123 LINE",
"351 266 OFFCURVE",
"492 410 OFFCURVE",
"635 624 CURVE"
);
}
);
vertOrigin = 25;
vertWidth = 1362;
width = 721;
}
);
unicode = 1B19E;
},
{
glyphname = u1B19F;
lastChange = "2020-04-06 12:42:42 +0000";
layers = (
{
layerId = "CFFEBDE4-599A-46B2-9328-D96E42CD9C81";
paths = (
{
closed = 1;
nodes = (
"25 385 LINE",
"56 275 OFFCURVE",
"76 184 OFFCURVE",
"88 76 CURVE",
"168 88 LINE",
"157 200 OFFCURVE",
"136 294 OFFCURVE",
"103 406 CURVE"
);
},
{
closed = 1;
nodes = (
"139 495 LINE",
"275 296 OFFCURVE",
"376 123 OFFCURVE",
"484 -106 CURVE",
"561 -68 LINE",
"447 169 OFFCURVE",
"335 360 OFFCURVE",
"188 577 CURVE",
"200 499 LINE",
"277 640 OFFCURVE",
"332 752 OFFCURVE",
"392 910 CURVE",
"311 939 LINE",
"252 789 OFFCURVE",
"203 682 OFFCURVE",
"139 566 CURVE"
);
},
{
closed = 1;
nodes = (
"383 713 OFFCURVE",
"409 645 OFFCURVE",
"409 549 CURVE SMOOTH",
"409 375 OFFCURVE",
"341 213 OFFCURVE",
"73 -153 CURVE",
"143 -203 LINE",
"408 153 OFFCURVE",
"495 367 OFFCURVE",
"495 549 CURVE SMOOTH",
"495 675 OFFCURVE",
"455 770 OFFCURVE",
"350 889 CURVE",
"315 803 LINE"
);
}
);
vertOrigin = 25;
vertWidth = 1362;
width = 600;
}
);
unicode = 1B19F;
},
{
glyphname = u1B1A0;
lastChange = "2020-04-06 12:45:04 +0000";
layers = (
{
background = {
paths = (
{
closed = 1;
nodes = (
"369 487 OFFCURVE",
"313 254 OFFCURVE",
"117 -167 CURVE",
"193 -203 LINE",
"377 190 OFFCURVE",
"461 481 OFFCURVE",
"520 879 CURVE",
"481 879 LINE",
"524 783 OFFCURVE",
"555 694 OFFCURVE",
"583 591 CURVE",
"665 612 LINE",
"632 737 OFFCURVE",
"598 824 OFFCURVE",
"538 939 CURVE",
"447 925 LINE"
);
},
{
closed = 1;
nodes = (
"296 445 OFFCURVE",
"430 177 OFFCURVE",
"525 -113 CURVE",
"606 -85 LINE",
"496 239 OFFCURVE",
"368 484 OFFCURVE",
"172 772 CURVE",
"88 759 LINE",
"73 585 OFFCURVE",
"60 491 OFFCURVE",
"40 390 CURVE",
"123 376 LINE",
"141 477 OFFCURVE",
"149 548 OFFCURVE",
"158 714 CURVE",
"111 716 LINE"
);
}
);
};
layerId = "CFFEBDE4-599A-46B2-9328-D96E42CD9C81";
paths = (
{
closed = 1;
nodes = (
"377 247 LINE",
"451 477 OFFCURVE",
"486 623 OFFCURVE",
"520 879 CURVE",
"486 879 LINE",
"527 779 OFFCURVE",
"551 708 OFFCURVE",
"583 591 CURVE",
"665 612 LINE",
"631 738 OFFCURVE",
"596 830 OFFCURVE",
"538 939 CURVE",
"447 925 LINE",
"408 665 OFFCURVE",
"385 548 OFFCURVE",
"345 395 CURVE"
);
},
{
closed = 1;
nodes = (
"434 363 OFFCURVE",
"336 594 OFFCURVE",
"164 782 CURVE",
"88 759 LINE",
"75 602 OFFCURVE",
"60 491 OFFCURVE",
"40 390 CURVE",
"123 376 LINE",
"141 477 OFFCURVE",
"150 577 OFFCURVE",
"154 714 CURVE",
"124 711 LINE",
"268 534 OFFCURVE",
"348 345 OFFCURVE",
"348 56 CURVE SMOOTH",
"348 -38 OFFCURVE",
"345 -104 OFFCURVE",
"334 -195 CURVE",
"417 -203 LINE",
"427 -124 OFFCURVE",
"434 -46 OFFCURVE",
"434 56 CURVE SMOOTH"
);
}
);
vertOrigin = 25;
vertWidth = 1362;
width = 745;
}
);
unicode = 1B1A0;
},
{
glyphname = u1B1A1;
lastChange = "2020-04-06 12:48:22 +0000";
layers = (
{
layerId = "CFFEBDE4-599A-46B2-9328-D96E42CD9C81";
paths = (
{
closed = 1;
nodes = (
"497 889 LINE",
"375 576 OFFCURVE",
"239 345 OFFCURVE",
"36 90 CURVE",
"103 36 LINE",
"306 288 OFFCURVE",
"448 528 OFFCURVE",
"577 858 CURVE"
);
},
{
closed = 1;
nodes = (
"178 554 OFFCURVE",
"201 571 OFFCURVE",
"201 610 CURVE SMOOTH",
"201 649 OFFCURVE",
"178 666 OFFCURVE",
"150 666 CURVE SMOOTH",
"121 666 OFFCURVE",
"98 649 OFFCURVE",
"98 610 CURVE SMOOTH",
"98 571 OFFCURVE",
"121 554 OFFCURVE",
"150 554 CURVE SMOOTH"
);
},
{
closed = 1;
nodes = (
"243 315 LINE",
"267 187 OFFCURVE",
"279 47 OFFCURVE",
"285 -112 CURVE",
"372 -153 LINE",
"479 -56 OFFCURVE",
"561 52 OFFCURVE",
"648 209 CURVE",
"573 251 LINE",
"491 99 OFFCURVE",
"415 0 OFFCURVE",
"344 -80 CURVE",
"366 -87 LINE",
"364 88 OFFCURVE",
"345 257 OFFCURVE",
"308 415 CURVE"
);
}
);
vertOrigin = 25;
vertWidth = 1362;
width = 634;
}
);
unicode = 1B1A1;
},
{
glyphname = u1B1A2;
lastChange = "2020-04-06 12:50:44 +0000";
layers = (
{
background = {
paths = (
{
closed = 1;
nodes = (
"475 597 LINE",
"393 328 OFFCURVE",
"288 99 OFFCURVE",
"120 -158 CURVE",
"191 -203 LINE",
"363 64 OFFCURVE",
"458 278 OFFCURVE",
"546 553 CURVE"
);
},
{
closed = 1;
nodes = (
"171 475 LINE",
"309 280 OFFCURVE",
"419 91 OFFCURVE",
"510 -123 CURVE",
"590 -92 LINE",
"483 153 OFFCURVE",
"363 351 OFFCURVE",
"221 543 CURVE"
);
},
{
closed = 1;
nodes = (
"308 939 LINE",
"241 686 OFFCURVE",
"163 506 OFFCURVE",
"24 297 CURVE",
"96 250 LINE",
"235 461 OFFCURVE",
"316 635 OFFCURVE",
"391 918 CURVE"
);
},
{
closed = 1;
nodes = (
"291 808 LINE",
"426 640 OFFCURVE",
"533 487 OFFCURVE",
"637 299 CURVE",
"711 343 LINE",
"602 534 OFFCURVE",
"496 690 OFFCURVE",
"338 879 CURVE"
);
}
);
};
layerId = "CFFEBDE4-599A-46B2-9328-D96E42CD9C81";
paths = (
{
closed = 1;
nodes = (
"293 -89 LINE",
"239 62 OFFCURVE",
"166 234 OFFCURVE",
"84 380 CURVE",
"10 336 LINE",
"87 200 OFFCURVE",
"164 24 OFFCURVE",
"224 -133 CURVE",
"325 -147 LINE",
"509 128 OFFCURVE",
"618 348 OFFCURVE",
"713 621 CURVE",
"631 648 LINE",
"536 377 OFFCURVE",
"431 157 OFFCURVE",
"265 -89 CURVE"
);
},
{
closed = 1;
nodes = (
"434 939 LINE",
"360 609 OFFCURVE",
"284 420 OFFCURVE",
"161 163 CURVE",
"210 85 LINE",
"366 391 OFFCURVE",
"440 588 OFFCURVE",
"518 921 CURVE"
);
},
{
closed = 1;
nodes = (
"86 702 LINE",
"201 504 OFFCURVE",
"302 288 OFFCURVE",
"396 53 CURVE",
"457 115 LINE",
"365 348 OFFCURVE",
"274 541 OFFCURVE",
"162 744 CURVE"
);
}
);
vertOrigin = 25;
vertWidth = 1362;
width = 774;
}
);
unicode = 1B1A2;
},
{
glyphname = u1B1A3;
lastChange = "2020-04-06 12:53:01 +0000";
layers = (
{
layerId = "CFFEBDE4-599A-46B2-9328-D96E42CD9C81";
paths = (
{
closed = 1;
nodes = (
"278 -203 LINE",
"438 -30 OFFCURVE",
"498 93 OFFCURVE",
"498 285 CURVE SMOOTH",
"498 450 OFFCURVE",
"438 588 OFFCURVE",
"303 735 CURVE",
"233 684 LINE",
"364 554 OFFCURVE",
"412 428 OFFCURVE",
"412 282 CURVE SMOOTH",
"412 123 OFFCURVE",
"353 7 OFFCURVE",
"217 -149 CURVE"
);
},
{
closed = 1;
nodes = (
"416 939 LINE",
"292 770 OFFCURVE",
"193 666 OFFCURVE",
"50 548 CURVE",
"102 482 LINE",
"246 598 OFFCURVE",
"352 709 OFFCURVE",
"487 891 CURVE"
);
},
{
closed = 1;
nodes = (
"584 746 LINE",
"447 580 OFFCURVE",
"311 455 OFFCURVE",
"161 346 CURVE",
"209 277 LINE",
"377 401 OFFCURVE",
"494 504 OFFCURVE",
"651 692 CURVE"
);
},
{
closed = 1;
nodes = (
"146 118 LINE",
"343 25 OFFCURVE",
"469 -67 OFFCURVE",
"596 -169 CURVE",
"649 -104 LINE",
"506 11 OFFCURVE",
"364 105 OFFCURVE",
"183 193 CURVE"
);
}
);
vertOrigin = 25;
vertWidth = 1362;
width = 678;
}
);
unicode = 1B1A3;
},
{
glyphname = u1B1A4;
lastChange = "2020-04-06 14:03:51 +0000";
layers = (
{
background = {
paths = (
{
closed = 1;
nodes = (
"242 619 OFFCURVE",
"307 728 OFFCURVE",
"390 905 CURVE",
"311 939 LINE",
"229 767 OFFCURVE",
"163 649 OFFCURVE",
"50 494 CURVE",
"107 376 OFFCURVE",
"145 286 OFFCURVE",
"182 184 CURVE",
"266 175 LINE",
"348 273 OFFCURVE",
"428 396 OFFCURVE",
"490 511 CURVE",
"452 508 LINE",
"502 390 OFFCURVE",
"537 293 OFFCURVE",
"571 173 CURVE",
"570 249 LINE",
"487 95 OFFCURVE",
"408 -24 OFFCURVE",
"309 -151 CURVE",
"377 -203 LINE",
"493 -53 OFFCURVE",
"562 54 OFFCURVE",
"648 219 CURVE",
"609 349 OFFCURVE",
"572 450 OFFCURVE",
"518 572 CURVE",
"430 573 LINE",
"362 455 OFFCURVE",
"296 347 OFFCURVE",
"209 236 CURVE",
"252 241 LINE",
"221 327 OFFCURVE",
"183 414 OFFCURVE",
"127 532 CURVE",
"128 458 LINE"
);
}
);
};
layerId = "CFFEBDE4-599A-46B2-9328-D96E42CD9C81";
paths = (
{
closed = 1;
nodes = (
"250 384 OFFCURVE",
"415 259 OFFCURVE",
"534 151 CURVE",
"531 212 LINE",
"446 60 OFFCURVE",
"397 -17 OFFCURVE",
"293 -153 CURVE",
"358 -203 LINE",
"471 -56 OFFCURVE",
"530 34 OFFCURVE",
"615 191 CURVE",
"473 317 OFFCURVE",
"300 451 OFFCURVE",
"139 558 CURVE",
"143 510 LINE",
"225 628 OFFCURVE",
"293 744 OFFCURVE",
"371 902 CURVE",
"293 939 LINE",
"219 788 OFFCURVE",
"155 676 OFFCURVE",
"50 516 CURVE"
);
},
{
closed = 1;
nodes = (
"482 682 LINE",
"427 584 OFFCURVE",
"374 493 OFFCURVE",
"319 405 CURVE",
"289 367 LINE",
"225 270 OFFCURVE",
"168 197 OFFCURVE",
"98 114 CURVE",
"163 58 LINE",
"236 145 OFFCURVE",
"291 221 OFFCURVE",
"350 313 CURVE",
"381 349 LINE",
"443 442 OFFCURVE",
"500 536 OFFCURVE",
"557 641 CURVE"
);
}
);
vertOrigin = 25;
vertWidth = 1362;
width = 665;
}
);
unicode = 1B1A4;
},
{
glyphname = u1B1A5;
lastChange = "2020-04-06 16:52:30 +0000";
layers = (
{
background = {
paths = (
{
closed = 1;
nodes = (
"423 215 LINE",
"412 287 OFFCURVE",
"391 357 OFFCURVE",
"365 419 CURVE",
"291 389 LINE",
"322 314 OFFCURVE",
"339 246 OFFCURVE",
"356 169 CURVE",
"463 169 LINE",
"506 244 OFFCURVE",
"538 324 OFFCURVE",
"538 423 CURVE SMOOTH",
"538 520 OFFCURVE",
"491 652 OFFCURVE",
"356 801 CURVE",
"318 735 LINE",
"423 597 OFFCURVE",
"452 481 OFFCURVE",
"452 400 CURVE SMOOTH",
"452 332 OFFCURVE",
"435 269 OFFCURVE",
"409 206 CURVE"
);
},
{
closed = 1;
nodes = (
"383 939 LINE",
"305 772 OFFCURVE",
"200 633 OFFCURVE",
"77 520 CURVE",
"117 371 OFFCURVE",
"128 254 OFFCURVE",
"128 135 CURVE SMOOTH",
"128 -3 OFFCURVE",
"106 -128 OFFCURVE",
"60 -269 CURVE",
"136 -293 LINE",
"182 -143 OFFCURVE",
"208 -24 OFFCURVE",
"208 145 CURVE SMOOTH",
"208 271 OFFCURVE",
"193 388 OFFCURVE",
"155 538 CURVE",
"150 478 LINE",
"266 592 OFFCURVE",
"383 732 OFFCURVE",
"458 907 CURVE"
);
}
);
};
layerId = "CFFEBDE4-599A-46B2-9328-D96E42CD9C81";
paths = (
{
closed = 1;
nodes = (
"527 668 LINE",
"411 523 OFFCURVE",
"315 434 OFFCURVE",
"157 319 CURVE",
"199 248 LINE",
"358 357 OFFCURVE",
"474 466 OFFCURVE",
"594 618 CURVE"
);
},
{
closed = 1;
nodes = (
"267 713 LINE",
"362 473 OFFCURVE",
"398 256 OFFCURVE",
"411 46 CURVE",
"494 52 LINE",
"484 286 OFFCURVE",
"436 514 OFFCURVE",
"330 778 CURVE"
);
},
{
closed = 1;
nodes = (
"403 939 LINE",
"312 789 OFFCURVE",
"203 669 OFFCURVE",
"76 550 CURVE",
"116 401 OFFCURVE",
"127 287 OFFCURVE",
"127 175 CURVE SMOOTH",
"127 27 OFFCURVE",
"111 -63 OFFCURVE",
"76 -181 CURVE",
"157 -203 LINE",
"197 -77 OFFCURVE",
"213 27 OFFCURVE",
"213 175 CURVE SMOOTH",
"213 308 OFFCURVE",
"201 414 OFFCURVE",
"161 568 CURVE",
"154 507 LINE",
"276 621 OFFCURVE",
"385 740 OFFCURVE",
"479 898 CURVE"
);
}
);
vertOrigin = 25;
vertWidth = 1362;
width = 612;
}
);
unicode = 1B1A5;
},
{
glyphname = u1B1A6;
lastChange = "2020-04-06 12:56:23 +0000";
layers = (
{
layerId = "CFFEBDE4-599A-46B2-9328-D96E42CD9C81";
paths = (
{
closed = 1;
nodes = (
"431 939 LINE",
"343 634 OFFCURVE",
"241 384 OFFCURVE",
"77 99 CURVE",
"153 58 LINE",
"332 374 OFFCURVE",
"419 594 OFFCURVE",
"514 917 CURVE"
);
},
{
closed = 1;
nodes = (
"129 769 LINE",
"333 542 OFFCURVE",
"476 345 OFFCURVE",
"628 91 CURVE",
"700 137 LINE",
"534 416 OFFCURVE",
"391 606 OFFCURVE",
"191 828 CURVE"
);
},
{
closed = 1;
nodes = (
"574 676 LINE",
"478 405 OFFCURVE",
"353 121 OFFCURVE",
"193 -162 CURVE",
"269 -203 LINE",
"421 68 OFFCURVE",
"548 346 OFFCURVE",
"656 651 CURVE"
);
},
{
closed = 1;
nodes = (
"47 521 LINE",
"243 301 OFFCURVE",
"397 64 OFFCURVE",
"525 -168 CURVE",
"600 -127 LINE",
"460 132 OFFCURVE",
"300 359 OFFCURVE",
"111 581 CURVE"
);
}
);
vertOrigin = 25;
vertWidth = 1362;
width = 751;
}
);
unicode = 1B1A6;
},
{
glyphname = u1B1A7;
lastChange = "2020-04-06 12:57:26 +0000";
layers = (
{
background = {
paths = (
{
closed = 1;
nodes = (
"434 939 LINE",
"321 688 OFFCURVE",
"196 502 OFFCURVE",
"40 318 CURVE",
"107 264 LINE",
"268 450 OFFCURVE",
"386 633 OFFCURVE",
"514 906 CURVE"
);
},
{
closed = 1;
nodes = (
"622 286 LINE",
"535 132 OFFCURVE",
"423 -12 OFFCURVE",
"291 -142 CURVE",
"349 -203 LINE",
"492 -57 OFFCURVE",
"603 80 OFFCURVE",
"697 243 CURVE"
);
},
{
closed = 1;
nodes = (
"520 -1 LINE",
"439 289 OFFCURVE",
"324 562 OFFCURVE",
"167 863 CURVE",
"91 823 LINE",
"256 518 OFFCURVE",
"362 239 OFFCURVE",
"443 -29 CURVE"
);
},
{
closed = 1;
nodes = (
"509 573 LINE",
"408 394 OFFCURVE",
"296 236 OFFCURVE",
"160 87 CURVE",
"223 31 LINE",
"359 180 OFFCURVE",
"475 343 OFFCURVE",
"583 532 CURVE"
);
}
);
};
layerId = "CFFEBDE4-599A-46B2-9328-D96E42CD9C81";
paths = (
{
closed = 1;
nodes = (
"248 540 LINE",
"325 351 OFFCURVE",
"382 176 OFFCURVE",
"429 -19 CURVE",
"506 13 LINE",
"457 231 OFFCURVE",
"390 420 OFFCURVE",
"311 615 CURVE"
);
},
{
closed = 1;
nodes = (
"434 939 LINE",
"321 688 OFFCURVE",
"196 502 OFFCURVE",
"40 318 CURVE",
"107 264 LINE",
"268 450 OFFCURVE",
"386 633 OFFCURVE",
"514 906 CURVE"
);
},
{
closed = 1;
nodes = (
"622 286 LINE",
"535 132 OFFCURVE",
"423 -12 OFFCURVE",
"291 -142 CURVE",
"349 -203 LINE",
"492 -57 OFFCURVE",
"603 80 OFFCURVE",
"697 243 CURVE"
);
},
{
closed = 1;
nodes = (
"509 573 LINE",
"408 394 OFFCURVE",
"296 236 OFFCURVE",
"160 87 CURVE",
"223 31 LINE",
"359 180 OFFCURVE",
"475 343 OFFCURVE",
"583 532 CURVE"
);
}
);
vertOrigin = 25;
vertWidth = 1362;
width = 711;
}
);
unicode = 1B1A7;
},
{
glyphname = u1B1A8;
lastChange = "2020-04-06 12:59:37 +0000";
layers = (
{
layerId = "CFFEBDE4-599A-46B2-9328-D96E42CD9C81";
paths = (
{
closed = 1;
nodes = (
"294 -64 OFFCURVE",
"317 -47 OFFCURVE",
"317 -8 CURVE SMOOTH",
"317 31 OFFCURVE",
"294 48 OFFCURVE",
"266 48 CURVE SMOOTH",
"237 48 OFFCURVE",
"214 31 OFFCURVE",
"214 -8 CURVE SMOOTH",
"214 -47 OFFCURVE",
"237 -64 OFFCURVE",
"266 -64 CURVE SMOOTH"
);
},
{
closed = 1;
nodes = (
"662 239 OFFCURVE",
"685 256 OFFCURVE",
"685 295 CURVE SMOOTH",
"685 334 OFFCURVE",
"662 351 OFFCURVE",
"634 351 CURVE SMOOTH",
"605 351 OFFCURVE",
"582 334 OFFCURVE",
"582 295 CURVE SMOOTH",
"582 256 OFFCURVE",
"605 239 OFFCURVE",
"634 239 CURVE SMOOTH"
);
},
{
closed = 1;
nodes = (
"546 -195 LINE",
"508 195 OFFCURVE",
"418 454 OFFCURVE",
"299 704 CURVE",
"243 636 LINE",
"343 403 OFFCURVE",
"427 170 OFFCURVE",
"460 -203 CURVE"
);
},
{
closed = 1;
nodes = (
"437 939 LINE",
"323 743 OFFCURVE",
"192 578 OFFCURVE",
"20 426 CURVE",
"79 364 LINE",
"248 516 OFFCURVE",
"396 695 OFFCURVE",
"512 897 CURVE"
);
},
{
closed = 1;
nodes = (
"566 667 LINE",
"427 457 OFFCURVE",
"306 327 OFFCURVE",
"123 181 CURVE",
"177 114 LINE",
"356 257 OFFCURVE",
"490 395 OFFCURVE",
"638 619 CURVE"
);
}
);
vertOrigin = 25;
vertWidth = 1362;
width = 725;
}
);
unicode = 1B1A8;
},
{
glyphname = u1B1A9;
lastChange = "2020-04-06 13:04:12 +0000";
layers = (
{
layerId = "CFFEBDE4-599A-46B2-9328-D96E42CD9C81";
paths = (
{
closed = 1;
nodes = (
"425 219 LINE",
"406 317 OFFCURVE",
"377 405 OFFCURVE",
"336 491 CURVE",
"266 444 LINE",
"305 353 OFFCURVE",
"329 277 OFFCURVE",
"351 175 CURVE"
);
},
{
closed = 1;
nodes = (
"606 432 LINE",
"450 315 OFFCURVE",
"288 216 OFFCURVE",
"114 132 CURVE",
"152 57 LINE",
"331 144 OFFCURVE",
"489 241 OFFCURVE",
"656 365 CURVE"
);
},
{
closed = 1;
nodes = (
"565 254 OFFCURVE",
"582 216 OFFCURVE",
"582 170 CURVE SMOOTH",
"582 80 OFFCURVE",
"485 9 OFFCURVE",
"188 -126 CURVE",
"221 -203 LINE",
"532 -63 OFFCURVE",
"668 29 OFFCURVE",
"668 174 CURVE SMOOTH",
"668 234 OFFCURVE",
"645 289 OFFCURVE",
"583 363 CURVE",
"523 313 LINE"
);
},
{
closed = 1;
nodes = (
"491 939 LINE",
"324 812 OFFCURVE",
"203 737 OFFCURVE",
"10 634 CURVE",
"48 559 LINE",
"241 662 OFFCURVE",
"377 745 OFFCURVE",
"545 875 CURVE"
);
},
{
closed = 1;
nodes = (
"454 773 OFFCURVE",
"477 727 OFFCURVE",
"477 677 CURVE SMOOTH",
"477 593 OFFCURVE",
"404 536 OFFCURVE",
"62 365 CURVE",
"100 290 LINE",
"506 485 OFFCURVE",
"563 567 OFFCURVE",
"563 677 CURVE SMOOTH",
"563 753 OFFCURVE",
"532 808 OFFCURVE",
"471 879 CURVE",
"403 833 LINE"
);
}
);
vertOrigin = 25;
vertWidth = 1362;
width = 719;
}
);
unicode = 1B1A9;
},
{
glyphname = u1B1AA;
lastChange = "2020-04-06 14:42:40 +0000";
layers = (
{
layerId = "CFFEBDE4-599A-46B2-9328-D96E42CD9C81";
paths = (
{
closed = 1;
nodes = (
"76 -95 OFFCURVE",
"105 -143 OFFCURVE",
"173 -183 CURVE",
"244 -174 LINE",
"307 -87 OFFCURVE",
"330 -30 OFFCURVE",
"330 31 CURVE SMOOTH",
"330 91 OFFCURVE",
"296 132 OFFCURVE",
"228 170 CURVE",
"154 160 LINE",
"96 78 OFFCURVE",
"76 11 OFFCURVE",
"76 -38 CURVE SMOOTH"
);
},
{
closed = 1;
nodes = (
"181 123 LINE",
"228 87 OFFCURVE",
"245 49 OFFCURVE",
"245 20 CURVE SMOOTH",
"245 -23 OFFCURVE",
"232 -63 OFFCURVE",
"189 -136 CURVE",
"217 -136 LINE",
"175 -99 OFFCURVE",
"160 -73 OFFCURVE",
"160 -34 CURVE SMOOTH",
"160 10 OFFCURVE",
"175 58 OFFCURVE",
"216 126 CURVE"
);
},
{
closed = 1;
nodes = (
"507 754 OFFCURVE",
"526 711 OFFCURVE",
"526 667 CURVE SMOOTH",
"526 571 OFFCURVE",
"453 494 OFFCURVE",
"145 332 CURVE",
"185 256 LINE",
"522 434 OFFCURVE",
"612 536 OFFCURVE",
"612 667 CURVE SMOOTH",
"612 738 OFFCURVE",
"586 795 OFFCURVE",
"503 884 CURVE",
"454 813 LINE"
);
},
{
closed = 1;
nodes = (
"523 -33 LINE",
"514 121 OFFCURVE",
"496 262 OFFCURVE",
"453 438 CURVE",
"383 393 LINE",
"414 229 OFFCURVE",
"428 111 OFFCURVE",
"437 -41 CURVE"
);
},
{
closed = 1;
nodes = (
"556 939 LINE",
"403 796 OFFCURVE",
"257 701 OFFCURVE",
"69 584 CURVE",
"114 513 LINE",
"302 629 OFFCURVE",
"448 725 OFFCURVE",
"615 880 CURVE"
);
}
);
vertOrigin = 25;
vertWidth = 1362;
width = 663;
}
);
unicode = 1B1AA;
},
{
glyphname = u1B1AB;
lastChange = "2020-04-06 14:29:34 +0000";
layers = (
{
layerId = "CFFEBDE4-599A-46B2-9328-D96E42CD9C81";
paths = (
{
closed = 1;
nodes = (
"310 939 LINE",
"310 396 OFFCURVE",
"288 249 OFFCURVE",
"239 68 CURVE",
"323 49 LINE",
"354 185 OFFCURVE",
"377 314 OFFCURVE",
"377 559 CURVE",
"393 625 LINE",
"395 713 OFFCURVE",
"396 815 OFFCURVE",
"396 937 CURVE"
);
},
{
closed = 1;
nodes = (
"347 570 LINE",
"412 462 OFFCURVE",
"458 375 OFFCURVE",
"498 284 CURVE",
"576 320 LINE",
"524 434 OFFCURVE",
"464 525 OFFCURVE",
"383 634 CURVE"
);
},
{
closed = 1;
nodes = (
"406 693 OFFCURVE",
"240 566 OFFCURVE",
"80 471 CURVE",
"109 276 OFFCURVE",
"120 137 OFFCURVE",
"120 24 CURVE SMOOTH",
"120 -76 OFFCURVE",
"114 -136 OFFCURVE",
"105 -194 CURVE",
"190 -203 LINE",
"198 -142 OFFCURVE",
"204 -70 OFFCURVE",
"204 26 CURVE SMOOTH",
"204 145 OFFCURVE",
"194 289 OFFCURVE",
"160 485 CURVE",
"133 401 LINE",
"286 495 OFFCURVE",
"453 623 OFFCURVE",
"594 760 CURVE",
"562 774 LINE",
"604 625 OFFCURVE",
"615 486 OFFCURVE",
"615 338 CURVE SMOOTH",
"615 252 OFFCURVE",
"613 214 OFFCURVE",
"606 134 CURVE",
"690 125 LINE",
"698 223 OFFCURVE",
"699 262 OFFCURVE",
"699 344 CURVE SMOOTH",
"699 482 OFFCURVE",
"686 643 OFFCURVE",
"639 815 CURVE",
"547 836 LINE"
);
}
);
vertOrigin = 25;
vertWidth = 1362;
width = 773;
}
);
unicode = 1B1AB;
},
{
glyphname = u1B1AC;
lastChange = "2020-04-06 13:11:19 +0000";
layers = (
{
layerId = "CFFEBDE4-599A-46B2-9328-D96E42CD9C81";
paths = (
{
closed = 1;
nodes = (
"165 384 LINE",
"147 262 OFFCURVE",
"115 147 OFFCURVE",
"74 42 CURVE",
"149 13 LINE",
"187 114 OFFCURVE",
"222 242 OFFCURVE",
"246 369 CURVE"
);
},
{
closed = 1;
nodes = (
"20 206 LINE",
"105 185 OFFCURVE",
"213 150 OFFCURVE",
"284 114 CURVE",
"315 191 LINE",
"236 224 OFFCURVE",
"119 262 OFFCURVE",
"39 286 CURVE"
);
},
{
closed = 1;
nodes = (
"199 495 LINE",
"335 296 OFFCURVE",
"436 123 OFFCURVE",
"544 -106 CURVE",
"621 -68 LINE",
"507 169 OFFCURVE",
"395 360 OFFCURVE",
"248 577 CURVE",
"260 499 LINE",
"337 640 OFFCURVE",
"392 752 OFFCURVE",
"452 910 CURVE",
"371 939 LINE",
"312 789 OFFCURVE",
"263 682 OFFCURVE",
"199 566 CURVE"
);
},
{
closed = 1;
nodes = (
"443 713 OFFCURVE",
"469 645 OFFCURVE",
"469 549 CURVE SMOOTH",
"469 375 OFFCURVE",
"401 213 OFFCURVE",
"133 -153 CURVE",
"203 -203 LINE",
"468 153 OFFCURVE",
"555 367 OFFCURVE",
"555 549 CURVE SMOOTH",
"555 675 OFFCURVE",
"515 770 OFFCURVE",
"410 889 CURVE",
"375 803 LINE"
);
}
);
vertOrigin = 25;
vertWidth = 1362;
width = 630;
}
);
unicode = 1B1AC;
},
{
glyphname = u1B1AD;
lastChange = "2020-04-06 13:13:38 +0000";
layers = (
{
layerId = "CFFEBDE4-599A-46B2-9328-D96E42CD9C81";
paths = (
{
closed = 1;
nodes = (
"346 529 LINE",
"284 413 OFFCURVE",
"188 296 OFFCURVE",
"101 212 CURVE",
"162 154 LINE",
"253 240 OFFCURVE",
"349 359 OFFCURVE",
"419 487 CURVE"
);
},
{
closed = 1;
nodes = (
"437 340 LINE",
"357 213 OFFCURVE",
"277 126 OFFCURVE",
"179 42 CURVE",
"234 -22 LINE",
"330 58 OFFCURVE",
"419 153 OFFCURVE",
"507 295 CURVE"
);
},
{
closed = 1;
nodes = (
"548 183 LINE",
"458 44 OFFCURVE",
"376 -48 OFFCURVE",
"251 -139 CURVE",
"303 -203 LINE",
"431 -108 OFFCURVE",
"524 -13 OFFCURVE",
"617 135 CURVE"
);
},
{
closed = 1;
nodes = (
"305 939 LINE",
"234 694 OFFCURVE",
"162 562 OFFCURVE",
"20 398 CURVE",
"85 342 LINE",
"234 520 OFFCURVE",
"310 652 OFFCURVE",
"389 920 CURVE"
);
},
{
closed = 1;
nodes = (
"296 780 LINE",
"420 649 OFFCURVE",
"512 522 OFFCURVE",
"587 379 CURVE",
"662 420 LINE",
"568 586 OFFCURVE",
"481 705 OFFCURVE",
"353 838 CURVE"
);
}
);
vertOrigin = 25;
vertWidth = 1362;
width = 702;
}
);
unicode = 1B1AD;
},
{
glyphname = u1B1AE;
lastChange = "2020-04-06 13:16:29 +0000";
layers = (
{
background = {
paths = (
{
closed = 1;
nodes = (
"346 529 LINE",
"284 413 OFFCURVE",
"188 296 OFFCURVE",
"101 212 CURVE",
"162 154 LINE",
"253 240 OFFCURVE",
"349 359 OFFCURVE",
"419 487 CURVE"
);
},
{
closed = 1;
nodes = (
"437 340 LINE",
"357 213 OFFCURVE",
"277 126 OFFCURVE",
"179 42 CURVE",
"234 -22 LINE",
"330 58 OFFCURVE",
"419 153 OFFCURVE",
"507 295 CURVE"
);
},
{
closed = 1;
nodes = (
"548 183 LINE",
"458 44 OFFCURVE",
"376 -48 OFFCURVE",
"251 -139 CURVE",
"303 -203 LINE",
"431 -108 OFFCURVE",
"524 -13 OFFCURVE",
"617 135 CURVE"
);
},
{
closed = 1;
nodes = (
"305 939 LINE",
"234 694 OFFCURVE",
"162 562 OFFCURVE",
"20 398 CURVE",
"85 342 LINE",
"234 520 OFFCURVE",
"310 652 OFFCURVE",
"389 920 CURVE"
);
},
{
closed = 1;
nodes = (
"296 780 LINE",
"420 649 OFFCURVE",
"512 522 OFFCURVE",
"587 379 CURVE",
"662 420 LINE",
"568 586 OFFCURVE",
"481 705 OFFCURVE",
"353 838 CURVE"
);
}
);
};
layerId = "CFFEBDE4-599A-46B2-9328-D96E42CD9C81";
paths = (
{
closed = 1;
nodes = (
"346 473 LINE",
"283 332 OFFCURVE",
"208 219 OFFCURVE",
"104 106 CURVE",
"167 48 LINE",
"277 167 OFFCURVE",
"360 293 OFFCURVE",
"425 438 CURVE"
);
},
{
closed = 1;
nodes = (
"480 265 LINE",
"409 115 OFFCURVE",
"317 -20 OFFCURVE",
"181 -141 CURVE",
"240 -203 LINE",
"375 -82 OFFCURVE",
"476 56 OFFCURVE",
"558 229 CURVE"
);
},
{
closed = 1;
nodes = (
"101 314 LINE",
"223 474 OFFCURVE",
"311 636 OFFCURVE",
"391 918 CURVE",
"308 939 LINE",
"234 683 OFFCURVE",
"154 522 OFFCURVE",
"50 382 CURVE",
"81 380 LINE",
"47 501 OFFCURVE",
"15 584 OFFCURVE",
"-32 685 CURVE",
"-110 649 LINE",
"-56 536 OFFCURVE",
"-17 438 OFFCURVE",
"18 324 CURVE"
);
},
{
closed = 1;
nodes = (
"296 780 LINE",
"420 649 OFFCURVE",
"512 522 OFFCURVE",
"587 379 CURVE",
"662 420 LINE",
"568 586 OFFCURVE",
"481 705 OFFCURVE",
"353 838 CURVE"
);
}
);
vertOrigin = 25;
vertWidth = 1362;
width = 756;
}
);
unicode = 1B1AE;
},
{
glyphname = u1B1AF;
lastChange = "2020-04-06 13:19:26 +0000";
layers = (
{
background = {
paths = (
{
closed = 1;
nodes = (
"159 490 OFFCURVE",
"191 311 OFFCURVE",
"191 132 CURVE SMOOTH",
"191 -30 OFFCURVE",
"176 -143 OFFCURVE",
"143 -275 CURVE",
"225 -293 LINE",
"259 -160 OFFCURVE",
"275 -44 OFFCURVE",
"275 119 CURVE SMOOTH",
"275 332 OFFCURVE",
"244 512 OFFCURVE",
"159 747 CURVE",
"80 721 LINE"
);
},
{
closed = 1;
nodes = (
"451 660 OFFCURVE",
"348 424 OFFCURVE",
"211 271 CURVE",
"246 191 LINE",
"428 381 OFFCURVE",
"520 596 OFFCURVE",
"598 920 CURVE",
"514 939 LINE"
);
},
{
closed = 1;
nodes = (
"404 539 LINE",
"476 398 OFFCURVE",
"520 256 OFFCURVE",
"545 94 CURVE",
"630 108 LINE",
"601 295 OFFCURVE",
"547 444 OFFCURVE",
"457 603 CURVE"
);
}
);
};
layerId = "CFFEBDE4-599A-46B2-9328-D96E42CD9C81";
paths = (
{
closed = 1;
nodes = (
"56 296 OFFCURVE",
"79 313 OFFCURVE",
"79 352 CURVE SMOOTH",
"79 391 OFFCURVE",
"56 408 OFFCURVE",
"28 408 CURVE SMOOTH",
"-1 408 OFFCURVE",
"-24 391 OFFCURVE",
"-24 352 CURVE SMOOTH",
"-24 313 OFFCURVE",
"-1 296 OFFCURVE",
"28 296 CURVE SMOOTH"
);
},
{
closed = 1;
nodes = (
"338 755 OFFCURVE",
"361 772 OFFCURVE",
"361 811 CURVE SMOOTH",
"361 850 OFFCURVE",
"338 867 OFFCURVE",
"310 867 CURVE SMOOTH",
"281 867 OFFCURVE",
"258 850 OFFCURVE",
"258 811 CURVE SMOOTH",
"258 772 OFFCURVE",
"281 755 OFFCURVE",
"310 755 CURVE SMOOTH"
);
},
{
closed = 1;
nodes = (
"160 588 OFFCURVE",
"199 438 OFFCURVE",
"199 270 CURVE SMOOTH",
"199 100 OFFCURVE",
"175 -32 OFFCURVE",
"123 -178 CURVE",
"201 -203 LINE",
"256 -56 OFFCURVE",
"283 86 OFFCURVE",
"283 270 CURVE SMOOTH",
"283 461 OFFCURVE",
"236 619 OFFCURVE",
"138 789 CURVE",
"67 747 LINE"
);
},
{
closed = 1;
nodes = (
"456 678 OFFCURVE",
"347 501 OFFCURVE",
"226 376 CURVE",
"261 299 LINE",
"418 461 OFFCURVE",
"521 611 OFFCURVE",
"607 917 CURVE",
"524 939 LINE"
);
},
{
closed = 1;
nodes = (
"404 579 LINE",
"476 438 OFFCURVE",
"520 296 OFFCURVE",
"545 134 CURVE",
"630 148 LINE",
"601 335 OFFCURVE",
"547 484 OFFCURVE",
"457 643 CURVE"
);
}
);
vertOrigin = 25;
vertWidth = 1362;
width = 708;
}
);
unicode = 1B1AF;
},
{
glyphname = u1B1B0;
lastChange = "2020-04-06 13:19:49 +0000";
layers = (
{
layerId = "CFFEBDE4-599A-46B2-9328-D96E42CD9C81";
paths = (
{
closed = 1;
nodes = (
"627 591 OFFCURVE",
"650 608 OFFCURVE",
"650 647 CURVE SMOOTH",
"650 686 OFFCURVE",
"627 703 OFFCURVE",
"599 703 CURVE SMOOTH",
"570 703 OFFCURVE",
"547 686 OFFCURVE",
"547 647 CURVE SMOOTH",
"547 608 OFFCURVE",
"570 591 OFFCURVE",
"599 591 CURVE SMOOTH"
);
},
{
closed = 1;
nodes = (
"130 420 OFFCURVE",
"153 437 OFFCURVE",
"153 476 CURVE SMOOTH",
"153 515 OFFCURVE",
"130 532 OFFCURVE",
"102 532 CURVE SMOOTH",
"73 532 OFFCURVE",
"50 515 OFFCURVE",
"50 476 CURVE SMOOTH",
"50 437 OFFCURVE",
"73 420 OFFCURVE",
"102 420 CURVE SMOOTH"
);
},
{
closed = 1;
nodes = (
"344 338 LINE",
"358 235 OFFCURVE",
"361 170 OFFCURVE",
"361 55 CURVE SMOOTH",
"361 -33 OFFCURVE",
"356 -112 OFFCURVE",
"345 -192 CURVE",
"429 -203 LINE",
"443 -106 OFFCURVE",
"447 -32 OFFCURVE",
"447 56 CURVE SMOOTH",
"447 172 OFFCURVE",
"440 250 OFFCURVE",
"425 350 CURVE"
);
},
{
closed = 1;
nodes = (
"435 939 LINE",
"368 675 OFFCURVE",
"273 464 OFFCURVE",
"98 220 CURVE",
"169 172 LINE",
"343 416 OFFCURVE",
"447 635 OFFCURVE",
"519 920 CURVE"
);
},
{
closed = 1;
nodes = (
"241 599 OFFCURVE",
"449 448 OFFCURVE",
"600 301 CURVE",
"657 366 LINE",
"490 524 OFFCURVE",
"293 661 OFFCURVE",
"79 766 CURVE",
"43 688 LINE"
);
}
);
vertOrigin = 25;
vertWidth = 1362;
width = 732;
}
);
unicode = 1B1B0;
},
{
glyphname = u1B1B1;
lastChange = "2020-04-06 13:21:07 +0000";
layers = (
{
layerId = "CFFEBDE4-599A-46B2-9328-D96E42CD9C81";
paths = (
{
closed = 1;
nodes = (
"105 204 LINE",
"146 67 OFFCURVE",
"170 -63 OFFCURVE",
"184 -203 CURVE",
"268 -193 LINE",
"254 -42 OFFCURVE",
"228 90 OFFCURVE",
"185 229 CURVE"
);
},
{
closed = 1;
nodes = (
"582 576 LINE",
"521 402 OFFCURVE",
"463 284 OFFCURVE",
"350 111 CURVE",
"396 113 LINE",
"354 367 OFFCURVE",
"289 609 OFFCURVE",
"173 850 CURVE",
"96 812 LINE",
"211 579 OFFCURVE",
"274 364 OFFCURVE",
"322 88 CURVE",
"415 70 LINE",
"527 230 OFFCURVE",
"586 350 OFFCURVE",
"663 545 CURVE"
);
},
{
closed = 1;
nodes = (
"391 488 LINE",
"479 343 OFFCURVE",
"537 216 OFFCURVE",
"584 76 CURVE",
"663 103 LINE",
"605 278 OFFCURVE",
"551 390 OFFCURVE",
"461 534 CURVE"
);
},
{
closed = 1;
nodes = (
"401 939 LINE",
"302 726 OFFCURVE",
"184 560 OFFCURVE",
"16 372 CURVE",
"79 317 LINE",
"254 507 OFFCURVE",
"359 665 OFFCURVE",
"479 903 CURVE"
);
}
);
vertOrigin = 25;
vertWidth = 1362;
width = 713;
}
);
unicode = 1B1B1;
},
{
glyphname = u1B1B2;
lastChange = "2020-04-06 13:22:33 +0000";
layers = (
{
layerId = "CFFEBDE4-599A-46B2-9328-D96E42CD9C81";
paths = (
{
closed = 1;
nodes = (
"412 939 LINE",
"355 688 OFFCURVE",
"277 518 OFFCURVE",
"127 324 CURVE",
"194 273 LINE",
"343 467 OFFCURVE",
"435 652 OFFCURVE",
"497 924 CURVE"
);
},
{
closed = 1;
nodes = (
"261 612 OFFCURVE",
"417 523 OFFCURVE",
"584 390 CURVE",
"635 460 LINE",
"450 598 OFFCURVE",
"303 679 OFFCURVE",
"98 770 CURVE",
"66 690 LINE"
);
},
{
closed = 1;
nodes = (
"56 -95 OFFCURVE",
"85 -143 OFFCURVE",
"153 -183 CURVE",
"224 -174 LINE",
"287 -87 OFFCURVE",
"310 -30 OFFCURVE",
"310 31 CURVE SMOOTH",
"310 91 OFFCURVE",
"276 132 OFFCURVE",
"208 170 CURVE",
"134 160 LINE",
"76 78 OFFCURVE",
"56 11 OFFCURVE",
"56 -38 CURVE SMOOTH"
);
},
{
closed = 1;
nodes = (
"161 123 LINE",
"208 87 OFFCURVE",
"225 49 OFFCURVE",
"225 20 CURVE SMOOTH",
"225 -23 OFFCURVE",
"212 -63 OFFCURVE",
"169 -136 CURVE",
"197 -136 LINE",
"155 -99 OFFCURVE",
"140 -73 OFFCURVE",
"140 -34 CURVE SMOOTH",
"140 10 OFFCURVE",
"155 58 OFFCURVE",
"196 126 CURVE"
);
},
{
closed = 1;
nodes = (
"503 -33 LINE",
"494 121 OFFCURVE",
"476 262 OFFCURVE",
"433 438 CURVE",
"356 418 LINE",
"394 229 OFFCURVE",
"408 111 OFFCURVE",
"417 -41 CURVE"
);
}
);
vertOrigin = 25;
vertWidth = 1362;
width = 673;
}
);
unicode = 1B1B2;
},
{
glyphname = u1B1B3;
lastChange = "2020-04-06 13:23:00 +0000";
layers = (
{
layerId = "CFFEBDE4-599A-46B2-9328-D96E42CD9C81";
paths = (
{
closed = 1;
nodes = (
"667 162 OFFCURVE",
"690 179 OFFCURVE",
"690 218 CURVE SMOOTH",
"690 257 OFFCURVE",
"667 274 OFFCURVE",
"639 274 CURVE SMOOTH",
"610 274 OFFCURVE",
"587 257 OFFCURVE",
"587 218 CURVE SMOOTH",
"587 179 OFFCURVE",
"610 162 OFFCURVE",
"639 162 CURVE SMOOTH"
);
},
{
closed = 1;
nodes = (
"223 -35 OFFCURVE",
"246 -18 OFFCURVE",
"246 21 CURVE SMOOTH",
"246 60 OFFCURVE",
"223 77 OFFCURVE",
"195 77 CURVE SMOOTH",
"166 77 OFFCURVE",
"143 60 OFFCURVE",
"143 21 CURVE SMOOTH",
"143 -18 OFFCURVE",
"166 -35 OFFCURVE",
"195 -35 CURVE SMOOTH"
);
},
{
closed = 1;
nodes = (
"495 939 LINE",
"352 774 OFFCURVE",
"208 650 OFFCURVE",
"33 522 CURVE",
"84 453 LINE",
"259 580 OFFCURVE",
"404 704 OFFCURVE",
"561 884 CURVE"
);
},
{
closed = 1;
nodes = (
"477 734 OFFCURVE",
"501 692 OFFCURVE",
"501 629 CURVE SMOOTH",
"501 530 OFFCURVE",
"415 444 OFFCURVE",
"115 252 CURVE",
"162 180 LINE",
"491 388 OFFCURVE",
"587 501 OFFCURVE",
"587 629 CURVE SMOOTH",
"587 719 OFFCURVE",
"556 775 OFFCURVE",
"473 864 CURVE",
"424 793 LINE"
);
},
{
closed = 1;
nodes = (
"353 363 LINE",
"369 247 OFFCURVE",
"374 170 OFFCURVE",
"374 42 CURVE SMOOTH",
"374 -51 OFFCURVE",
"370 -113 OFFCURVE",
"362 -196 CURVE",
"447 -203 LINE",
"456 -122 OFFCURVE",
"460 -53 OFFCURVE",
"460 40 CURVE SMOOTH",
"460 170 OFFCURVE",
"454 263 OFFCURVE",
"419 408 CURVE"
);
}
);
vertOrigin = 25;
vertWidth = 1362;
width = 740;
}
);
unicode = 1B1B3;
},
{
glyphname = u1B1B4;
lastChange = "2020-04-06 13:23:21 +0000";
layers = (
{
background = {
paths = (
{
closed = 1;
nodes = (
"429 643 LINE",
"347 458 OFFCURVE",
"266 301 OFFCURVE",
"159 130 CURVE",
"212 53 LINE",
"324 229 OFFCURVE",
"397 363 OFFCURVE",
"471 525 CURVE"
);
},
{
closed = 1;
nodes = (
"294 860 LINE",
"205 663 OFFCURVE",
"113 484 OFFCURVE",
"20 330 CURVE",
"118 149 OFFCURVE",
"193 -13 OFFCURVE",
"251 -173 CURVE",
"339 -183 LINE",
"456 -7 OFFCURVE",
"540 136 OFFCURVE",
"634 321 CURVE",
"558 496 OFFCURVE",
"482 662 OFFCURVE",
"383 852 CURVE"
);
},
{
closed = 1;
nodes = (
"322 784 LINE",
"409 612 OFFCURVE",
"484 454 OFFCURVE",
"569 250 CURVE",
"573 398 LINE",
"485 211 OFFCURVE",
"387 43 OFFCURVE",
"289 -100 CURVE",
"321 -116 LINE",
"263 43 OFFCURVE",
"188 203 OFFCURVE",
"93 373 CURVE",
"87 271 LINE",
"202 472 OFFCURVE",
"282 629 OFFCURVE",
"358 791 CURVE"
);
}
);
};
layerId = "CFFEBDE4-599A-46B2-9328-D96E42CD9C81";
paths = (
{
closed = 1;
nodes = (
"354 391 OFFCURVE",
"280 258 OFFCURVE",
"186 114 CURVE",
"245 47 LINE",
"349 207 OFFCURVE",
"415 323 OFFCURVE",
"492 486 CURVE",
"470 495 LINE",
"504 423 OFFCURVE",
"535 346 OFFCURVE",
"572 248 CURVE",
"585 325 LINE",
"515 172 OFFCURVE",
"419 24 OFFCURVE",
"319 -107 CURVE",
"351 -116 LINE",
"294 42 OFFCURVE",
"218 194 OFFCURVE",
"123 376 CURVE",
"115 268 LINE",
"246 492 OFFCURVE",
"340 661 OFFCURVE",
"429 910 CURVE",
"348 939 LINE",
"261 698 OFFCURVE",
"170 532 OFFCURVE",
"50 330 CURVE",
"148 145 OFFCURVE",
"223 -13 OFFCURVE",
"281 -173 CURVE",
"368 -183 LINE",
"472 -53 OFFCURVE",
"568 91 OFFCURVE",
"654 271 CURVE",
"615 379 OFFCURVE",
"578 473 OFFCURVE",
"529 575 CURVE",
"437 575 LINE"
);
}
);
vertOrigin = 45;
vertWidth = 1362;
width = 704;
}
);
unicode = 1B1B4;
},
{
glyphname = u1B1B5;
lastChange = "2020-04-06 13:48:31 +0000";
layers = (
{
layerId = "CFFEBDE4-599A-46B2-9328-D96E42CD9C81";
paths = (
{
closed = 1;
nodes = (
"536 194 OFFCURVE",
"559 211 OFFCURVE",
"559 250 CURVE SMOOTH",
"559 289 OFFCURVE",
"536 306 OFFCURVE",
"508 306 CURVE SMOOTH",
"479 306 OFFCURVE",
"456 289 OFFCURVE",
"456 250 CURVE SMOOTH",
"456 211 OFFCURVE",
"479 194 OFFCURVE",
"508 194 CURVE SMOOTH"
);
},
{
closed = 1;
nodes = (
"522 495 OFFCURVE",
"545 512 OFFCURVE",
"545 551 CURVE SMOOTH",
"545 590 OFFCURVE",
"522 607 OFFCURVE",
"494 607 CURVE SMOOTH",
"465 607 OFFCURVE",
"442 590 OFFCURVE",
"442 551 CURVE SMOOTH",
"442 512 OFFCURVE",
"465 495 OFFCURVE",
"494 495 CURVE SMOOTH"
);
},
{
closed = 1;
nodes = (
"186 -203 LINE",
"317 7 OFFCURVE",
"375 169 OFFCURVE",
"375 352 CURVE SMOOTH",
"375 536 OFFCURVE",
"312 680 OFFCURVE",
"130 891 CURVE",
"67 835 LINE",
"248 630 OFFCURVE",
"289 504 OFFCURVE",
"289 349 CURVE SMOOTH",
"289 193 OFFCURVE",
"250 53 OFFCURVE",
"115 -158 CURVE"
);
},
{
closed = 1;
nodes = (
"361 939 LINE",
"272 768 OFFCURVE",
"178 641 OFFCURVE",
"40 519 CURVE",
"98 454 LINE",
"249 594 OFFCURVE",
"350 721 OFFCURVE",
"438 904 CURVE"
);
},
{
closed = 1;
nodes = (
"52 130 LINE",
"194 63 OFFCURVE",
"351 -37 OFFCURVE",
"452 -126 CURVE",
"502 -56 LINE",
"385 44 OFFCURVE",
"242 134 OFFCURVE",
"91 208 CURVE"
);
}
);
vertOrigin = 25;
vertWidth = 1362;
width = 639;
}
);
unicode = 1B1B5;
},
{
glyphname = u1B1B6;
lastChange = "2020-04-06 13:52:10 +0000";
layers = (
{
background = {
paths = (
{
closed = 1;
nodes = (
"293 -89 LINE",
"239 62 OFFCURVE",
"166 234 OFFCURVE",
"84 380 CURVE",
"10 336 LINE",
"87 200 OFFCURVE",
"164 24 OFFCURVE",
"224 -133 CURVE",
"325 -147 LINE",
"509 128 OFFCURVE",
"618 348 OFFCURVE",
"713 621 CURVE",
"631 648 LINE",
"536 377 OFFCURVE",
"431 157 OFFCURVE",
"265 -89 CURVE"
);
},
{
closed = 1;
nodes = (
"434 939 LINE",
"360 609 OFFCURVE",
"284 420 OFFCURVE",
"161 163 CURVE",
"210 85 LINE",
"366 391 OFFCURVE",
"440 588 OFFCURVE",
"518 921 CURVE"
);
},
{
closed = 1;
nodes = (
"86 702 LINE",
"201 504 OFFCURVE",
"302 288 OFFCURVE",
"396 53 CURVE",
"457 115 LINE",
"365 348 OFFCURVE",
"274 541 OFFCURVE",
"162 744 CURVE"
);
}
);
};
layerId = "CFFEBDE4-599A-46B2-9328-D96E42CD9C81";
paths = (
{
closed = 1;
nodes = (
"380 -44 LINE",
"539 189 OFFCURVE",
"641 388 OFFCURVE",
"743 707 CURVE",
"660 730 LINE",
"574 448 OFFCURVE",
"461 218 OFFCURVE",
"352 61 CURVE"
);
},
{
closed = 1;
nodes = (
"456 939 LINE",
"396 655 OFFCURVE",
"319 463 OFFCURVE",
"240 300 CURVE",
"297 242 LINE",
"403 440 OFFCURVE",
"473 634 OFFCURVE",
"540 922 CURVE"
);
},
{
closed = 1;
nodes = (
"152 766 LINE",
"309 562 OFFCURVE",
"408 410 OFFCURVE",
"492 251 CURVE",
"552 315 LINE",
"472 461 OFFCURVE",
"371 625 OFFCURVE",
"220 819 CURVE"
);
},
{
closed = 1;
nodes = (
"319 -56 OFFCURVE",
"301 -92 OFFCURVE",
"246 -92 CURVE SMOOTH",
"197 -92 OFFCURVE",
"171 -64 OFFCURVE",
"171 -19 CURVE SMOOTH",
"171 9 OFFCURVE",
"177 29 OFFCURVE",
"194 59 CURVE",
"129 93 LINE",
"102 55 OFFCURVE",
"89 17 OFFCURVE",
"89 -27 CURVE SMOOTH",
"89 -113 OFFCURVE",
"147 -178 OFFCURVE",
"238 -178 CURVE SMOOTH",
"350 -178 OFFCURVE",
"403 -101 OFFCURVE",
"403 12 CURVE SMOOTH",
"403 129 OFFCURVE",
"342 278 OFFCURVE",
"110 548 CURVE",
"46 491 LINE",
"267 236 OFFCURVE",
"319 119 OFFCURVE",
"319 9 CURVE SMOOTH"
);
}
);
vertOrigin = 30;
vertWidth = 1362;
width = 783;
}
);
unicode = 1B1B6;
},
{
glyphname = u1B1B7;
lastChange = "2020-04-06 13:57:13 +0000";
layers = (
{
layerId = "CFFEBDE4-599A-46B2-9328-D96E42CD9C81";
paths = (
{
closed = 1;
nodes = (
"555 939 LINE",
"425 739 OFFCURVE",
"324 624 OFFCURVE",
"195 508 CURVE",
"232 514 LINE",
"216 587 OFFCURVE",
"193 665 OFFCURVE",
"160 755 CURVE",
"81 724 LINE",
"116 634 OFFCURVE",
"141 561 OFFCURVE",
"162 474 CURVE",
"243 445 LINE",
"400 582 OFFCURVE",
"492 684 OFFCURVE",
"629 895 CURVE"
);
},
{
closed = 1;
nodes = (
"255 230 LINE",
"425 356 OFFCURVE",
"527 452 OFFCURVE",
"675 636 CURVE",
"607 689 LINE",
"479 526 OFFCURVE",
"363 417 OFFCURVE",
"204 299 CURVE"
);
},
{
closed = 1;
nodes = (
"570 -199 LINE",
"570 -55 OFFCURVE",
"563 59 OFFCURVE",
"536 205 CURVE",
"469 170 LINE",
"480 17 OFFCURVE",
"484 -65 OFFCURVE",
"484 -203 CURVE"
);
},
{
closed = 1;
nodes = (
"595 336 OFFCURVE",
"544 271 OFFCURVE",
"278 87 CURVE",
"327 16 LINE",
"616 215 OFFCURVE",
"681 300 OFFCURVE",
"681 443 CURVE SMOOTH",
"681 507 OFFCURVE",
"658 559 OFFCURVE",
"603 621 CURVE",
"552 563 LINE",
"582 526 OFFCURVE",
"595 487 OFFCURVE",
"595 443 CURVE"
);
}
);
vertOrigin = 25;
vertWidth = 1362;
width = 717;
}
);
unicode = 1B1B7;
},
{
glyphname = u1B1B8;
lastChange = "2020-04-06 13:58:07 +0000";
layers = (
{
background = {
paths = (
{
closed = 1;
nodes = (
"476 -293 LINE",
"494 -184 OFFCURVE",
"504 -86 OFFCURVE",
"504 30 CURVE SMOOTH",
"504 352 OFFCURVE",
"427 584 OFFCURVE",
"254 839 CURVE",
"184 792 LINE",
"356 541 OFFCURVE",
"418 344 OFFCURVE",
"418 30 CURVE SMOOTH",
"418 -82 OFFCURVE",
"410 -176 OFFCURVE",
"392 -285 CURVE"
);
},
{
closed = 1;
nodes = (
"525 939 LINE",
"417 709 OFFCURVE",
"294 536 OFFCURVE",
"103 335 CURVE",
"166 276 LINE",
"377 496 OFFCURVE",
"487 656 OFFCURVE",
"605 906 CURVE"
);
},
{
closed = 1;
nodes = (
"625 607 LINE",
"504 411 OFFCURVE",
"377 245 OFFCURVE",
"176 75 CURVE",
"233 11 LINE",
"430 178 OFFCURVE",
"570 354 OFFCURVE",
"696 559 CURVE"
);
}
);
};
layerId = "CFFEBDE4-599A-46B2-9328-D96E42CD9C81";
paths = (
{
closed = 1;
nodes = (
"132 271 OFFCURVE",
"155 288 OFFCURVE",
"155 327 CURVE SMOOTH",
"155 366 OFFCURVE",
"132 383 OFFCURVE",
"104 383 CURVE SMOOTH",
"75 383 OFFCURVE",
"52 366 OFFCURVE",
"52 327 CURVE SMOOTH",
"52 288 OFFCURVE",
"75 271 OFFCURVE",
"104 271 CURVE SMOOTH"
);
},
{
closed = 1;
nodes = (
"198 7 OFFCURVE",
"221 24 OFFCURVE",
"221 63 CURVE SMOOTH",
"221 102 OFFCURVE",
"198 119 OFFCURVE",
"170 119 CURVE SMOOTH",
"143 119 OFFCURVE",
"118 102 OFFCURVE",
"118 63 CURVE SMOOTH",
"118 24 OFFCURVE",
"141 7 OFFCURVE",
"170 7 CURVE SMOOTH"
);
},
{
closed = 1;
nodes = (
"535 -203 LINE",
"548 -104 OFFCURVE",
"553 -24 OFFCURVE",
"553 78 CURVE SMOOTH",
"553 392 OFFCURVE",
"471 623 OFFCURVE",
"301 901 CURVE",
"228 856 LINE",
"383 613 OFFCURVE",
"467 384 OFFCURVE",
"467 78 CURVE SMOOTH",
"467 -20 OFFCURVE",
"463 -102 OFFCURVE",
"450 -196 CURVE"
);
},
{
closed = 1;
nodes = (
"562 939 LINE",
"451 743 OFFCURVE",
"341 597 OFFCURVE",
"192 447 CURVE",
"253 386 LINE",
"418 556 OFFCURVE",
"516 687 OFFCURVE",
"640 902 CURVE"
);
},
{
closed = 1;
nodes = (
"692 669 LINE",
"557 465 OFFCURVE",
"443 336 OFFCURVE",
"265 179 CURVE",
"322 115 LINE",
"496 268 OFFCURVE",
"625 409 OFFCURVE",
"765 623 CURVE"
);
}
);
vertOrigin = 25;
vertWidth = 1362;
width = 788;
}
);
unicode = 1B1B8;
},
{
glyphname = u1B1B9;
lastChange = "2020-04-06 14:00:48 +0000";
layers = (
{
layerId = "CFFEBDE4-599A-46B2-9328-D96E42CD9C81";
paths = (
{
closed = 1;
nodes = (
"498 939 LINE",
"382 732 OFFCURVE",
"259 574 OFFCURVE",
"91 397 CURVE",
"154 338 LINE",
"320 511 OFFCURVE",
"455 686 OFFCURVE",
"574 899 CURVE"
);
},
{
closed = 1;
nodes = (
"588 504 LINE",
"490 359 OFFCURVE",
"399 250 OFFCURVE",
"255 126 CURVE",
"312 64 LINE",
"441 175 OFFCURVE",
"545 289 OFFCURVE",
"659 459 CURVE"
);
},
{
closed = 1;
nodes = (
"479 272 LINE",
"423 479 OFFCURVE",
"346 661 OFFCURVE",
"221 868 CURVE",
"148 827 LINE",
"273 617 OFFCURVE",
"351 426 OFFCURVE",
"407 235 CURVE"
);
},
{
closed = 1;
nodes = (
"133 99 LINE",
"187 9 OFFCURVE",
"222 -64 OFFCURVE",
"258 -165 CURVE",
"339 -134 LINE",
"293 -16 OFFCURVE",
"248 64 OFFCURVE",
"174 165 CURVE"
);
},
{
closed = 1;
nodes = (
"110 227 LINE",
"93 61 OFFCURVE",
"69 -49 OFFCURVE",
"20 -179 CURVE",
"103 -203 LINE",
"138 -102 OFFCURVE",
"155 -24 OFFCURVE",
"167 72 CURVE",
"185 126 LINE",
"189 156 OFFCURVE",
"193 186 OFFCURVE",
"196 218 CURVE"
);
}
);
vertOrigin = 25;
vertWidth = 1362;
width = 681;
}
);
unicode = 1B1B9;
},
{
glyphname = u1B1BA;
lastChange = "2020-04-06 14:02:38 +0000";
layers = (
{
background = {
paths = (
{
closed = 1;
nodes = (
"260 356 OFFCURVE",
"368 239 OFFCURVE",
"440 131 CURVE",
"440 189 LINE",
"363 12 OFFCURVE",
"293 -110 OFFCURVE",
"206 -251 CURVE",
"275 -293 LINE",
"368 -146 OFFCURVE",
"440 -19 OFFCURVE",
"521 168 CURVE",
"431 294 OFFCURVE",
"324 416 OFFCURVE",
"217 528 CURVE",
"217 491 LINE",
"285 620 OFFCURVE",
"344 759 OFFCURVE",
"393 917 CURVE",
"311 939 LINE",
"263 782 OFFCURVE",
"217 661 OFFCURVE",
"130 496 CURVE"
);
},
{
closed = 1;
nodes = (
"437 614 LINE",
"346 416 OFFCURVE",
"254 265 OFFCURVE",
"144 102 CURVE",
"206 54 LINE",
"331 237 OFFCURVE",
"419 380 OFFCURVE",
"507 581 CURVE"
);
}
);
};
layerId = "CFFEBDE4-599A-46B2-9328-D96E42CD9C81";
paths = (
{
closed = 1;
nodes = (
"242 619 OFFCURVE",
"307 728 OFFCURVE",
"390 905 CURVE",
"311 939 LINE",
"229 767 OFFCURVE",
"163 649 OFFCURVE",
"50 494 CURVE",
"107 376 OFFCURVE",
"145 286 OFFCURVE",
"182 184 CURVE",
"266 175 LINE",
"348 273 OFFCURVE",
"428 396 OFFCURVE",
"490 511 CURVE",
"452 508 LINE",
"502 390 OFFCURVE",
"537 293 OFFCURVE",
"571 173 CURVE",
"570 249 LINE",
"487 95 OFFCURVE",
"408 -24 OFFCURVE",
"309 -151 CURVE",
"377 -203 LINE",
"493 -53 OFFCURVE",
"562 54 OFFCURVE",
"648 219 CURVE",
"609 349 OFFCURVE",
"572 450 OFFCURVE",
"518 572 CURVE",
"430 573 LINE",
"362 455 OFFCURVE",
"296 347 OFFCURVE",
"209 236 CURVE",
"252 241 LINE",
"221 327 OFFCURVE",
"183 414 OFFCURVE",
"127 532 CURVE",
"128 458 LINE"
);
}
);
vertOrigin = 25;
vertWidth = 1362;
width = 698;
}
);
unicode = 1B1BA;
},
{
glyphname = u1B1BB;
lastChange = "2020-04-06 14:06:30 +0000";
layers = (
{
layerId = "CFFEBDE4-599A-46B2-9328-D96E42CD9C81";
paths = (
{
closed = 1;
nodes = (
"340 863 LINE",
"395 723 OFFCURVE",
"442 566 OFFCURVE",
"474 432 CURVE",
"500 533 LINE",
"401 420 OFFCURVE",
"328 344 OFFCURVE",
"231 258 CURVE",
"269 175 LINE",
"377 272 OFFCURVE",
"458 355 OFFCURVE",
"554 462 CURVE",
"516 621 OFFCURVE",
"468 781 OFFCURVE",
"405 923 CURVE",
"324 929 LINE",
"244 822 OFFCURVE",
"170 736 OFFCURVE",
"81 642 CURVE",
"185 404 OFFCURVE",
"212 188 OFFCURVE",
"212 -11 CURVE SMOOTH",
"212 -78 OFFCURVE",
"208 -146 OFFCURVE",
"202 -196 CURVE",
"286 -203 LINE",
"294 -150 OFFCURVE",
"298 -81 OFFCURVE",
"298 -12 CURVE SMOOTH",
"298 211 OFFCURVE",
"269 413 OFFCURVE",
"169 656 CURVE",
"144 584 LINE",
"231 676 OFFCURVE",
"305 761 OFFCURVE",
"384 865 CURVE"
);
},
{
closed = 1;
nodes = (
"429 747 LINE",
"342 637 OFFCURVE",
"270 561 OFFCURVE",
"176 469 CURVE",
"220 393 LINE",
"319 487 OFFCURVE",
"399 573 OFFCURVE",
"478 669 CURVE"
);
}
);
vertOrigin = 25;
vertWidth = 1362;
width = 597;
}
);
unicode = 1B1BB;
},
{
glyphname = u1B1BC;
lastChange = "2020-04-06 14:10:34 +0000";
layers = (
{
layerId = "CFFEBDE4-599A-46B2-9328-D96E42CD9C81";
paths = (
{
closed = 1;
nodes = (
"405 -183 LINE",
"493 -118 OFFCURVE",
"598 -22 OFFCURVE",
"677 58 CURVE",
"650 159 OFFCURVE",
"626 244 OFFCURVE",
"588 341 CURVE",
"513 351 LINE",
"430 257 OFFCURVE",
"344 174 OFFCURVE",
"245 91 CURVE",
"285 -2 OFFCURVE",
"317 -95 OFFCURVE",
"340 -171 CURVE"
);
},
{
closed = 1;
nodes = (
"416 -128 LINE",
"395 -56 OFFCURVE",
"362 38 OFFCURVE",
"328 117 CURVE",
"299 23 LINE",
"402 113 OFFCURVE",
"487 191 OFFCURVE",
"568 285 CURVE",
"517 286 LINE",
"549 203 OFFCURVE",
"570 124 OFFCURVE",
"591 42 CURVE",
"626 130 LINE",
"531 32 OFFCURVE",
"454 -37 OFFCURVE",
"370 -102 CURVE"
);
},
{
closed = 1;
nodes = (
"459 939 LINE",
"300 731 OFFCURVE",
"190 610 OFFCURVE",
"24 459 CURVE",
"83 397 LINE",
"246 548 OFFCURVE",
"370 677 OFFCURVE",
"529 888 CURVE"
);
},
{
closed = 1;
nodes = (
"510 620 LINE",
"400 490 OFFCURVE",
"292 383 OFFCURVE",
"154 262 CURVE",
"210 198 LINE",
"344 313 OFFCURVE",
"457 423 OFFCURVE",
"576 565 CURVE"
);
},
{
closed = 1;
nodes = (
"389 378 LINE",
"340 520 OFFCURVE",
"277 674 OFFCURVE",
"172 876 CURVE",
"95 837 LINE",
"207 626 OFFCURVE",
"270 475 OFFCURVE",
"323 315 CURVE"
);
}
);
vertOrigin = 25;
vertWidth = 1362;
width = 693;
}
);
unicode = 1B1BC;
},
{
glyphname = u1B1BD;
lastChange = "2020-04-06 14:16:07 +0000";
layers = (
{
layerId = "CFFEBDE4-599A-46B2-9328-D96E42CD9C81";
paths = (
{
closed = 1;
nodes = (
"132 659 OFFCURVE",
"185 601 OFFCURVE",
"223 548 CURVE",
"242 516 LINE",
"270 455 OFFCURVE",
"282 391 OFFCURVE",
"282 321 CURVE SMOOTH",
"282 166 OFFCURVE",
"231 74 OFFCURVE",
"115 -64 CURVE",
"176 -115 LINE",
"303 33 OFFCURVE",
"364 160 OFFCURVE",
"364 323 CURVE SMOOTH",
"364 413 OFFCURVE",
"345 495 OFFCURVE",
"303 576 CURVE",
"276 610 LINE",
"237 665 OFFCURVE",
"190 720 OFFCURVE",
"128 775 CURVE",
"72 713 LINE"
);
},
{
closed = 1;
nodes = (
"378 939 LINE",
"329 725 OFFCURVE",
"263 605 OFFCURVE",
"96 429 CURVE",
"159 373 LINE",
"324 553 OFFCURVE",
"407 693 OFFCURVE",
"460 922 CURVE"
);
},
{
closed = 1;
nodes = (
"349 -78 OFFCURVE",
"332 14 OFFCURVE",
"294 95 CURVE",
"265 141 LINE",
"237 190 OFFCURVE",
"201 236 OFFCURVE",
"157 283 CURVE",
"98 229 LINE",
"154 170 OFFCURVE",
"193 118 OFFCURVE",
"220 62 CURVE",
"246 11 LINE",
"266 -49 OFFCURVE",
"276 -116 OFFCURVE",
"280 -203 CURVE",
"360 -198 LINE"
);
},
{
closed = 1;
nodes = (
"353 749 LINE",
"445 592 OFFCURVE",
"521 494 OFFCURVE",
"652 379 CURVE",
"708 442 LINE",
"579 557 OFFCURVE",
"504 651 OFFCURVE",
"407 808 CURVE"
);
},
{
closed = 1;
nodes = (
"537 439 OFFCURVE",
"543 480 OFFCURVE",
"554 521 CURVE",
"567 552 LINE",
"600 621 OFFCURVE",
"641 679 OFFCURVE",
"704 748 CURVE",
"641 807 LINE",
"584 744 OFFCURVE",
"541 686 OFFCURVE",
"506 620 CURVE",
"491 587 LINE",
"466 523 OFFCURVE",
"455 458 OFFCURVE",
"455 394 CURVE SMOOTH",
"455 234 OFFCURVE",
"507 108 OFFCURVE",
"632 2 CURVE",
"687 60 LINE",
"574 166 OFFCURVE",
"537 253 OFFCURVE",
"537 396 CURVE SMOOTH"
);
}
);
vertOrigin = 25;
vertWidth = 1362;
width = 792;
}
);
unicode = 1B1BD;
},
{
glyphname = u1B1BE;
lastChange = "2020-04-06 14:19:32 +0000";
layers = (
{
layerId = "CFFEBDE4-599A-46B2-9328-D96E42CD9C81";
paths = (
{
closed = 1;
nodes = (
"446 939 LINE",
"446 559 OFFCURVE",
"387 326 OFFCURVE",
"266 147 CURVE",
"334 101 LINE",
"456 280 OFFCURVE",
"531 553 OFFCURVE",
"531 936 CURVE"
);
},
{
closed = 1;
nodes = (
"229 604 LINE",
"208 467 OFFCURVE",
"178 397 OFFCURVE",
"111 323 CURVE",
"167 275 LINE",
"239 352 OFFCURVE",
"282 447 OFFCURVE",
"306 593 CURVE"
);
},
{
closed = 1;
nodes = (
"546 278 OFFCURVE",
"565 353 OFFCURVE",
"609 440 CURVE",
"680 408 LINE",
"639 326 OFFCURVE",
"628 267 OFFCURVE",
"628 187 CURVE SMOOTH",
"628 99 OFFCURVE",
"644 37 OFFCURVE",
"685 -38 CURVE",
"617 -75 LINE",
"569 2 OFFCURVE",
"546 86 OFFCURVE",
"546 187 CURVE SMOOTH"
);
},
{
closed = 1;
nodes = (
"133 99 LINE",
"187 9 OFFCURVE",
"222 -64 OFFCURVE",
"258 -165 CURVE",
"339 -134 LINE",
"293 -16 OFFCURVE",
"248 64 OFFCURVE",
"174 165 CURVE"
);
},
{
closed = 1;
nodes = (
"110 227 LINE",
"93 61 OFFCURVE",
"69 -49 OFFCURVE",
"20 -179 CURVE",
"103 -203 LINE",
"138 -102 OFFCURVE",
"155 -24 OFFCURVE",
"167 72 CURVE",
"185 126 LINE",
"189 156 OFFCURVE",
"193 186 OFFCURVE",
"196 218 CURVE"
);
}
);
vertOrigin = 25;
vertWidth = 1362;
width = 726;
}
);
unicode = 1B1BE;
},
{
glyphname = u1B1BF;
lastChange = "2020-04-06 14:20:23 +0000";
layers = (
{
layerId = "CFFEBDE4-599A-46B2-9328-D96E42CD9C81";
paths = (
{
closed = 1;
nodes = (
"560 909 LINE",
"483 645 OFFCURVE",
"383 439 OFFCURVE",
"252 224 CURVE",
"296 228 LINE",
"253 363 OFFCURVE",
"200 485 OFFCURVE",
"131 598 CURVE",
"57 556 LINE",
"131 430 OFFCURVE",
"178 324 OFFCURVE",
"222 194 CURVE",
"313 179 LINE",
"463 408 OFFCURVE",
"568 621 OFFCURVE",
"643 887 CURVE"
);
},
{
closed = 1;
nodes = (
"586 381 LINE",
"492 160 OFFCURVE",
"394 -2 OFFCURVE",
"269 -150 CURVE",
"334 -203 LINE",
"456 -57 OFFCURVE",
"567 119 OFFCURVE",
"666 350 CURVE"
);
},
{
closed = 1;
nodes = (
"30 223 OFFCURVE",
"53 240 OFFCURVE",
"53 279 CURVE SMOOTH",
"53 318 OFFCURVE",
"30 335 OFFCURVE",
"2 335 CURVE SMOOTH",
"-27 335 OFFCURVE",
"-50 318 OFFCURVE",
"-50 279 CURVE SMOOTH",
"-50 240 OFFCURVE",
"-27 223 OFFCURVE",
"2 223 CURVE SMOOTH"
);
},
{
closed = 1;
nodes = (
"328 635 OFFCURVE",
"351 652 OFFCURVE",
"351 691 CURVE SMOOTH",
"351 730 OFFCURVE",
"328 747 OFFCURVE",
"300 747 CURVE SMOOTH",
"271 747 OFFCURVE",
"248 730 OFFCURVE",
"248 691 CURVE SMOOTH",
"248 652 OFFCURVE",
"271 635 OFFCURVE",
"300 635 CURVE SMOOTH"
);
}
);
vertOrigin = 45;
vertWidth = 1362;
width = 704;
}
);
unicode = 1B1BF;
},
{
glyphname = u1B1C0;
lastChange = "2020-04-06 14:24:32 +0000";
layers = (
{
layerId = "CFFEBDE4-599A-46B2-9328-D96E42CD9C81";
paths = (
{
closed = 1;
nodes = (
"445 -203 LINE",
"455 -103 OFFCURVE",
"458 -37 OFFCURVE",
"458 81 CURVE SMOOTH",
"458 351 OFFCURVE",
"403 623 OFFCURVE",
"278 939 CURVE",
"198 909 LINE",
"325 586 OFFCURVE",
"372 333 OFFCURVE",
"372 83 CURVE SMOOTH",
"372 -31 OFFCURVE",
"369 -111 OFFCURVE",
"361 -196 CURVE"
);
},
{
closed = 1;
nodes = (
"502 904 LINE",
"357 777 OFFCURVE",
"202 662 OFFCURVE",
"40 559 CURVE",
"76 410 OFFCURVE",
"95 293 OFFCURVE",
"111 174 CURVE",
"183 147 LINE",
"344 242 OFFCURVE",
"526 358 OFFCURVE",
"686 476 CURVE",
"659 625 OFFCURVE",
"630 745 OFFCURVE",
"593 878 CURVE"
);
},
{
closed = 1;
nodes = (
"509 854 LINE",
"549 717 OFFCURVE",
"576 599 OFFCURVE",
"600 472 CURVE",
"632 543 LINE",
"484 434 OFFCURVE",
"293 309 OFFCURVE",
"154 231 CURVE",
"193 214 LINE",
"177 320 OFFCURVE",
"155 450 OFFCURVE",
"126 569 CURVE",
"93 488 LINE",
"249 591 OFFCURVE",
"406 710 OFFCURVE",
"554 833 CURVE"
);
}
);
vertOrigin = 25;
vertWidth = 1362;
width = 682;
}
);
unicode = 1B1C0;
},
{
glyphname = u1B1C1;
lastChange = "2020-04-06 16:50:20 +0000";
layers = (
{
layerId = "CFFEBDE4-599A-46B2-9328-D96E42CD9C81";
paths = (
{
closed = 1;
nodes = (
"696 565 OFFCURVE",
"719 582 OFFCURVE",
"719 621 CURVE SMOOTH",
"719 660 OFFCURVE",
"696 677 OFFCURVE",
"668 677 CURVE SMOOTH",
"639 677 OFFCURVE",
"616 660 OFFCURVE",
"616 621 CURVE SMOOTH",
"616 582 OFFCURVE",
"639 565 OFFCURVE",
"668 565 CURVE SMOOTH"
);
},
{
closed = 1;
nodes = (
"56 296 OFFCURVE",
"79 313 OFFCURVE",
"79 352 CURVE SMOOTH",
"79 391 OFFCURVE",
"56 408 OFFCURVE",
"28 408 CURVE SMOOTH",
"-1 408 OFFCURVE",
"-24 391 OFFCURVE",
"-24 352 CURVE SMOOTH",
"-24 313 OFFCURVE",
"-1 296 OFFCURVE",
"28 296 CURVE SMOOTH"
);
},
{
closed = 1;
nodes = (
"160 588 OFFCURVE",
"199 438 OFFCURVE",
"199 270 CURVE SMOOTH",
"199 100 OFFCURVE",
"175 -32 OFFCURVE",
"123 -178 CURVE",
"201 -203 LINE",
"256 -56 OFFCURVE",
"283 86 OFFCURVE",
"283 270 CURVE SMOOTH",
"283 461 OFFCURVE",
"236 619 OFFCURVE",
"138 789 CURVE",
"67 747 LINE"
);
},
{
closed = 1;
nodes = (
"456 668 OFFCURVE",
"357 503 OFFCURVE",
"226 376 CURVE",
"261 299 LINE",
"428 463 OFFCURVE",
"524 612 OFFCURVE",
"580 928 CURVE",
"494 939 LINE"
);
},
{
closed = 1;
nodes = (
"390 551 LINE",
"444 438 OFFCURVE",
"490 296 OFFCURVE",
"515 134 CURVE",
"600 148 LINE",
"571 335 OFFCURVE",
"515 484 OFFCURVE",
"443 615 CURVE"
);
}
);
vertOrigin = 25;
vertWidth = 1362;
width = 788;
}
);
unicode = 1B1C1;
},
{
glyphname = u1B1C2;
lastChange = "2020-04-06 18:38:46 +0000";
layers = (
{
background = {
paths = (
{
closed = 1;
nodes = (
"419 939 LINE",
"318 703 OFFCURVE",
"200 556 OFFCURVE",
"40 403 CURVE",
"99 345 LINE",
"285 522 OFFCURVE",
"391 673 OFFCURVE",
"499 909 CURVE"
);
},
{
closed = 1;
nodes = (
"582 647 LINE",
"439 428 OFFCURVE",
"308 282 OFFCURVE",
"115 113 CURVE",
"172 54 LINE",
"347 201 OFFCURVE",
"506 376 OFFCURVE",
"654 606 CURVE"
);
},
{
closed = 1;
nodes = (
"382 -293 LINE",
"496 -185 OFFCURVE",
"573 -81 OFFCURVE",
"661 79 CURVE",
"583 117 LINE",
"497 -50 OFFCURVE",
"421 -143 OFFCURVE",
"354 -222 CURVE",
"379 -227 LINE",
"400 -130 OFFCURVE",
"410 -50 OFFCURVE",
"410 84 CURVE SMOOTH",
"410 284 OFFCURVE",
"379 466 OFFCURVE",
"326 682 CURVE",
"262 585 LINE",
"306 403 OFFCURVE",
"326 255 OFFCURVE",
"326 70 CURVE SMOOTH",
"326 -72 OFFCURVE",
"317 -148 OFFCURVE",
"293 -266 CURVE"
);
}
);
};
layerId = "CFFEBDE4-599A-46B2-9328-D96E42CD9C81";
paths = (
{
closed = 1;
nodes = (
"503 272 LINE",
"574 145 OFFCURVE",
"634 -2 OFFCURVE",
"683 -149 CURVE",
"762 -121 LINE",
"706 45 OFFCURVE",
"645 188 OFFCURVE",
"574 312 CURVE"
);
},
{
closed = 1;
nodes = (
"432 202 OFFCURVE",
"391 459 OFFCURVE",
"316 676 CURVE",
"256 608 LINE",
"316 405 OFFCURVE",
"344 189 OFFCURVE",
"355 -112 CURVE",
"442 -153 LINE",
"559 -52 OFFCURVE",
"661 60 OFFCURVE",
"807 266 CURVE",
"735 313 LINE",
"594 112 OFFCURVE",
"503 5 OFFCURVE",
"414 -80 CURVE",
"436 -87 LINE"
);
},
{
closed = 1;
nodes = (
"479 939 LINE",
"365 743 OFFCURVE",
"235 580 OFFCURVE",
"63 428 CURVE",
"121 364 LINE",
"290 516 OFFCURVE",
"438 695 OFFCURVE",
"554 897 CURVE"
);
},
{
closed = 1;
nodes = (
"564 642 LINE",
"430 442 OFFCURVE",
"297 302 OFFCURVE",
"129 156 CURVE",
"187 93 LINE",
"351 236 OFFCURVE",
"495 379 OFFCURVE",
"635 594 CURVE"
);
}
);
vertOrigin = 25;
vertWidth = 1362;
width = 806;
}
);
unicode = 1B1C2;
},
{
glyphname = u1B1C3;
lastChange = "2020-04-06 14:33:26 +0000";
layers = (
{
background = {
paths = (
{
closed = 1;
nodes = (
"310 939 LINE",
"310 396 OFFCURVE",
"288 249 OFFCURVE",
"239 68 CURVE",
"323 49 LINE",
"354 185 OFFCURVE",
"377 314 OFFCURVE",
"377 559 CURVE",
"393 625 LINE",
"395 713 OFFCURVE",
"396 815 OFFCURVE",
"396 937 CURVE"
);
},
{
closed = 1;
nodes = (
"347 570 LINE",
"412 462 OFFCURVE",
"458 375 OFFCURVE",
"498 284 CURVE",
"576 320 LINE",
"524 434 OFFCURVE",
"464 525 OFFCURVE",
"383 634 CURVE"
);
},
{
closed = 1;
nodes = (
"406 693 OFFCURVE",
"240 566 OFFCURVE",
"80 471 CURVE",
"109 276 OFFCURVE",
"120 137 OFFCURVE",
"120 24 CURVE SMOOTH",
"120 -76 OFFCURVE",
"114 -136 OFFCURVE",
"105 -194 CURVE",
"190 -203 LINE",
"198 -142 OFFCURVE",
"204 -70 OFFCURVE",
"204 26 CURVE SMOOTH",
"204 145 OFFCURVE",
"194 289 OFFCURVE",
"160 485 CURVE",
"133 401 LINE",
"286 495 OFFCURVE",
"453 623 OFFCURVE",
"594 760 CURVE",
"562 774 LINE",
"604 625 OFFCURVE",
"615 486 OFFCURVE",
"615 338 CURVE SMOOTH",
"615 252 OFFCURVE",
"613 214 OFFCURVE",
"606 134 CURVE",
"690 125 LINE",
"698 223 OFFCURVE",
"699 262 OFFCURVE",
"699 344 CURVE SMOOTH",
"699 482 OFFCURVE",
"686 643 OFFCURVE",
"639 815 CURVE",
"547 836 LINE"
);
}
);
};
layerId = "CFFEBDE4-599A-46B2-9328-D96E42CD9C81";
paths = (
{
closed = 1;
nodes = (
"571 853 LINE",
"601 689 OFFCURVE",
"612 555 OFFCURVE",
"612 397 CURVE SMOOTH",
"612 296 OFFCURVE",
"609 207 OFFCURVE",
"602 111 CURVE",
"688 106 LINE",
"696 208 OFFCURVE",
"698 299 OFFCURVE",
"698 408 CURVE SMOOTH",
"698 562 OFFCURVE",
"684 730 OFFCURVE",
"648 901 CURVE",
"557 919 LINE",
"392 769 OFFCURVE",
"245 655 OFFCURVE",
"90 548 CURVE",
"112 374 OFFCURVE",
"120 260 OFFCURVE",
"120 29 CURVE SMOOTH",
"120 -64 OFFCURVE",
"117 -116 OFFCURVE",
"105 -194 CURVE",
"189 -203 LINE",
"201 -128 OFFCURVE",
"204 -56 OFFCURVE",
"204 29 CURVE SMOOTH",
"204 277 OFFCURVE",
"194 404 OFFCURVE",
"175 555 CURVE",
"153 487 LINE",
"293 584 OFFCURVE",
"451 706 OFFCURVE",
"618 860 CURVE"
);
},
{
closed = 1;
nodes = (
"221 438 LINE",
"328 354 OFFCURVE",
"441 244 OFFCURVE",
"524 138 CURVE",
"588 195 LINE",
"494 313 OFFCURVE",
"384 421 OFFCURVE",
"274 506 CURVE"
);
},
{
closed = 1;
nodes = (
"466 666 LINE",
"414 447 OFFCURVE",
"347 253 OFFCURVE",
"233 46 CURVE",
"308 8 LINE",
"426 228 OFFCURVE",
"492 405 OFFCURVE",
"550 646 CURVE"
);
}
);
vertOrigin = 25;
vertWidth = 1362;
width = 728;
}
);
unicode = 1B1C3;
},
{
glyphname = u1B1C4;
lastChange = "2020-04-06 14:36:35 +0000";
layers = (
{
background = {
paths = (
{
closed = 1;
nodes = (
"92 344 LINE",
"230 170 OFFCURVE",
"358 -24 OFFCURVE",
"447 -203 CURVE",
"524 -165 LINE",
"422 32 OFFCURVE",
"295 225 OFFCURVE",
"146 415 CURVE",
"148 343 LINE",
"300 554 OFFCURVE",
"387 696 OFFCURVE",
"476 907 CURVE",
"396 939 LINE",
"312 736 OFFCURVE",
"222 588 OFFCURVE",
"92 415 CURVE"
);
},
{
closed = 1;
nodes = (
"338 596 OFFCURVE",
"390 488 OFFCURVE",
"390 380 CURVE SMOOTH",
"390 244 OFFCURVE",
"329 137 OFFCURVE",
"91 -98 CURVE",
"152 -158 LINE",
"384 69 OFFCURVE",
"476 205 OFFCURVE",
"476 380 CURVE SMOOTH",
"476 524 OFFCURVE",
"403 648 OFFCURVE",
"136 854 CURVE",
"83 786 LINE"
);
}
);
};
layerId = "CFFEBDE4-599A-46B2-9328-D96E42CD9C81";
paths = (
{
closed = 1;
nodes = (
"444 292 OFFCURVE",
"471 237 OFFCURVE",
"566 184 CURVE",
"647 205 LINE",
"692 305 OFFCURVE",
"719 382 OFFCURVE",
"719 473 CURVE SMOOTH",
"719 554 OFFCURVE",
"683 604 OFFCURVE",
"591 665 CURVE",
"513 650 LINE",
"464 534 OFFCURVE",
"444 456 OFFCURVE",
"444 378 CURVE SMOOTH"
);
},
{
closed = 1;
nodes = (
"543 607 LINE",
"611 551 OFFCURVE",
"637 523 OFFCURVE",
"637 458 CURVE SMOOTH",
"637 401 OFFCURVE",
"615 331 OFFCURVE",
"576 232 CURVE",
"605 249 LINE",
"552 287 OFFCURVE",
"526 321 OFFCURVE",
"526 387 CURVE SMOOTH",
"526 443 OFFCURVE",
"545 509 OFFCURVE",
"579 604 CURVE"
);
},
{
closed = 1;
nodes = (
"92 344 LINE",
"218 164 OFFCURVE",
"326 -17 OFFCURVE",
"407 -203 CURVE",
"484 -165 LINE",
"390 39 OFFCURVE",
"282 219 OFFCURVE",
"145 415 CURVE",
"147 343 LINE",
"282 554 OFFCURVE",
"358 701 OFFCURVE",
"438 912 CURVE",
"356 939 LINE",
"281 736 OFFCURVE",
"205 588 OFFCURVE",
"92 415 CURVE"
);
},
{
closed = 1;
nodes = (
"260 596 OFFCURVE",
"321 493 OFFCURVE",
"321 380 CURVE SMOOTH",
"321 244 OFFCURVE",
"258 122 OFFCURVE",
"92 -100 CURVE",
"158 -149 LINE",
"318 65 OFFCURVE",
"401 205 OFFCURVE",
"401 380 CURVE SMOOTH",
"401 529 OFFCURVE",
"333 638 OFFCURVE",
"136 854 CURVE",
"75 796 LINE"
);
}
);
vertOrigin = 25;
vertWidth = 1362;
width = 779;
}
);
unicode = 1B1C4;
},
{
glyphname = u1B1C5;
lastChange = "2020-04-06 14:38:54 +0000";
layers = (
{
layerId = "CFFEBDE4-599A-46B2-9328-D96E42CD9C81";
paths = (
{
closed = 1;
nodes = (
"273 1 OFFCURVE",
"296 18 OFFCURVE",
"296 57 CURVE SMOOTH",
"296 96 OFFCURVE",
"273 113 OFFCURVE",
"245 113 CURVE SMOOTH",
"216 113 OFFCURVE",
"193 96 OFFCURVE",
"193 57 CURVE SMOOTH",
"193 18 OFFCURVE",
"216 1 OFFCURVE",
"245 1 CURVE SMOOTH"
);
},
{
closed = 1;
nodes = (
"530 386 OFFCURVE",
"553 403 OFFCURVE",
"553 442 CURVE SMOOTH",
"553 481 OFFCURVE",
"530 498 OFFCURVE",
"502 498 CURVE SMOOTH",
"473 498 OFFCURVE",
"450 481 OFFCURVE",
"450 442 CURVE SMOOTH",
"450 403 OFFCURVE",
"473 386 OFFCURVE",
"502 386 CURVE SMOOTH"
);
},
{
closed = 1;
nodes = (
"518 68 LINE",
"387 323 OFFCURVE",
"263 531 OFFCURVE",
"92 780 CURVE",
"21 731 LINE",
"189 490 OFFCURVE",
"318 273 OFFCURVE",
"441 30 CURVE"
);
},
{
closed = 1;
nodes = (
"468 939 LINE",
"336 624 OFFCURVE",
"190 362 OFFCURVE",
"23 130 CURVE",
"93 80 LINE",
"255 304 OFFCURVE",
"409 576 OFFCURVE",
"548 909 CURVE"
);
},
{
closed = 1;
nodes = (
"634 383 LINE",
"531 194 OFFCURVE",
"406 1 OFFCURVE",
"287 -151 CURVE",
"355 -203 LINE",
"492 -27 OFFCURVE",
"596 138 OFFCURVE",
"710 343 CURVE"
);
}
);
vertOrigin = 25;
vertWidth = 1362;
width = 721;
}
);
unicode = 1B1C5;
},
{
glyphname = u1B1C6;
lastChange = "2020-04-06 14:49:18 +0000";
layers = (
{
background = {
paths = (
{
closed = 1;
nodes = (
"277 -5 OFFCURVE",
"300 12 OFFCURVE",
"300 51 CURVE SMOOTH",
"300 90 OFFCURVE",
"277 107 OFFCURVE",
"249 107 CURVE SMOOTH",
"220 107 OFFCURVE",
"197 90 OFFCURVE",
"197 51 CURVE SMOOTH",
"197 12 OFFCURVE",
"220 -5 OFFCURVE",
"249 -5 CURVE SMOOTH"
);
},
{
closed = 1;
nodes = (
"530 386 OFFCURVE",
"553 403 OFFCURVE",
"553 442 CURVE SMOOTH",
"553 481 OFFCURVE",
"530 498 OFFCURVE",
"502 498 CURVE SMOOTH",
"473 498 OFFCURVE",
"450 481 OFFCURVE",
"450 442 CURVE SMOOTH",
"450 403 OFFCURVE",
"473 386 OFFCURVE",
"502 386 CURVE SMOOTH"
);
},
{
closed = 1;
nodes = (
"518 68 LINE",
"387 323 OFFCURVE",
"263 531 OFFCURVE",
"92 780 CURVE",
"21 731 LINE",
"189 490 OFFCURVE",
"318 273 OFFCURVE",
"441 30 CURVE"
);
},
{
closed = 1;
nodes = (
"468 939 LINE",
"336 624 OFFCURVE",
"190 362 OFFCURVE",
"23 130 CURVE",
"93 80 LINE",
"255 304 OFFCURVE",
"409 576 OFFCURVE",
"548 909 CURVE"
);
},
{
closed = 1;
nodes = (
"634 383 LINE",
"531 194 OFFCURVE",
"406 1 OFFCURVE",
"287 -151 CURVE",
"355 -203 LINE",
"492 -27 OFFCURVE",
"596 138 OFFCURVE",
"710 343 CURVE"
);
}
);
};
layerId = "CFFEBDE4-599A-46B2-9328-D96E42CD9C81";
paths = (
{
closed = 1;
nodes = (
"264 17 OFFCURVE",
"287 34 OFFCURVE",
"287 73 CURVE SMOOTH",
"287 112 OFFCURVE",
"264 129 OFFCURVE",
"236 129 CURVE SMOOTH",
"207 129 OFFCURVE",
"184 112 OFFCURVE",
"184 73 CURVE SMOOTH",
"184 34 OFFCURVE",
"207 17 OFFCURVE",
"236 17 CURVE SMOOTH"
);
},
{
closed = 1;
nodes = (
"537 422 OFFCURVE",
"560 439 OFFCURVE",
"560 478 CURVE SMOOTH",
"560 517 OFFCURVE",
"537 534 OFFCURVE",
"509 534 CURVE SMOOTH",
"480 534 OFFCURVE",
"457 517 OFFCURVE",
"457 478 CURVE SMOOTH",
"457 439 OFFCURVE",
"480 422 OFFCURVE",
"509 422 CURVE SMOOTH"
);
},
{
closed = 1;
nodes = (
"233 435 LINE",
"321 293 OFFCURVE",
"392 173 OFFCURVE",
"460 25 CURVE",
"531 72 LINE",
"458 227 OFFCURVE",
"381 362 OFFCURVE",
"281 515 CURVE"
);
},
{
closed = 1;
nodes = (
"438 939 LINE",
"306 624 OFFCURVE",
"160 362 OFFCURVE",
"-7 130 CURVE",
"63 80 LINE",
"225 304 OFFCURVE",
"379 576 OFFCURVE",
"518 909 CURVE"
);
},
{
closed = 1;
nodes = (
"634 383 LINE",
"531 194 OFFCURVE",
"406 1 OFFCURVE",
"287 -151 CURVE",
"355 -203 LINE",
"492 -27 OFFCURVE",
"596 138 OFFCURVE",
"710 343 CURVE"
);
}
);
vertOrigin = 25;
vertWidth = 1362;
width = 725;
}
);
unicode = 1B1C6;
},
{
glyphname = u1B1C7;
lastChange = "2020-04-06 14:41:26 +0000";
layers = (
{
background = {
paths = (
{
closed = 1;
nodes = (
"667 162 OFFCURVE",
"690 179 OFFCURVE",
"690 218 CURVE SMOOTH",
"690 257 OFFCURVE",
"667 274 OFFCURVE",
"639 274 CURVE SMOOTH",
"610 274 OFFCURVE",
"587 257 OFFCURVE",
"587 218 CURVE SMOOTH",
"587 179 OFFCURVE",
"610 162 OFFCURVE",
"639 162 CURVE SMOOTH"
);
},
{
closed = 1;
nodes = (
"223 -35 OFFCURVE",
"246 -18 OFFCURVE",
"246 21 CURVE SMOOTH",
"246 60 OFFCURVE",
"223 77 OFFCURVE",
"195 77 CURVE SMOOTH",
"166 77 OFFCURVE",
"143 60 OFFCURVE",
"143 21 CURVE SMOOTH",
"143 -18 OFFCURVE",
"166 -35 OFFCURVE",
"195 -35 CURVE SMOOTH"
);
},
{
closed = 1;
nodes = (
"495 939 LINE",
"352 774 OFFCURVE",
"208 650 OFFCURVE",
"33 522 CURVE",
"84 453 LINE",
"259 580 OFFCURVE",
"404 704 OFFCURVE",
"561 884 CURVE"
);
},
{
closed = 1;
nodes = (
"477 734 OFFCURVE",
"501 692 OFFCURVE",
"501 629 CURVE SMOOTH",
"501 530 OFFCURVE",
"415 444 OFFCURVE",
"115 252 CURVE",
"162 180 LINE",
"491 388 OFFCURVE",
"587 501 OFFCURVE",
"587 629 CURVE SMOOTH",
"587 719 OFFCURVE",
"556 775 OFFCURVE",
"473 864 CURVE",
"424 793 LINE"
);
},
{
closed = 1;
nodes = (
"353 363 LINE",
"369 247 OFFCURVE",
"374 170 OFFCURVE",
"374 42 CURVE SMOOTH",
"374 -51 OFFCURVE",
"370 -113 OFFCURVE",
"362 -196 CURVE",
"447 -203 LINE",
"456 -122 OFFCURVE",
"460 -53 OFFCURVE",
"460 40 CURVE SMOOTH",
"460 170 OFFCURVE",
"454 263 OFFCURVE",
"419 408 CURVE"
);
}
);
};
layerId = "CFFEBDE4-599A-46B2-9328-D96E42CD9C81";
paths = (
{
closed = 1;
nodes = (
"216 905 LINE",
"332 594 OFFCURVE",
"378 361 OFFCURVE",
"378 76 CURVE SMOOTH",
"378 -26 OFFCURVE",
"374 -107 OFFCURVE",
"365 -194 CURVE",
"449 -203 LINE",
"458 -110 OFFCURVE",
"464 -22 OFFCURVE",
"464 83 CURVE SMOOTH",
"464 355 OFFCURVE",
"421 616 OFFCURVE",
"297 933 CURVE"
);
},
{
closed = 1;
nodes = (
"677 162 OFFCURVE",
"700 179 OFFCURVE",
"700 218 CURVE SMOOTH",
"700 257 OFFCURVE",
"677 274 OFFCURVE",
"649 274 CURVE SMOOTH",
"620 274 OFFCURVE",
"597 257 OFFCURVE",
"597 218 CURVE SMOOTH",
"597 179 OFFCURVE",
"620 162 OFFCURVE",
"649 162 CURVE SMOOTH"
);
},
{
closed = 1;
nodes = (
"223 -35 OFFCURVE",
"246 -18 OFFCURVE",
"246 21 CURVE SMOOTH",
"246 60 OFFCURVE",
"223 77 OFFCURVE",
"195 77 CURVE SMOOTH",
"166 77 OFFCURVE",
"143 60 OFFCURVE",
"143 21 CURVE SMOOTH",
"143 -18 OFFCURVE",
"166 -35 OFFCURVE",
"195 -35 CURVE SMOOTH"
);
},
{
closed = 1;
nodes = (
"626 939 LINE",
"432 774 OFFCURVE",
"251 656 OFFCURVE",
"32 538 CURVE",
"74 463 LINE",
"293 580 OFFCURVE",
"484 705 OFFCURVE",
"684 875 CURVE"
);
},
{
closed = 1;
nodes = (
"593 725 OFFCURVE",
"609 684 OFFCURVE",
"609 632 CURVE SMOOTH",
"609 530 OFFCURVE",
"510 449 OFFCURVE",
"114 257 CURVE",
"152 180 LINE",
"607 395 OFFCURVE",
"695 498 OFFCURVE",
"695 632 CURVE SMOOTH",
"695 711 OFFCURVE",
"672 766 OFFCURVE",
"593 864 CURVE",
"544 793 LINE"
);
}
);
vertOrigin = 25;
vertWidth = 1362;
width = 760;
}
);
unicode = 1B1C7;
},
{
glyphname = u1B1C8;
lastChange = "2020-04-05 15:40:04 +0000";
layers = (
{
layerId = "CFFEBDE4-599A-46B2-9328-D96E42CD9C81";
paths = (
{
closed = 1;
nodes = (
"459 673 LINE",
"377 488 OFFCURVE",
"296 331 OFFCURVE",
"189 160 CURVE",
"242 83 LINE",
"354 259 OFFCURVE",
"427 393 OFFCURVE",
"501 555 CURVE"
);
},
{
closed = 1;
nodes = (
"324 890 LINE",
"235 693 OFFCURVE",
"143 514 OFFCURVE",
"50 360 CURVE",
"148 179 OFFCURVE",
"223 17 OFFCURVE",
"281 -143 CURVE",
"369 -153 LINE",
"486 23 OFFCURVE",
"570 166 OFFCURVE",
"664 351 CURVE",
"588 526 OFFCURVE",
"512 692 OFFCURVE",
"413 882 CURVE"
);
},
{
closed = 1;
nodes = (
"352 814 LINE",
"439 642 OFFCURVE",
"514 484 OFFCURVE",
"599 280 CURVE",
"603 428 LINE",
"515 241 OFFCURVE",
"417 73 OFFCURVE",
"319 -70 CURVE",
"351 -86 LINE",
"293 73 OFFCURVE",
"218 233 OFFCURVE",
"123 403 CURVE",
"117 301 LINE",
"232 502 OFFCURVE",
"312 659 OFFCURVE",
"388 821 CURVE"
);
}
);
vertOrigin = 30;
vertWidth = 1362;
width = 714;
}
);
unicode = 1B1C8;
},
{
glyphname = u1B1C9;
lastChange = "2020-04-07 09:20:12 +0000";
layers = (
{
layerId = "CFFEBDE4-599A-46B2-9328-D96E42CD9C81";
paths = (
{
closed = 1;
nodes = (
"276 162 LINE",
"209 29 OFFCURVE",
"156 -48 OFFCURVE",
"64 -149 CURVE",
"123 -203 LINE",
"227 -83 OFFCURVE",
"271 -14 OFFCURVE",
"347 126 CURVE"
);
},
{
closed = 1;
nodes = (
"67 88 LINE",
"159 -5 OFFCURVE",
"220 -83 OFFCURVE",
"283 -182 CURVE",
"352 -136 LINE",
"277 -24 OFFCURVE",
"208 58 OFFCURVE",
"126 145 CURVE"
);
},
{
closed = 1;
nodes = (
"556 939 LINE",
"403 796 OFFCURVE",
"257 701 OFFCURVE",
"69 584 CURVE",
"114 513 LINE",
"302 629 OFFCURVE",
"448 725 OFFCURVE",
"615 880 CURVE"
);
},
{
closed = 1;
nodes = (
"507 754 OFFCURVE",
"526 711 OFFCURVE",
"526 667 CURVE SMOOTH",
"526 571 OFFCURVE",
"453 494 OFFCURVE",
"145 332 CURVE",
"185 256 LINE",
"522 434 OFFCURVE",
"612 536 OFFCURVE",
"612 667 CURVE SMOOTH",
"612 738 OFFCURVE",
"586 795 OFFCURVE",
"503 884 CURVE",
"454 813 LINE"
);
},
{
closed = 1;
nodes = (
"523 -33 LINE",
"514 121 OFFCURVE",
"496 262 OFFCURVE",
"453 438 CURVE",
"383 393 LINE",
"414 229 OFFCURVE",
"428 111 OFFCURVE",
"437 -41 CURVE"
);
}
);
vertOrigin = 25;
vertWidth = 1362;
width = 683;
}
);
unicode = 1B1C9;
},
{
glyphname = u1B1CA;
lastChange = "2020-04-06 14:46:10 +0000";
layers = (
{
layerId = "CFFEBDE4-599A-46B2-9328-D96E42CD9C81";
paths = (
{
closed = 1;
nodes = (
"432 154 LINE",
"529 247 OFFCURVE",
"594 324 OFFCURVE",
"660 442 CURVE",
"629 440 LINE",
"643 324 OFFCURVE",
"646 256 OFFCURVE",
"642 139 CURVE",
"728 139 LINE",
"729 266 OFFCURVE",
"720 344 OFFCURVE",
"696 484 CURVE",
"605 494 LINE",
"539 387 OFFCURVE",
"480 314 OFFCURVE",
"399 233 CURVE"
);
},
{
closed = 1;
nodes = (
"476 -200 LINE",
"476 222 OFFCURVE",
"418 454 OFFCURVE",
"299 704 CURVE",
"244 636 LINE",
"344 403 OFFCURVE",
"395 202 OFFCURVE",
"390 -203 CURVE"
);
},
{
closed = 1;
nodes = (
"437 939 LINE",
"323 743 OFFCURVE",
"192 578 OFFCURVE",
"20 426 CURVE",
"76 366 LINE",
"245 518 OFFCURVE",
"394 696 OFFCURVE",
"510 898 CURVE"
);
},
{
closed = 1;
nodes = (
"538 727 LINE",
"399 517 OFFCURVE",
"275 377 OFFCURVE",
"105 231 CURVE",
"158 171 LINE",
"324 314 OFFCURVE",
"459 459 OFFCURVE",
"607 683 CURVE"
);
}
);
vertOrigin = 25;
vertWidth = 1362;
width = 818;
}
);
unicode = 1B1CA;
},
{
glyphname = u1B1CB;
lastChange = "2020-04-06 14:46:43 +0000";
layers = (
{
layerId = "CFFEBDE4-599A-46B2-9328-D96E42CD9C81";
paths = (
{
closed = 1;
nodes = (
"223 187 OFFCURVE",
"246 204 OFFCURVE",
"246 243 CURVE SMOOTH",
"246 282 OFFCURVE",
"223 299 OFFCURVE",
"195 299 CURVE SMOOTH",
"166 299 OFFCURVE",
"143 282 OFFCURVE",
"143 243 CURVE SMOOTH",
"143 204 OFFCURVE",
"166 187 OFFCURVE",
"195 187 CURVE SMOOTH"
);
},
{
closed = 1;
nodes = (
"150 2 OFFCURVE",
"173 19 OFFCURVE",
"173 58 CURVE SMOOTH",
"173 97 OFFCURVE",
"150 114 OFFCURVE",
"122 114 CURVE SMOOTH",
"93 114 OFFCURVE",
"70 97 OFFCURVE",
"70 58 CURVE SMOOTH",
"70 19 OFFCURVE",
"93 2 OFFCURVE",
"122 2 CURVE SMOOTH"
);
},
{
closed = 1;
nodes = (
"199 495 LINE",
"335 296 OFFCURVE",
"436 123 OFFCURVE",
"544 -106 CURVE",
"621 -68 LINE",
"507 169 OFFCURVE",
"395 360 OFFCURVE",
"248 577 CURVE",
"260 499 LINE",
"337 640 OFFCURVE",
"392 752 OFFCURVE",
"452 910 CURVE",
"371 939 LINE",
"312 789 OFFCURVE",
"263 682 OFFCURVE",
"199 566 CURVE"
);
},
{
closed = 1;
nodes = (
"443 713 OFFCURVE",
"469 645 OFFCURVE",
"469 549 CURVE SMOOTH",
"469 375 OFFCURVE",
"401 213 OFFCURVE",
"133 -153 CURVE",
"203 -203 LINE",
"468 153 OFFCURVE",
"555 367 OFFCURVE",
"555 549 CURVE SMOOTH",
"555 675 OFFCURVE",
"515 770 OFFCURVE",
"410 889 CURVE",
"375 803 LINE"
);
}
);
vertOrigin = 25;
vertWidth = 1362;
width = 557;
}
);
unicode = 1B1CB;
},
